<?xml version="1.0" encoding="UTF-8" standalone="no"?>
<!DOCTYPE svg PUBLIC "-//W3C//DTD SVG 1.1//EN" "http://www.w3.org/Graphics/SVG/1.1/DTD/svg11.dtd">
<!-- Created with Vectornator (http://vectornator.io/) -->
<svg height="100%" stroke-miterlimit="10" style="fill-rule:nonzero;clip-rule:evenodd;stroke-linecap:round;stroke-linejoin:round;" version="1.1" viewBox="0 0 1024 1024" width="100%" xml:space="preserve" xmlns="http://www.w3.org/2000/svg" xmlns:vectornator="http://vectornator.io" xmlns:xlink="http://www.w3.org/1999/xlink">
<defs/>
<clipPath id="ArtboardFrame">
<rect height="1024" width="1024" x="0" y="0"/>
</clipPath>
<g clip-path="url(#ArtboardFrame)" id="Layer-1" vectornator:layerName="Layer 1">
<path d="M11.0361 1.34104L1017.49 1.34104L1017.49 1014.78L11.0361 1014.78L11.0361 1.34104Z" fill="#66748f" fill-rule="nonzero" opacity="1" stroke="#c79475" stroke-linecap="butt" stroke-linejoin="miter" stroke-width="21.6789"/>
<path d="M-235.045 106.219L-219.623 106.219L-219.623 110.913L-235.045 110.913L-235.045 106.219Z" fill="#515c8a" fill-rule="nonzero" opacity="1" stroke="#c79475" stroke-linecap="butt" stroke-linejoin="miter" stroke-width="21.6789"/>
<path d="M13.7182 1.34104L14.3887 1.34104L14.3887 1.34104L13.7182 1.34104L13.7182 1.34104Z" fill="#66748f" fill-rule="nonzero" opacity="1" stroke="#c79475" stroke-linecap="butt" stroke-linejoin="miter" stroke-width="21.6789"/>
<path d="M218.898 33.8029L982.621 33.8029L982.621 157.179L218.898 157.179L218.898 33.8029Z" fill="#7687cc" fill-rule="nonzero" opacity="1" stroke="#c79475" stroke-linecap="butt" stroke-linejoin="miter" stroke-width="21.6789"/>
<path d="M39.8685 35.8145L186.042 35.8145L186.042 747.908L39.8685 747.908L39.8685 35.8145Z" fill="#7687cc" fill-rule="nonzero" opacity="1" stroke="#c79475" stroke-linecap="butt" stroke-linejoin="miter" stroke-width="21.6789"/>
<path d="M341.938 605.087L877.684 605.087C921.197 605.087 956.471 640.361 956.471 683.873L956.471 683.873C956.471 727.385 921.197 762.659 877.684 762.659L341.938 762.659C298.426 762.659 263.152 727.385 263.152 683.873L263.152 683.873C263.152 640.361 298.426 605.087 341.938 605.087Z" fill="#ebecf0" fill-rule="nonzero" opacity="1" stroke="#c79475" stroke-linecap="butt" stroke-linejoin="miter" stroke-width="21.6789"/>
<path d="M338.586 808.255L874.332 808.255C917.844 808.255 953.118 843.528 953.118 887.041L953.118 887.041C953.118 930.553 917.844 965.827 874.332 965.827L338.586 965.827C295.073 965.827 259.799 930.553 259.799 887.041L259.799 887.041C259.799 843.528 295.073 808.255 338.586 808.255Z" fill="#ebecf0" fill-rule="nonzero" opacity="1" stroke="#c79475" stroke-linecap="butt" stroke-linejoin="miter" stroke-width="21.6789"/>
<path d="M950.856 132.875C950.856 133.676 950.183 134.325 949.353 134.325L865.191 134.325C864.361 134.325 863.688 133.676 863.688 132.875L863.688 121.268C863.723 116.08 866.813 111.363 871.654 109.109L892.799 99.3451C896.632 104.002 901.681 107.325 907.272 107.325C912.863 107.325 917.913 104.002 921.745 99.3451L942.891 109.109C947.746 111.37 950.839 116.107 950.856 121.311L950.856 132.875Z" fill="#c2cde7" fill-rule="nonzero" opacity="1" stroke="none" vectornator:layerName="path"/>
<path d="M922.722 106.005L907.272 113.462L891.822 106.005C890.529 105.378 889.625 104.191 889.393 102.812C889.161 101.433 889.628 100.03 890.65 99.0404L890.74 98.9533L923.804 98.9533L923.894 99.0404C924.916 100.03 925.384 101.433 925.151 102.812C924.919 104.191 924.016 105.378 922.722 106.005Z" fill="#d6dff2" fill-rule="nonzero" opacity="1" stroke="none" vectornator:layerName="path"/>
<path d="M917.792 117.815L907.272 114.913L896.752 117.815L896.752 109.109L907.272 112.011L917.792 109.109L917.792 117.815Z" fill="#ed7899" fill-rule="nonzero" opacity="1" stroke="none" vectornator:layerName="path"/>
<path d="M944.844 127.971L869.7 127.971C866.38 127.971 863.688 130.569 863.688 133.774L863.688 133.774C863.688 134.575 864.361 135.225 865.191 135.225L949.353 135.225C950.183 135.225 950.856 134.575 950.856 133.774L950.856 133.774C950.856 130.569 948.164 127.971 944.844 127.971Z" fill="#acb7d0" fill-rule="nonzero" opacity="1" stroke="none" vectornator:layerName="path"/>
<path d="M887.84 87.535L887.84 87.535C887.374 87.535 885.871 86.3453 885.089 83.5161C884.308 80.6869 885.014 78.7718 885.375 78.6847C885.375 78.6847 888.23 78.2059 888.261 77.6546C888.298 76.8615 888.389 76.0716 888.531 75.2897C888.615 74.4518 888.575 73.6065 888.411 72.7797C888.014 70.1662 887.948 67.5158 888.215 64.887C888.726 59.983 891.702 57.0668 896.196 57.0668C896.537 57.0657 896.869 56.9589 897.143 56.7621C900.184 54.9398 903.693 53.9749 907.272 53.9764L908.865 53.9764C918.514 53.9764 925.397 58.7353 928.328 67.1358C927.23 67.0197 927.591 67.7597 926.825 68.4851C926.058 69.2105 924.15 69.5007 924.871 71.3868C925.744 73.3712 926.253 75.4873 926.374 77.6401C926.374 78.1914 929.229 77.2193 929.259 77.2193C929.65 77.3499 930.341 80.6579 929.545 83.5016C928.748 86.3453 927.261 87.5205 926.795 87.5205C926.103 87.5445 925.501 87.9859 925.292 88.6232C922.617 97.3284 915.613 106.106 907.377 106.106C899.141 106.106 892.033 97.3138 889.358 88.6232C889.153 87.9785 888.538 87.5373 887.84 87.535Z" fill="#faefde" fill-rule="nonzero" opacity="1" stroke="none" vectornator:layerName="path"/>
<path d="M888.411 72.8377C892.902 72.5435 896.777 69.688 898.255 65.5834C902.763 67.0342 904.266 71.3868 925.307 69.936C927.396 69.7909 927.711 70.5018 928.313 69.936C928.914 69.3701 927.23 67.0342 928.313 67.1358C925.472 58.7353 918.499 53.9764 908.865 53.9764L907.272 53.9764C903.69 53.9635 900.176 54.9183 897.128 56.7331C896.854 56.9299 896.522 57.0367 896.181 57.0378C891.672 57.0378 888.666 59.9395 888.2 64.8579C887.933 67.4867 887.999 70.1372 888.396 72.7507L888.411 72.8377Z" fill="#cda1a7" fill-rule="nonzero" opacity="1" stroke="none" vectornator:layerName="path"/>
<path d="M929.815 125.069C928.985 125.069 928.313 125.719 928.313 126.52L928.313 129.422C928.313 130.223 928.985 130.872 929.815 130.872C930.645 130.872 931.318 130.223 931.318 129.422L931.318 126.52C931.318 125.719 930.645 125.069 929.815 125.069ZM937.33 125.069C936.5 125.069 935.827 125.719 935.827 126.52L935.827 129.422C935.827 130.223 936.5 130.872 937.33 130.872C938.16 130.872 938.833 130.223 938.833 129.422L938.833 126.52C938.833 125.719 938.16 125.069 937.33 125.069ZM943.341 126.52L943.341 129.422C943.341 130.223 944.014 130.872 944.844 130.872C945.674 130.872 946.347 130.223 946.347 129.422L946.347 126.52C946.347 125.719 945.674 125.069 944.844 125.069C944.014 125.069 943.341 125.719 943.341 126.52ZM922.301 125.069C921.471 125.069 920.798 125.719 920.798 126.52L920.798 129.422C920.798 130.223 921.471 130.872 922.301 130.872C923.131 130.872 923.804 130.223 923.804 129.422L923.804 126.52C923.804 125.719 923.131 125.069 922.301 125.069ZM914.787 125.069C913.957 125.069 913.284 125.719 913.284 126.52L913.284 129.422C913.284 130.223 913.957 130.872 914.787 130.872C915.617 130.872 916.289 130.223 916.289 129.422L916.289 126.52C916.289 125.719 915.617 125.069 914.787 125.069ZM907.272 119.265C906.442 119.265 905.769 119.915 905.769 120.716L905.769 129.422C905.769 130.223 906.442 130.872 907.272 130.872C908.102 130.872 908.775 130.223 908.775 129.422L908.775 120.716C908.775 119.915 908.102 119.265 907.272 119.265ZM899.758 125.069C898.928 125.069 898.255 125.719 898.255 126.52L898.255 129.422C898.255 130.223 898.928 130.872 899.758 130.872C900.588 130.872 901.261 130.223 901.261 129.422L901.261 126.52C901.261 125.719 900.588 125.069 899.758 125.069ZM892.243 125.069C891.413 125.069 890.74 125.719 890.74 126.52L890.74 129.422C890.74 130.223 891.413 130.872 892.243 130.872C893.073 130.872 893.746 130.223 893.746 129.422L893.746 126.52C893.746 125.719 893.073 125.069 892.243 125.069ZM884.729 125.069C883.899 125.069 883.226 125.719 883.226 126.52L883.226 129.422C883.226 130.223 883.899 130.872 884.729 130.872C885.559 130.872 886.232 130.223 886.232 129.422L886.232 126.52C886.232 125.719 885.559 125.069 884.729 125.069ZM877.214 125.069C876.384 125.069 875.711 125.719 875.711 126.52L875.711 129.422C875.711 130.223 876.384 130.872 877.214 130.872C878.044 130.872 878.717 130.223 878.717 129.422L878.717 126.52C878.717 125.719 878.044 125.069 877.214 125.069ZM869.7 125.069C868.87 125.069 868.197 125.719 868.197 126.52L868.197 129.422C868.197 130.223 868.87 130.872 869.7 130.872C870.53 130.872 871.203 130.223 871.203 129.422L871.203 126.52C871.203 125.719 870.53 125.069 869.7 125.069ZM918.393 108.34C917.833 107.927 917.103 107.793 916.425 107.978L916.425 107.978L909.346 109.936C907.996 110.309 906.564 110.309 905.213 109.936L898.135 107.978C897.453 107.786 896.718 107.915 896.151 108.326C895.583 108.737 895.249 109.382 895.249 110.067L895.249 116.843C895.25 117.524 895.582 118.166 896.146 118.576C896.71 118.986 897.44 119.118 898.119 118.932L905.198 116.973C906.549 116.6 907.98 116.6 909.331 116.973L916.41 118.932C916.61 118.988 916.817 119.017 917.026 119.019C918.271 119.019 919.28 118.044 919.28 116.843L919.28 110.067C919.281 109.389 918.953 108.75 918.393 108.34ZM916.891 116.465L910.278 114.608C908.266 114.039 906.128 114.039 904.116 114.608L897.654 116.451L897.654 110.415L904.266 112.258C906.278 112.827 908.416 112.827 910.428 112.258L916.891 110.415L916.891 116.465Z" fill="#8d6c9f" fill-rule="nonzero" opacity="1" stroke="none" vectornator:layerName="path"/>
<path d="M942.966 106.759L923.022 97.5025C924.614 95.1185 925.887 92.5493 926.81 89.8564C928.658 89.189 930.341 86.9547 931.138 84.0529C931.605 82.478 931.698 80.8214 931.409 79.207C931.253 77.7004 930.202 76.4196 928.718 75.9281C928.507 75.8716 928.291 75.8375 928.072 75.8265C927.814 74.1166 927.35 72.4416 926.689 70.8355L926.689 70.6759C927.402 70.7587 928.1 70.9344 928.763 71.1982C929.281 71.406 929.876 71.3181 930.306 70.9703C930.735 70.6226 930.929 70.0728 930.807 69.5442C928.313 58.9239 920.137 52.5256 908.775 52.5256L907.272 52.5256C903.409 52.541 899.619 53.5421 896.286 55.4273C890.74 55.6304 886.863 59.4317 886.232 65.4383C885.954 68.1441 886.019 70.8727 886.427 73.5631C886.507 74.0431 886.553 74.5279 886.562 75.014C886.562 75.2848 886.517 75.5605 886.427 75.841C886.203 75.8497 885.981 75.8838 885.766 75.9426C884.282 76.4341 883.231 77.7149 883.076 79.2215C882.786 80.8359 882.879 82.4925 883.346 84.0674C884.158 86.9692 885.841 89.1455 887.674 89.8709C888.617 92.5616 889.91 95.126 891.522 97.5025L871.578 106.759C865.852 109.425 862.204 115.014 862.185 121.152L862.185 132.323C862.185 134.727 864.204 136.676 866.694 136.676L947.85 136.676C950.34 136.676 952.359 134.727 952.359 132.323L952.359 121.152C952.34 115.014 948.692 109.425 942.966 106.759ZM888.862 87.1723L888.862 87.1723C888.426 87.1723 886.998 86.0406 886.262 83.371C885.92 82.2309 885.843 81.032 886.036 79.8599C886.187 79.12 886.472 78.8153 886.532 78.8008C886.68 78.8258 886.82 78.8856 886.938 78.9749C887.39 79.2487 887.959 79.2701 888.433 79.0313C888.906 78.7924 889.212 78.3291 889.237 77.8142C889.273 77.0649 889.358 76.3186 889.493 75.5799C889.572 74.7853 889.531 73.9838 889.373 73.2004C889.014 70.7243 888.968 68.2152 889.237 65.7285C889.703 61.1002 892.529 58.329 896.752 58.329C897.077 58.329 897.393 58.2272 897.654 58.0389C900.544 56.317 903.876 55.4122 907.272 55.4273L908.775 55.4273C917.898 55.4273 924.48 59.925 927.185 67.8757C926.174 67.6831 925.126 67.9387 924.33 68.5722C923.464 69.4815 923.289 70.8207 923.894 71.9092C924.696 73.7871 925.153 75.7851 925.247 77.8142C925.274 78.3312 925.584 78.7951 926.062 79.0314C926.539 79.2677 927.11 79.2406 927.561 78.9604C927.68 78.8721 927.819 78.8124 927.967 78.7863C928.057 78.7863 928.328 79.12 928.478 79.8454C928.693 81.018 928.637 82.222 928.313 83.371C927.576 86.0406 926.148 87.1723 925.713 87.1723L925.713 87.1723C925.027 87.144 924.408 87.568 924.21 88.2024C921.685 96.4288 915.057 104.757 907.272 104.757C899.487 104.757 892.859 96.4288 890.335 88.2169C890.147 87.5979 889.56 87.1723 888.892 87.1723L888.862 87.1723ZM949.353 132.323C949.353 133.125 948.68 133.774 947.85 133.774L866.694 133.774C865.864 133.774 865.191 133.125 865.191 132.323L865.191 121.152C865.192 116.122 868.185 111.539 872.886 109.371L893.295 99.9399C896.992 104.452 901.862 107.659 907.272 107.659C912.682 107.659 917.552 104.452 921.249 99.9544L941.658 109.385C946.355 111.551 949.347 116.127 949.353 121.152L949.353 132.323Z" fill="#8d6c9f" fill-rule="nonzero" opacity="1" stroke="none" vectornator:layerName="path"/>
<path d="M901.14 68.311C905.445 70.3292 910.167 71.3807 914.952 71.3868L918.784 71.3868C919.614 71.3868 920.287 70.7373 920.287 69.936C920.287 69.1347 919.614 68.4851 918.784 68.4851L914.952 68.4851C910.619 68.4794 906.345 67.527 902.448 65.6994L900.103 64.5968C898.743 63.9555 897.101 64.3906 896.271 65.6124L893.866 69.138C893.56 69.5708 893.52 70.1294 893.76 70.5992C894.001 71.0689 894.485 71.3769 895.027 71.4049C895.569 71.4328 896.085 71.1763 896.376 70.734L898.781 67.2083L901.14 68.311Z" fill="#8d6c9f" fill-rule="nonzero" opacity="1" stroke="none" vectornator:layerName="path"/>
<path d="M130.494 205.071C129.809 205.071 129.254 204.629 129.254 204.084L129.254 196.182C129.254 195.092 130.366 194.206 131.733 194.206L141.649 194.206C142.333 194.206 142.888 194.649 142.888 195.194C142.888 195.739 142.333 196.182 141.649 196.182L131.733 196.182L131.733 204.084C131.733 204.629 131.178 205.071 130.494 205.071ZM146.607 182.012C145.979 182.012 145.362 181.821 144.89 181.461L114.362 159.953L83.8115 180.52C83.1509 181.026 82.0973 181.179 81.1801 180.869C80.2666 180.557 79.6754 179.844 79.6754 179.052L79.6754 175.861C79.6754 175.326 79.953 174.807 80.4377 174.436L112.697 152.64C113.662 151.93 115.144 151.939 116.096 152.664L148.287 175.396C148.808 175.793 149.087 176.314 149.087 176.848L149.087 180.037C149.087 180.83 148.494 181.543 147.58 181.854C147.264 181.961 146.934 182.012 146.607 182.012ZM114.361 157.982C114.949 157.982 115.538 158.146 116.003 158.474L146.569 180.009L146.607 176.848L114.416 154.117L114.389 154.137L114.325 154.131L82.0985 175.902L82.1543 179.052L112.762 158.444C113.22 158.136 113.79 157.982 114.361 157.982Z" fill="#ebecf0" fill-rule="nonzero" opacity="1" stroke="none" vectornator:layerName="path"/>
<path d="M129.98 206.059L124.296 206.059C122.929 206.059 121.817 205.173 121.817 204.084L121.817 188.28L106.944 188.28L106.944 204.084C106.944 205.173 105.832 206.059 104.465 206.059L87.1122 206.059C85.7451 206.059 84.6333 205.173 84.6333 204.084L84.6333 178.403C84.6333 177.858 85.1885 177.415 85.8727 177.415C86.5569 177.415 87.1122 177.858 87.1122 178.403L87.1122 204.084L104.465 204.084L104.465 188.28C104.465 187.191 105.577 186.305 106.944 186.305L121.817 186.305C123.184 186.305 124.296 187.191 124.296 188.28L124.296 204.084L129.98 204.084L141.649 194.785L141.649 179.391C141.649 178.845 142.204 178.403 142.888 178.403C143.572 178.403 144.128 178.845 144.128 179.391L144.128 194.785C144.128 195.313 143.87 195.808 143.401 196.182L131.733 205.48C131.264 205.854 130.642 206.059 129.98 206.059Z" fill="#ebecf0" fill-rule="nonzero" opacity="1" stroke="none" vectornator:layerName="path"/>
<path d="M114.38 181.366C110.279 181.366 106.944 178.708 106.944 175.44C106.944 172.171 110.279 169.513 114.38 169.513C118.482 169.513 121.817 172.171 121.817 175.44C121.817 178.708 118.482 181.366 114.38 181.366ZM114.38 171.489C111.646 171.489 109.423 173.261 109.423 175.44C109.423 177.619 111.646 179.391 114.38 179.391C117.115 179.391 119.338 177.619 119.338 175.44C119.338 173.261 117.115 171.489 114.38 171.489ZM89.5911 202.108C88.9069 202.108 88.3517 201.666 88.3517 201.12L88.3517 199.145C88.3517 198.6 88.9069 198.157 89.5911 198.157C90.2753 198.157 90.8306 198.6 90.8306 199.145L90.8306 201.12C90.8306 201.666 90.2753 202.108 89.5911 202.108ZM95.7885 202.108C95.1043 202.108 94.549 201.666 94.549 201.12L94.549 199.145C94.549 198.6 95.1043 198.157 95.7885 198.157C96.4726 198.157 97.0279 198.6 97.0279 199.145L97.0279 201.12C97.0279 201.666 96.4726 202.108 95.7885 202.108ZM101.986 202.108C101.302 202.108 100.746 201.666 100.746 201.12L100.746 199.145C100.746 198.6 101.302 198.157 101.986 198.157C102.67 198.157 103.225 198.6 103.225 199.145L103.225 201.12C103.225 201.666 102.67 202.108 101.986 202.108Z" fill="#ebecf0" fill-rule="nonzero" opacity="1" stroke="none" vectornator:layerName="path"/>
<path d="M113.57 274.56C104.869 274.56 97.7879 281.251 97.7879 289.472C97.7879 297.694 104.869 304.385 113.57 304.385C122.271 304.385 129.352 297.694 129.352 289.472C129.352 281.251 122.271 274.56 113.57 274.56ZM113.496 295.758C109.828 295.758 106.844 292.942 106.844 289.475C106.844 286.006 109.828 283.193 113.496 283.193C117.165 283.193 120.142 286.006 120.142 289.475C120.142 292.942 117.165 295.758 113.496 295.758Z" fill="#ebecf0" fill-rule="nonzero" opacity="1" stroke="none" vectornator:layerName="path"/>
<path d="M152.096 293.952L152.096 284.85L140.633 283.081C139.954 280.513 138.888 278.102 137.486 275.894L144.167 266.894L137.355 260.463L127.953 266.849C125.609 265.509 123.042 264.487 120.305 263.842L118.308 253.064L108.675 253.064L106.818 263.809C104.085 264.444 101.501 265.451 99.1516 266.785L89.7785 260.457L82.9663 266.891L89.5608 275.8C88.1363 278.029 87.0511 280.467 86.3628 283.069L75.0434 284.85L75.0434 293.952L86.35 295.846C87.0319 298.441 88.1171 300.879 89.548 303.112L82.8639 311.945L89.6728 318.385L99.1132 312.138C101.469 313.475 104.046 314.492 106.783 315.13L108.678 325.881L118.311 325.881L120.334 315.103C123.058 314.452 125.625 313.427 127.962 312.084L137.47 318.388L144.279 311.948L137.495 303.045C138.898 300.837 139.964 298.423 140.636 295.855L152.096 293.952ZM113.57 309.21C102.033 309.21 92.682 300.371 92.682 289.472C92.682 278.574 102.033 269.735 113.57 269.735C125.107 269.735 134.458 278.571 134.458 289.472C134.458 300.374 125.107 309.21 113.57 309.21Z" fill="#ebecf0" fill-rule="nonzero" opacity="1" stroke="none" vectornator:layerName="path"/>
<path d="M138.216 377.243L133.838 377.243C133.234 377.243 132.743 377.742 132.743 378.354C132.743 378.966 133.234 379.464 133.838 379.464L138.216 379.464C138.819 379.464 139.311 378.966 139.311 378.354C139.311 377.742 138.819 377.243 138.216 377.243Z" fill="#ebecf0" fill-rule="nonzero" opacity="1" stroke="none" vectornator:layerName="path"/>
<path d="M140.405 366.14L85.6746 366.14C83.862 366.14 82.3908 367.632 82.3908 369.471L82.3908 416.107C82.3908 417.946 83.862 419.438 85.6746 419.438L140.405 419.438C142.218 419.438 143.689 417.946 143.689 416.107L143.689 369.471C143.689 367.631 142.218 366.14 140.405 366.14ZM141.5 416.107C141.5 416.719 141.008 417.217 140.405 417.217L85.6746 417.217C85.0715 417.217 84.58 416.719 84.58 416.107L84.58 379.464L129.459 379.464C130.062 379.464 130.554 378.966 130.554 378.354C130.554 377.742 130.062 377.243 129.459 377.243L84.58 377.243L84.58 369.471C84.58 368.859 85.0715 368.36 85.6746 368.36L140.405 368.36C141.008 368.36 141.5 368.859 141.5 369.471L141.5 416.107Z" fill="#ebecf0" fill-rule="nonzero" opacity="1" stroke="none" vectornator:layerName="path"/>
<path d="M99.9046 370.581C99.3015 370.581 98.81 371.08 98.81 371.692L98.81 373.912C98.81 374.524 99.3015 375.023 99.9046 375.023C100.508 375.023 100.999 374.524 100.999 373.912L100.999 371.692C100.999 371.08 100.508 370.581 99.9046 370.581ZM94.4315 370.581C93.8284 370.581 93.3369 371.08 93.3369 371.692L93.3369 373.912C93.3369 374.524 93.8284 375.023 94.4315 375.023C95.0347 375.023 95.5261 374.524 95.5261 373.912L95.5261 371.692C95.5261 371.08 95.0347 370.581 94.4315 370.581ZM88.9585 370.581C88.3553 370.581 87.8639 371.08 87.8639 371.692L87.8639 373.912C87.8639 374.524 88.3553 375.023 88.9585 375.023C89.5616 375.023 90.0531 374.524 90.0531 373.912L90.0531 371.692C90.0531 371.08 89.5616 370.581 88.9585 370.581ZM116.324 370.581C115.721 370.581 115.229 371.08 115.229 371.692L115.229 373.912C115.229 374.524 115.721 375.023 116.324 375.023C116.927 375.023 117.418 374.524 117.418 373.912L117.418 371.692C117.418 371.08 116.927 370.581 116.324 370.581ZM121.797 370.581C121.194 370.581 120.702 371.08 120.702 371.692L120.702 373.912C120.702 374.524 121.194 375.023 121.797 375.023C122.4 375.023 122.891 374.524 122.891 373.912L122.891 371.692C122.891 371.08 122.4 370.581 121.797 370.581ZM127.27 370.581C126.667 370.581 126.175 371.08 126.175 371.692L126.175 373.912C126.175 374.524 126.667 375.023 127.27 375.023C127.873 375.023 128.364 374.524 128.364 373.912L128.364 371.692C128.364 371.08 127.873 370.581 127.27 370.581ZM132.743 375.023C133.346 375.023 133.838 374.524 133.838 373.912L133.838 371.692C133.838 371.08 133.346 370.581 132.743 370.581C132.14 370.581 131.648 371.08 131.648 371.692L131.648 373.912C131.648 374.523 132.14 375.023 132.743 375.023ZM138.216 370.581C137.613 370.581 137.121 371.08 137.121 371.692L137.121 373.912C137.121 374.524 137.613 375.023 138.216 375.023C138.819 375.023 139.311 374.524 139.311 373.912L139.311 371.692C139.311 371.08 138.819 370.581 138.216 370.581ZM105.378 370.581C104.775 370.581 104.283 371.08 104.283 371.692L104.283 373.912C104.283 374.524 104.775 375.023 105.378 375.023C105.981 375.023 106.472 374.524 106.472 373.912L106.472 371.692C106.472 371.08 105.981 370.581 105.378 370.581ZM110.851 370.581C110.248 370.581 109.756 371.08 109.756 371.692L109.756 373.912C109.756 374.524 110.248 375.023 110.851 375.023C111.454 375.023 111.945 374.524 111.945 373.912L111.945 371.692C111.945 371.08 111.454 370.581 110.851 370.581ZM94.4315 403.893C92.621 403.893 91.1477 402.398 91.1477 400.561C91.1477 398.725 92.621 397.23 94.4315 397.23C96.242 397.23 97.7154 398.725 97.7154 400.561C97.7154 402.398 96.242 403.893 94.4315 403.893ZM94.4315 399.451C93.8284 399.451 93.3369 399.949 93.3369 400.561C93.3369 401.174 93.8284 401.672 94.4315 401.672C95.0347 401.672 95.5261 401.174 95.5261 400.561C95.5261 399.949 95.0347 399.451 94.4315 399.451ZM106.472 408.334C104.662 408.334 103.188 406.84 103.188 405.003C103.188 403.166 104.662 401.672 106.472 401.672C108.283 401.672 109.756 403.166 109.756 405.003C109.756 406.84 108.283 408.334 106.472 408.334ZM106.472 403.893C105.869 403.893 105.378 404.39 105.378 405.003C105.378 405.616 105.869 406.113 106.472 406.113C107.075 406.113 107.567 405.616 107.567 405.003C107.567 404.39 107.075 403.893 106.472 403.893ZM117.418 398.341C115.608 398.341 114.135 396.846 114.135 395.01C114.135 393.173 115.608 391.678 117.418 391.678C119.229 391.678 120.702 393.173 120.702 395.01C120.702 396.846 119.229 398.341 117.418 398.341ZM117.418 393.899C116.815 393.899 116.324 394.397 116.324 395.01C116.324 395.623 116.815 396.12 117.418 396.12C118.022 396.12 118.513 395.623 118.513 395.01C118.513 394.397 118.022 393.899 117.418 393.899ZM128.364 405.003C126.554 405.003 125.081 403.508 125.081 401.672C125.081 399.835 126.554 398.341 128.364 398.341C130.175 398.341 131.648 399.835 131.648 401.672C131.648 403.508 130.175 405.003 128.364 405.003ZM128.364 400.561C127.761 400.561 127.27 401.059 127.27 401.672C127.27 402.285 127.761 402.782 128.364 402.782C128.968 402.782 129.459 402.285 129.459 401.672C129.459 401.059 128.968 400.561 128.364 400.561Z" fill="#ebecf0" fill-rule="nonzero" opacity="1" stroke="none" vectornator:layerName="path"/>
<path d="M87.8639 408.334C87.5836 408.334 87.3034 408.225 87.09 408.009C86.662 407.575 86.662 406.873 87.09 406.439L91.4684 401.997C91.8964 401.563 92.5882 401.563 93.0162 401.997C93.4442 402.431 93.4442 403.133 93.0162 403.567L88.6377 408.009C88.4243 408.225 88.1441 408.334 87.8639 408.334ZM104.07 405.227C103.945 405.227 103.819 405.205 103.695 405.16L96.4347 402.481C95.8666 402.273 95.5732 401.635 95.7801 401.059C95.987 400.482 96.6186 400.188 97.1834 400.395L104.444 403.073C105.012 403.282 105.305 403.919 105.099 404.496C104.937 404.947 104.517 405.227 104.07 405.227ZM108.418 404.337C108.119 404.337 107.821 404.214 107.604 403.969C107.199 403.514 107.236 402.811 107.685 402.401L114.72 395.979C115.17 395.569 115.861 395.606 116.266 396.061C116.671 396.516 116.634 397.219 116.185 397.629L109.15 404.051C108.941 404.242 108.679 404.337 108.418 404.337ZM125.972 401.325C125.78 401.325 125.585 401.274 125.409 401.167L119.044 397.294C118.526 396.978 118.358 396.297 118.668 395.77C118.979 395.243 119.65 395.073 120.17 395.389L126.535 399.262C127.053 399.578 127.222 400.259 126.911 400.786C126.706 401.133 126.344 401.325 125.972 401.325ZM130.234 400.886C129.954 400.886 129.674 400.777 129.46 400.56C129.032 400.126 129.032 399.424 129.46 398.99L137.442 390.893C137.87 390.459 138.562 390.459 138.99 390.893C139.418 391.328 139.418 392.029 138.99 392.463L131.008 400.56C130.795 400.777 130.514 400.886 130.234 400.886Z" fill="#ebecf0" fill-rule="nonzero" opacity="1" stroke="none" vectornator:layerName="path"/>
<path d="M115.159 465.423C105.488 465.423 97.6475 472.304 97.6475 480.791C97.6475 489.278 105.488 496.158 115.159 496.158C124.831 496.158 132.671 489.278 132.671 480.791C132.671 472.304 124.831 465.423 115.159 465.423ZM83.638 529.966C83.638 514.691 97.7525 502.305 115.159 502.305C132.566 502.305 146.68 514.691 146.68 529.966" fill="none" opacity="1" stroke="#ebecf0" stroke-linecap="butt" stroke-linejoin="miter" stroke-width="1" vectornator:layerName="path"/>
<g fill="#ebecf0" opacity="1" stroke="none">
<path d="M270.443 97.0795C272.01 97.0795 273.377 96.9461 274.543 96.6795C275.71 96.4128 276.677 95.9378 277.443 95.2545C278.21 94.5711 278.785 93.6628 279.168 92.5295C279.552 91.3961 279.743 89.9628 279.743 88.2295C279.743 86.4961 279.552 85.0628 279.168 83.9295C278.785 82.7961 278.21 81.8878 277.443 81.2045C276.677 80.5211 275.71 80.0461 274.543 79.7795C273.377 79.5128 272.01 79.3795 270.443 79.3795L262.693 79.3795L262.693 97.0795L270.443 97.0795ZM272.443 75.0795C274.277 75.0795 275.985 75.3461 277.568 75.8795C279.152 76.4128 280.527 77.2211 281.693 78.3045C282.86 79.3878 283.777 80.7545 284.443 82.4045C285.11 84.0545 285.443 85.9961 285.443 88.2295C285.443 90.4628 285.11 92.4045 284.443 94.0545C283.777 95.7045 282.86 97.0711 281.693 98.1545C280.527 99.2378 279.152 100.046 277.568 100.579C275.985 101.113 274.277 101.379 272.443 101.379L255.843 101.379L255.843 100.479C256.61 100.479 256.993 100.179 256.993 99.5795L256.993 76.8795C256.993 76.2795 256.61 75.9795 255.843 75.9795L255.843 75.0795L272.443 75.0795Z"/>
<path d="M305.693 92.1795L301.643 83.7795L298.093 92.1795L305.693 92.1795ZM288.993 100.479C289.393 100.413 289.718 100.221 289.968 99.9045C290.218 99.5878 290.41 99.2961 290.543 99.0295L297.993 82.7795C298.193 82.3128 298.352 81.9378 298.468 81.6545C298.585 81.3711 298.643 81.0961 298.643 80.8295C298.643 80.6295 298.602 80.5045 298.518 80.4545C298.435 80.4045 298.343 80.3461 298.243 80.2795L298.243 79.3795L305.793 79.3795L305.793 80.2795C305.693 80.3461 305.585 80.3961 305.468 80.4295C305.352 80.4628 305.293 80.5961 305.293 80.8295C305.293 81.0295 305.368 81.2711 305.518 81.5545C305.668 81.8378 305.827 82.1628 305.993 82.5295L314.093 99.5295C314.26 99.8295 314.443 100.046 314.643 100.179C314.843 100.313 315.06 100.413 315.293 100.479L315.293 101.379L308.193 101.379L308.193 100.629C308.36 100.629 308.535 100.579 308.718 100.479C308.902 100.379 308.993 100.196 308.993 99.9295C308.993 99.7295 308.96 99.5461 308.893 99.3795C308.827 99.2128 308.743 98.9961 308.643 98.7295L307.293 95.8795L296.593 95.8795L295.193 98.5795C295.06 98.8461 294.952 99.0878 294.868 99.3045C294.785 99.5211 294.743 99.7128 294.743 99.8795C294.743 100.146 294.827 100.313 294.993 100.379C295.16 100.446 295.393 100.479 295.693 100.479L295.693 101.379L288.993 101.379L288.993 100.479Z"/>
<path d="M321.593 93.7295C321.593 93.8628 321.585 94.0045 321.568 94.1545C321.552 94.3045 321.543 94.4628 321.543 94.6295C321.543 95.1295 321.86 95.5878 322.493 96.0045C323.127 96.4211 323.885 96.7711 324.768 97.0545C325.652 97.3378 326.535 97.5628 327.418 97.7295C328.302 97.8961 328.993 97.9795 329.493 97.9795C329.96 97.9795 330.535 97.9461 331.218 97.8795C331.902 97.8128 332.577 97.6711 333.243 97.4545C333.91 97.2378 334.477 96.9378 334.943 96.5545C335.41 96.1711 335.643 95.6628 335.643 95.0295C335.643 94.2961 335.235 93.7628 334.418 93.4295C333.602 93.0961 332.577 92.8378 331.343 92.6545C330.11 92.4711 328.777 92.2878 327.343 92.1045C325.91 91.9211 324.577 91.6211 323.343 91.2045C322.11 90.7878 321.085 90.1878 320.268 89.4045C319.452 88.6211 319.043 87.5128 319.043 86.0795C319.043 83.9461 319.927 82.2461 321.693 80.9795C323.46 79.7128 325.943 79.0795 329.143 79.0795C330.71 79.0795 332.052 79.2045 333.168 79.4545C334.285 79.7045 335.227 79.9795 335.993 80.2795C336.76 80.5795 337.385 80.8545 337.868 81.1045C338.352 81.3545 338.71 81.4795 338.943 81.4795C339.21 81.4795 339.41 81.4378 339.543 81.3545C339.677 81.2711 339.843 81.1795 340.043 81.0795L340.593 81.6295L338.093 86.3295L337.193 86.0295C337.16 85.8295 337.127 85.6295 337.093 85.4295C337.06 85.2295 336.91 85.0295 336.643 84.8295C335.977 84.2628 334.943 83.7795 333.543 83.3795C332.143 82.9795 330.577 82.7795 328.843 82.7795C328.177 82.7795 327.543 82.8211 326.943 82.9045C326.343 82.9878 325.81 83.1295 325.343 83.3295C324.877 83.5295 324.51 83.7878 324.243 84.1045C323.977 84.4211 323.843 84.8128 323.843 85.2795C323.843 86.0128 324.252 86.5378 325.068 86.8545C325.885 87.1711 326.91 87.4211 328.143 87.6045C329.377 87.7878 330.71 87.9711 332.143 88.1545C333.577 88.3378 334.91 88.6461 336.143 89.0795C337.377 89.5128 338.402 90.1461 339.218 90.9795C340.035 91.8128 340.443 92.9628 340.443 94.4295C340.443 95.8961 340.085 97.0961 339.368 98.0295C338.652 98.9628 337.76 99.6961 336.693 100.229C335.627 100.763 334.452 101.113 333.168 101.279C331.885 101.446 330.677 101.529 329.543 101.529C328.41 101.529 327.285 101.421 326.168 101.204C325.052 100.988 324.035 100.738 323.118 100.454C322.202 100.171 321.427 99.9045 320.793 99.6545C320.16 99.4045 319.777 99.2795 319.643 99.2795C319.41 99.2795 319.21 99.3795 319.043 99.5795L318.343 99.0795L320.643 93.4795L321.593 93.7295Z"/>
<path d="M353.793 99.7295C353.793 99.9961 353.868 100.188 354.018 100.304C354.168 100.421 354.343 100.479 354.543 100.479L354.543 101.379L348.243 101.379L348.243 100.479C348.443 100.479 348.618 100.421 348.768 100.304C348.918 100.188 348.993 99.9961 348.993 99.7295L348.993 81.0295C348.993 80.7628 348.918 80.5711 348.768 80.4545C348.618 80.3378 348.443 80.2795 348.243 80.2795L348.243 79.3795L354.543 79.3795L354.543 80.2795C354.343 80.2795 354.168 80.3378 354.018 80.4545C353.868 80.5711 353.793 80.7628 353.793 81.0295L353.793 88.0795L367.193 88.0795L367.193 81.0295C367.193 80.7628 367.118 80.5711 366.968 80.4545C366.818 80.3378 366.643 80.2795 366.443 80.2795L366.443 79.3795L372.743 79.3795L372.743 80.2795C372.543 80.2795 372.368 80.3378 372.218 80.4545C372.068 80.5711 371.993 80.7628 371.993 81.0295L371.993 99.7295C371.993 99.9961 372.068 100.188 372.218 100.304C372.368 100.421 372.543 100.479 372.743 100.479L372.743 101.379L366.443 101.379L366.443 100.479C366.643 100.479 366.818 100.421 366.968 100.304C367.118 100.188 367.193 99.9961 367.193 99.7295L367.193 92.1795L353.793 92.1795L353.793 99.7295Z"/>
<path d="M395.543 88.0795C396.343 88.0795 397.093 87.9128 397.793 87.5795C398.493 87.2461 398.843 86.5628 398.843 85.5295C398.843 84.9961 398.743 84.5711 398.543 84.2545C398.343 83.9378 398.093 83.6878 397.793 83.5045C397.493 83.3211 397.143 83.2045 396.743 83.1545C396.343 83.1045 395.943 83.0795 395.543 83.0795L386.643 83.0795L386.643 88.0795L395.543 88.0795ZM395.443 97.6795C396.977 97.6795 398.027 97.4295 398.593 96.9295C399.16 96.4295 399.443 95.7295 399.443 94.8295C399.443 93.7961 399.077 93.0295 398.343 92.5295C397.61 92.0295 396.377 91.7795 394.643 91.7795L386.643 91.7795L386.643 97.6795L395.443 97.6795ZM381.843 81.0295C381.843 80.7628 381.718 80.5711 381.468 80.4545C381.218 80.3378 380.96 80.2795 380.693 80.2795L380.693 79.3795L396.243 79.3795C397.51 79.3795 398.602 79.5295 399.518 79.8295C400.435 80.1295 401.202 80.5378 401.818 81.0545C402.435 81.5711 402.893 82.1628 403.193 82.8295C403.493 83.4961 403.643 84.1961 403.643 84.9295C403.643 85.5295 403.543 86.0878 403.343 86.6045C403.143 87.1211 402.885 87.5878 402.568 88.0045C402.252 88.4211 401.902 88.7961 401.518 89.1295C401.135 89.4628 400.743 89.7295 400.343 89.9295L400.343 89.9795C400.81 90.1795 401.277 90.4461 401.743 90.7795C402.21 91.1128 402.627 91.5128 402.993 91.9795C403.36 92.4461 403.66 92.9795 403.893 93.5795C404.127 94.1795 404.243 94.8295 404.243 95.5295C404.243 96.3295 404.093 97.0795 403.793 97.7795C403.493 98.4795 403.018 99.0961 402.368 99.6295C401.718 100.163 400.868 100.588 399.818 100.904C398.768 101.221 397.51 101.379 396.043 101.379L380.693 101.379L380.693 100.479C380.96 100.479 381.218 100.421 381.468 100.304C381.718 100.188 381.843 99.9961 381.843 99.7295L381.843 81.0295Z"/>
<path d="M422.993 82.7795C421.927 82.7795 420.885 82.9545 419.868 83.3045C418.852 83.6545 417.943 84.1545 417.143 84.8045C416.343 85.4545 415.702 86.2461 415.218 87.1795C414.735 88.1128 414.493 89.1795 414.493 90.3795C414.493 91.5795 414.735 92.6461 415.218 93.5795C415.702 94.5128 416.343 95.3045 417.143 95.9545C417.943 96.6045 418.852 97.1045 419.868 97.4545C420.885 97.8045 421.927 97.9795 422.993 97.9795C424.06 97.9795 425.102 97.8045 426.118 97.4545C427.135 97.1045 428.043 96.6045 428.843 95.9545C429.643 95.3045 430.285 94.5128 430.768 93.5795C431.252 92.6461 431.493 91.5795 431.493 90.3795C431.493 89.1795 431.252 88.1128 430.768 87.1795C430.285 86.2461 429.643 85.4545 428.843 84.8045C428.043 84.1545 427.135 83.6545 426.118 83.3045C425.102 82.9545 424.06 82.7795 422.993 82.7795ZM422.993 79.0795C424.827 79.0795 426.552 79.3128 428.168 79.7795C429.785 80.2461 431.193 80.9461 432.393 81.8795C433.593 82.8128 434.543 83.9878 435.243 85.4045C435.943 86.8211 436.293 88.4795 436.293 90.3795C436.293 92.2795 435.943 93.9378 435.243 95.3545C434.543 96.7711 433.593 97.9461 432.393 98.8795C431.193 99.8128 429.785 100.488 428.168 100.904C426.552 101.321 424.827 101.529 422.993 101.529C421.16 101.529 419.435 101.321 417.818 100.904C416.202 100.488 414.793 99.8128 413.593 98.8795C412.393 97.9461 411.443 96.7711 410.743 95.3545C410.043 93.9378 409.693 92.2795 409.693 90.3795C409.693 88.4795 410.043 86.8211 410.743 85.4045C411.443 83.9878 412.393 82.8128 413.593 81.8795C414.793 80.9461 416.202 80.2461 417.818 79.7795C419.435 79.3128 421.16 79.0795 422.993 79.0795Z"/>
<path d="M455.743 92.1795L451.693 83.7795L448.143 92.1795L455.743 92.1795ZM439.043 100.479C439.443 100.413 439.768 100.221 440.018 99.9045C440.268 99.5878 440.46 99.2961 440.593 99.0295L448.043 82.7795C448.243 82.3128 448.402 81.9378 448.518 81.6545C448.635 81.3711 448.693 81.0961 448.693 80.8295C448.693 80.6295 448.652 80.5045 448.568 80.4545C448.485 80.4045 448.393 80.3461 448.293 80.2795L448.293 79.3795L455.843 79.3795L455.843 80.2795C455.743 80.3461 455.635 80.3961 455.518 80.4295C455.402 80.4628 455.343 80.5961 455.343 80.8295C455.343 81.0295 455.418 81.2711 455.568 81.5545C455.718 81.8378 455.877 82.1628 456.043 82.5295L464.143 99.5295C464.31 99.8295 464.493 100.046 464.693 100.179C464.893 100.313 465.11 100.413 465.343 100.479L465.343 101.379L458.243 101.379L458.243 100.629C458.41 100.629 458.585 100.579 458.768 100.479C458.952 100.379 459.043 100.196 459.043 99.9295C459.043 99.7295 459.01 99.5461 458.943 99.3795C458.877 99.2128 458.793 98.9961 458.693 98.7295L457.343 95.8795L446.643 95.8795L445.243 98.5795C445.11 98.8461 445.002 99.0878 444.918 99.3045C444.835 99.5211 444.793 99.7128 444.793 99.8795C444.793 100.146 444.877 100.313 445.043 100.379C445.21 100.446 445.443 100.479 445.743 100.479L445.743 101.379L439.043 101.379L439.043 100.479Z"/>
<path d="M483.693 88.8795C486.96 88.8795 488.593 87.8461 488.593 85.7795C488.593 84.9461 488.202 84.2878 487.418 83.8045C486.635 83.3211 485.393 83.0795 483.693 83.0795L475.793 83.0795L475.793 88.8795L483.693 88.8795ZM483.793 79.3795C486.76 79.3795 489.077 79.8711 490.743 80.8545C492.41 81.8378 493.243 83.5128 493.243 85.8795C493.243 86.7795 493.077 87.5795 492.743 88.2795C492.41 88.9795 491.968 89.5878 491.418 90.1045C490.868 90.6211 490.26 91.0378 489.593 91.3545C488.927 91.6711 488.243 91.9128 487.543 92.0795L492.443 99.2295C492.71 99.5961 493.002 99.8711 493.318 100.054C493.635 100.238 493.977 100.379 494.343 100.479L494.343 101.379L486.693 101.379L486.693 100.479C487.127 100.479 487.343 100.329 487.343 100.029C487.343 99.6961 487.093 99.1795 486.593 98.4795L482.643 92.5795L475.693 92.5795L475.693 99.7295C475.693 99.9961 475.802 100.188 476.018 100.304C476.235 100.421 476.443 100.479 476.643 100.479L476.643 101.379L469.993 101.379L469.993 100.479C470.593 100.479 470.893 100.229 470.893 99.7295L470.893 81.0295C470.893 80.5295 470.593 80.2795 469.993 80.2795L469.993 79.3795L483.793 79.3795Z"/>
<path d="M512.443 97.6795C513.477 97.6795 514.46 97.6045 515.393 97.4545C516.327 97.3045 517.143 96.9711 517.843 96.4545C518.543 95.9378 519.102 95.1878 519.518 94.2045C519.935 93.2211 520.143 91.8961 520.143 90.2295C520.143 88.5628 519.935 87.2545 519.518 86.3045C519.102 85.3545 518.543 84.6378 517.843 84.1545C517.143 83.6711 516.327 83.3711 515.393 83.2545C514.46 83.1378 513.477 83.0795 512.443 83.0795L505.943 83.0795L505.943 97.6795L512.443 97.6795ZM499.993 100.479C500.76 100.479 501.143 100.229 501.143 99.7295L501.143 81.0295C501.143 80.5295 500.76 80.2795 499.993 80.2795L499.993 79.3795L513.893 79.3795C515.86 79.3795 517.543 79.6961 518.943 80.3295C520.343 80.9628 521.485 81.7878 522.368 82.8045C523.252 83.8211 523.902 84.9878 524.318 86.3045C524.735 87.6211 524.943 88.9795 524.943 90.3795C524.943 91.7795 524.743 93.1378 524.343 94.4545C523.943 95.7711 523.31 96.9378 522.443 97.9545C521.577 98.9711 520.46 99.7961 519.093 100.429C517.727 101.063 516.06 101.379 514.093 101.379L499.993 101.379L499.993 100.479Z"/>
</g>
<path d="M369.476 644.556C345.254 644.556 325.618 663.963 325.618 687.903C325.618 711.842 345.254 731.249 369.476 731.249C393.699 731.249 413.335 711.842 413.335 687.903C413.335 663.963 393.699 644.556 369.476 644.556Z" fill="#c5e4fa" fill-rule="nonzero" opacity="1" stroke="none" vectornator:layerName="path"/>
<path d="M340.832 720.857C344.947 724.724 349.817 727.808 355.207 729.872L408.636 677.066L408.636 667.118C406.978 664.398 405.02 661.879 402.82 659.593L340.832 720.857ZM337.778 717.683L399.237 656.941L389.839 656.941L333.796 712.33C334.985 714.217 336.318 716.005 337.778 717.683ZM333.129 706.797L385.14 655.393L380.441 652.296L330.887 701.272C331.511 703.175 332.256 705.022 333.129 706.797Z" fill="#e3f2ff" fill-rule="nonzero" opacity="1" stroke="none" vectornator:layerName="path"/>
<path d="M396.105 721.961L342.848 721.961L343.775 706.101L356.945 695.643L369.476 694.095L380.963 695.643L393.611 704.539L396.105 721.961Z" fill="#c2cde7" fill-rule="nonzero" opacity="1" stroke="none" vectornator:layerName="path"/>
<path d="M369.476 706.48C374.149 706.48 378.386 703.645 381.511 699.044C382.424 697.699 382.031 695.7 380.709 694.957L380.444 694.809C377.545 699.106 373.718 702.167 369.476 702.167C365.235 702.167 361.41 699.106 358.509 694.809L358.244 694.957C356.922 695.699 356.529 697.699 357.442 699.044C360.567 703.645 364.804 706.48 369.476 706.48Z" fill="#ced8ea" fill-rule="nonzero" opacity="1" stroke="none" vectornator:layerName="path"/>
<path d="M355.974 688.548L355.974 688.548C355.65 688.548 354.607 687.698 354.062 685.689C353.509 683.649 354.005 682.316 354.261 682.248C354.262 682.248 356.247 681.905 356.264 681.515C356.291 680.946 356.353 680.381 356.452 679.831C356.535 679.365 356.468 678.84 356.364 678.044C356.206 676.82 355.968 674.971 356.225 672.426C356.577 668.943 358.642 666.864 361.768 666.864C362.006 666.864 362.238 666.788 362.429 666.646C363.944 665.525 366.973 664.681 369.476 664.681L370.581 664.681C377.28 664.681 382.119 668.065 384.102 674.044C383.34 673.959 383.594 674.488 383.052 675.002C382.631 675.402 381.188 675.724 381.691 677.072C382.372 678.901 382.615 679.981 382.687 681.515C382.706 681.905 384.667 681.216 384.687 681.215C384.954 681.305 385.438 683.666 384.889 685.689C384.344 687.698 383.301 688.548 382.979 688.548C382.527 688.547 382.059 688.866 381.92 689.329C380.06 695.51 375.191 701.767 369.476 701.767C363.762 701.767 358.891 695.51 357.033 689.329C356.894 688.866 356.463 688.548 355.974 688.548Z" fill="#faefde" fill-rule="nonzero" opacity="1" stroke="none" vectornator:layerName="path"/>
<path d="M356.372 678.099C356.372 678.099 361.121 678.099 363.209 672.939C366.342 673.971 367.387 677.068 382.006 676.035C383.455 675.933 383.672 676.434 384.094 676.035C384.636 675.521 383.337 673.959 384.098 674.044C382.117 668.065 377.278 664.681 370.581 664.681L369.476 664.681C366.973 664.681 363.944 665.525 362.432 666.644C362.241 666.787 362.01 666.863 361.771 666.863C358.645 666.863 356.581 668.942 356.228 672.425C355.971 674.968 356.209 676.818 356.367 678.043C356.369 678.063 356.371 678.078 356.372 678.099Z" fill="#cda1a7" fill-rule="nonzero" opacity="1" stroke="none" vectornator:layerName="path"/>
<path d="M369.476 644.556C345.254 644.556 325.618 663.963 325.618 687.903C325.618 711.842 345.254 731.249 369.476 731.249C393.699 731.249 413.335 711.842 413.335 687.903C413.335 663.963 393.699 644.556 369.476 644.556ZM369.476 721.961C350.445 721.961 335.016 706.712 335.016 687.903C335.016 669.093 350.445 653.845 369.476 653.845C378.691 653.845 387.06 657.419 393.244 663.242C393.606 663.582 393.959 663.929 394.305 664.285C394.709 664.7 395.104 665.126 395.488 665.562C400.751 671.542 403.936 679.354 403.936 687.903C403.936 706.712 388.508 721.961 369.476 721.961Z" fill="#f9e3ae" fill-rule="nonzero" opacity="1" stroke="none" vectornator:layerName="path"/>
<path d="M369.476 721.961C350.445 721.961 335.016 706.712 335.016 687.903L332.415 687.903C328.513 687.903 325.584 691.386 326.235 695.188C329.739 715.659 347.767 731.249 369.476 731.249C391.186 731.249 409.214 715.659 412.718 695.188C413.369 691.386 410.44 687.903 406.538 687.903L403.936 687.903C403.936 706.712 388.508 721.961 369.476 721.961Z" fill="#f6d397" fill-rule="nonzero" opacity="1" stroke="none" vectornator:layerName="path"/>
<path d="M371.596 641.948C346.55 641.948 326.171 662.087 326.171 686.843C326.171 711.599 346.55 731.738 371.596 731.738C396.642 731.738 417.02 711.599 417.02 686.843C417.02 662.087 396.642 641.948 371.596 641.948ZM371.596 728.642C348.276 728.642 329.304 709.891 329.304 686.843C329.304 663.795 348.276 645.044 371.596 645.044C394.916 645.044 413.888 663.795 413.888 686.843C413.888 709.891 394.916 728.642 371.596 728.642Z" fill="#8d6c9f" fill-rule="nonzero" opacity="1" stroke="none" vectornator:layerName="path"/>
<path d="M369.476 717.317C368.61 717.317 367.91 718.01 367.91 718.865L367.91 721.961C367.91 722.815 368.61 723.509 369.476 723.509C370.343 723.509 371.043 722.815 371.043 721.961L371.043 718.865C371.043 718.01 370.343 717.317 369.476 717.317ZM378.895 717.436C378.671 716.611 377.814 716.121 376.976 716.341C376.141 716.563 375.645 717.411 375.869 718.238L376.68 721.229C376.867 721.921 377.499 722.377 378.192 722.377C378.326 722.377 378.463 722.36 378.599 722.323C379.434 722.102 379.93 721.253 379.706 720.427L378.895 717.436ZM354.988 713.479C354.237 713.052 353.28 713.305 352.848 714.045L351.281 716.727C350.849 717.467 351.106 718.414 351.855 718.841C352.101 718.982 352.37 719.049 352.636 719.049C353.178 719.049 353.705 718.772 353.994 718.275L355.561 715.594C355.995 714.855 355.738 713.908 354.988 713.479ZM386.105 714.047C385.671 713.305 384.711 713.053 383.965 713.48C383.215 713.908 382.958 714.855 383.392 715.595L384.958 718.276C385.25 718.773 385.774 719.05 386.316 719.05C386.583 719.05 386.852 718.984 387.098 718.843C387.848 718.416 388.105 717.468 387.671 716.728L386.105 714.047ZM361.977 716.341C361.145 716.121 360.282 716.611 360.058 717.436L359.246 720.427C359.022 721.253 359.519 722.102 360.354 722.323C360.49 722.359 360.626 722.377 360.761 722.377C361.452 722.377 362.086 721.921 362.273 721.229L363.084 718.238C363.308 717.411 362.812 716.561 361.977 716.341ZM380.991 657.439C382.108 657.853 383.215 658.331 384.28 658.862C384.507 658.975 384.747 659.028 384.983 659.028C385.555 659.028 386.108 658.716 386.384 658.178C386.774 657.414 386.464 656.483 385.691 656.099C384.526 655.517 383.312 654.992 382.087 654.54C381.279 654.241 380.375 654.646 380.073 655.447C379.767 656.249 380.179 657.139 380.991 657.439Z" fill="#8d6c9f" fill-rule="nonzero" opacity="1" stroke="none" vectornator:layerName="path"/>
<path d="M394.952 662.726C393.921 661.706 392.817 660.74 391.672 659.853C390.987 659.326 390.005 659.444 389.473 660.116C388.939 660.789 389.058 661.762 389.739 662.289C390.785 663.099 391.794 663.983 392.737 664.915C404.215 676.261 405.387 693.957 396.318 706.639C392.765 700.678 387.425 696.358 381.265 694.261C382.106 692.846 382.806 691.344 383.326 689.829C384.661 689.215 385.814 687.641 386.385 685.534C387.237 682.387 386.382 679.712 384.352 679.175C384.316 679.165 384.277 679.156 384.238 679.147C384.109 678.377 383.909 677.614 383.608 676.725C383.744 676.767 383.878 676.815 384 676.865C384.54 677.089 385.159 676.995 385.605 676.625C386.053 676.255 386.257 675.67 386.132 675.106C384.41 667.325 378.569 662.68 370.507 662.68L369.476 662.68C367.235 662.68 363.963 663.325 361.768 664.731C357.782 664.949 354.956 667.842 354.514 672.225C354.245 674.893 354.499 676.871 354.652 678.054C354.698 678.411 354.756 678.859 354.753 678.955C354.74 679.02 354.729 679.083 354.72 679.148C354.679 679.158 354.638 679.167 354.601 679.178C352.571 679.715 351.715 682.39 352.567 685.537C353.139 687.644 354.294 689.219 355.627 689.83C356.147 691.346 356.847 692.847 357.686 694.262C351.527 696.36 346.186 700.679 342.634 706.639C333.564 693.957 334.736 676.261 346.214 664.915C353.651 657.565 364.303 654.154 374.703 655.803C375.554 655.939 376.362 655.363 376.498 654.52C376.636 653.676 376.054 652.88 375.2 652.745C363.814 650.942 352.146 654.674 344.001 662.724C329.955 676.606 329.955 699.196 344.001 713.078C344.306 713.38 344.707 713.531 345.108 713.531C345.509 713.531 345.91 713.38 346.216 713.078C346.828 712.473 346.828 711.494 346.216 710.889C345.691 710.37 345.221 709.819 344.74 709.274C348.038 703.136 353.362 698.761 359.53 696.91C362.155 700.151 365.623 702.456 369.476 702.456C373.33 702.456 376.798 700.151 379.423 696.91C385.591 698.761 390.914 703.136 394.211 709.274C393.73 709.818 393.26 710.369 392.735 710.887C392.123 711.493 392.123 712.471 392.735 713.076C393.041 713.378 393.442 713.53 393.843 713.53C394.244 713.53 394.645 713.378 394.95 713.076C408.996 699.198 408.996 676.608 394.952 662.726ZM369.476 699.363C364.453 699.363 360.003 693.57 358.365 688.121C358.167 687.465 357.646 687.025 356.953 687.025C356.952 687.025 356.952 687.025 356.95 687.025C356.742 686.951 356.004 686.245 355.594 684.735C355.288 683.605 355.365 682.769 355.484 682.347C355.909 682.529 356.4 682.515 356.82 682.303C357.318 682.049 357.644 681.552 357.671 680.998C357.696 680.492 357.752 679.986 357.838 679.492C357.931 678.976 357.86 678.427 357.762 677.662C357.616 676.543 357.4 674.851 357.633 672.533C357.935 669.535 359.622 667.815 362.279 667.815C362.617 667.815 362.948 667.706 363.219 667.505C364.528 666.536 367.277 665.776 369.478 665.776L370.509 665.776C376.238 665.776 380.454 668.539 382.372 673.447C381.799 673.495 381.251 673.682 380.814 674.097C380.396 674.492 379.786 675.396 380.386 677.003C381.002 678.654 381.219 679.625 381.285 680.997C381.312 681.551 381.682 682.025 382.181 682.277C382.573 682.475 383.052 682.484 383.467 682.334C383.586 682.754 383.669 683.593 383.361 684.734C382.95 686.243 382.213 686.951 382.094 687.013C382.092 687.013 382.092 687.013 382.09 687.013C381.398 687.013 380.786 687.463 380.588 688.119C378.95 693.57 374.5 699.363 369.476 699.363Z" fill="#8d6c9f" fill-rule="nonzero" opacity="1" stroke="none" vectornator:layerName="path"/>
<path d="M377.382 673.888L374.747 673.888C371.873 673.888 368.986 673.23 366.402 671.985L364.79 671.21C363.62 670.648 362.199 671.032 361.485 672.106L359.832 674.586C359.356 675.3 359.555 676.259 360.279 676.73C360.543 676.903 360.843 676.986 361.139 676.986C361.648 676.986 362.147 676.741 362.448 676.289L363.842 674.197L365.031 674.77C368.042 676.221 371.401 676.986 374.749 676.986L377.383 676.986C378.25 676.986 378.95 676.292 378.95 675.437C378.95 674.583 378.248 673.888 377.382 673.888Z" fill="#8d6c9f" fill-rule="nonzero" opacity="1" stroke="none" vectornator:layerName="path"/>
<path d="M368.417 843.789C345.89 843.789 327.628 863.425 327.628 887.648C327.628 911.87 345.89 931.506 368.417 931.506C390.944 931.506 409.206 911.87 409.206 887.648C409.206 863.425 390.944 843.789 368.417 843.789Z" fill="#c5e4fa" fill-rule="nonzero" opacity="1" stroke="none" vectornator:layerName="path"/>
<path d="M341.777 920.991C345.604 924.904 350.133 928.024 355.146 930.112L404.835 876.683L404.835 866.618C403.294 863.866 401.473 861.317 399.427 859.004L341.777 920.991ZM338.937 917.78L396.095 856.32L387.354 856.32L335.234 912.363C336.339 914.273 337.579 916.082 338.937 917.78ZM334.613 906.765L382.984 854.754L378.614 851.621L332.528 901.175C333.108 903.1 333.802 904.969 334.613 906.765Z" fill="#e3f2ff" fill-rule="nonzero" opacity="1" stroke="none" vectornator:layerName="path"/>
<path d="M393.181 922.108L343.652 922.108L344.514 906.06L356.763 895.479L368.417 893.913L379.099 895.479L390.862 904.48L393.181 922.108Z" fill="#c2cde7" fill-rule="nonzero" opacity="1" stroke="none" vectornator:layerName="path"/>
<path d="M368.417 906.444C372.762 906.444 376.703 903.576 379.609 898.921C380.458 897.56 380.093 895.537 378.863 894.786L378.617 894.635C375.92 898.983 372.362 902.08 368.417 902.08C364.472 902.08 360.915 898.983 358.217 894.635L357.97 894.786C356.741 895.536 356.375 897.56 357.225 898.921C360.131 903.576 364.071 906.444 368.417 906.444Z" fill="#ced8ea" fill-rule="nonzero" opacity="1" stroke="none" vectornator:layerName="path"/>
<path d="M355.86 888.301L355.86 888.301C355.558 888.301 354.588 887.441 354.081 885.408C353.567 883.343 354.028 881.995 354.266 881.926C354.267 881.926 356.113 881.58 356.129 881.185C356.154 880.608 356.212 880.037 356.304 879.481C356.381 879.009 356.318 878.478 356.222 877.673C356.075 876.434 355.854 874.564 356.093 871.989C356.42 868.464 358.34 866.361 361.248 866.361C361.47 866.361 361.685 866.284 361.863 866.14C363.272 865.006 366.089 864.152 368.417 864.152L369.444 864.152C375.674 864.152 380.174 867.576 382.018 873.626C381.31 873.539 381.546 874.075 381.042 874.595C380.651 874.999 379.309 875.325 379.776 876.689C380.41 878.539 380.636 879.633 380.703 881.185C380.72 881.58 382.544 880.883 382.563 880.881C382.811 880.972 383.261 883.361 382.751 885.408C382.244 887.441 381.274 888.301 380.974 888.301C380.554 888.299 380.119 888.622 379.989 889.09C378.26 895.345 373.731 901.676 368.417 901.676C363.103 901.676 358.572 895.345 356.844 889.09C356.715 888.622 356.314 888.301 355.86 888.301Z" fill="#faefde" fill-rule="nonzero" opacity="1" stroke="none" vectornator:layerName="path"/>
<path d="M356.23 877.728C356.23 877.728 360.646 877.728 362.588 872.507C365.502 873.552 366.473 876.685 380.069 875.64C381.417 875.537 381.619 876.044 382.011 875.64C382.515 875.12 381.308 873.539 382.016 873.626C380.173 867.576 375.673 864.152 369.444 864.152L368.417 864.152C366.089 864.152 363.272 865.006 361.866 866.138C361.688 866.282 361.472 866.359 361.251 866.359C358.343 866.359 356.423 868.463 356.096 871.987C355.857 874.561 356.078 876.432 356.225 877.671C356.227 877.692 356.228 877.707 356.23 877.728Z" fill="#cda1a7" fill-rule="nonzero" opacity="1" stroke="none" vectornator:layerName="path"/>
<path d="M368.417 843.789C345.89 843.789 327.628 863.425 327.628 887.648C327.628 911.87 345.89 931.506 368.417 931.506C390.944 931.506 409.206 911.87 409.206 887.648C409.206 863.425 390.944 843.789 368.417 843.789ZM368.417 922.108C350.717 922.108 336.368 906.679 336.368 887.648C336.368 868.616 350.717 853.188 368.417 853.188C376.987 853.188 384.77 856.804 390.521 862.695C390.858 863.04 391.186 863.391 391.508 863.751C391.884 864.171 392.251 864.602 392.608 865.043C397.502 871.094 400.465 878.998 400.465 887.648C400.465 906.679 386.116 922.108 368.417 922.108Z" fill="#f9e3ae" fill-rule="nonzero" opacity="1" stroke="none" vectornator:layerName="path"/>
<path d="M368.417 922.108C350.717 922.108 336.368 906.679 336.368 887.648L333.949 887.648C330.32 887.648 327.596 891.172 328.202 895.019C331.461 915.731 348.226 931.506 368.417 931.506C388.607 931.506 405.373 915.731 408.632 895.019C409.238 891.172 406.514 887.648 402.885 887.648L400.465 887.648C400.465 906.679 386.116 922.108 368.417 922.108Z" fill="#f6d397" fill-rule="nonzero" opacity="1" stroke="none" vectornator:layerName="path"/>
<path d="M368.417 842.223C345.123 842.223 326.171 862.6 326.171 887.648C326.171 912.695 345.123 933.072 368.417 933.072C391.71 933.072 410.662 912.695 410.662 887.648C410.662 862.6 391.71 842.223 368.417 842.223ZM368.417 929.94C346.729 929.94 329.085 910.968 329.085 887.648C329.085 864.328 346.729 845.356 368.417 845.356C390.105 845.356 407.749 864.328 407.749 887.648C407.749 910.968 390.105 929.94 368.417 929.94Z" fill="#8d6c9f" fill-rule="nonzero" opacity="1" stroke="none" vectornator:layerName="path"/>
<path d="M368.417 917.409C367.611 917.409 366.96 918.11 366.96 918.975L366.96 922.108C366.96 922.972 367.611 923.674 368.417 923.674C369.222 923.674 369.874 922.972 369.874 922.108L369.874 918.975C369.874 918.11 369.222 917.409 368.417 917.409ZM377.176 917.529C376.968 916.694 376.171 916.199 375.392 916.422C374.615 916.646 374.153 917.504 374.362 918.341L375.116 921.367C375.29 922.067 375.878 922.529 376.522 922.529C376.647 922.529 376.774 922.512 376.901 922.474C377.677 922.25 378.139 921.392 377.931 920.555L377.176 917.529ZM354.942 913.526C354.244 913.093 353.354 913.35 352.952 914.099L351.495 916.812C351.093 917.561 351.332 918.519 352.028 918.952C352.257 919.094 352.508 919.161 352.755 919.161C353.259 919.161 353.749 918.881 354.018 918.378L355.475 915.665C355.879 914.918 355.64 913.959 354.942 913.526ZM383.882 914.1C383.478 913.35 382.585 913.095 381.892 913.527C381.194 913.959 380.955 914.918 381.359 915.667L382.815 918.38C383.086 918.883 383.574 919.163 384.078 919.163C384.326 919.163 384.576 919.096 384.805 918.953C385.503 918.521 385.742 917.562 385.338 916.813L383.882 914.1ZM361.442 916.422C360.668 916.199 359.866 916.694 359.657 917.529L358.903 920.555C358.694 921.392 359.156 922.25 359.933 922.474C360.059 922.51 360.186 922.529 360.311 922.529C360.954 922.529 361.544 922.067 361.717 921.367L362.472 918.341C362.68 917.504 362.218 916.644 361.442 916.422ZM379.125 856.825C380.164 857.243 381.194 857.727 382.184 858.264C382.396 858.379 382.619 858.432 382.839 858.432C383.37 858.432 383.885 858.117 384.141 857.572C384.504 856.8 384.215 855.857 383.497 855.468C382.413 854.879 381.284 854.348 380.145 853.891C379.393 853.589 378.553 853.999 378.272 854.809C377.988 855.62 378.371 856.521 379.125 856.825Z" fill="#8d6c9f" fill-rule="nonzero" opacity="1" stroke="none" vectornator:layerName="path"/>
<path d="M392.109 862.174C391.151 861.142 390.124 860.164 389.059 859.267C388.422 858.734 387.509 858.853 387.014 859.533C386.517 860.214 386.628 861.198 387.261 861.732C388.234 862.551 389.173 863.446 390.049 864.389C400.725 875.869 401.814 893.774 393.38 906.605C390.076 900.573 385.11 896.203 379.38 894.081C380.163 892.649 380.814 891.13 381.297 889.596C382.538 888.976 383.611 887.383 384.142 885.251C384.935 882.067 384.139 879.36 382.251 878.816C382.218 878.807 382.182 878.798 382.145 878.788C382.026 878.01 381.839 877.238 381.56 876.338C381.686 876.381 381.81 876.429 381.924 876.479C382.426 876.707 383.002 876.611 383.417 876.237C383.834 875.862 384.023 875.27 383.906 874.7C382.305 866.828 376.873 862.127 369.375 862.127L368.417 862.127C366.332 862.127 363.289 862.78 361.248 864.202C357.541 864.423 354.913 867.351 354.502 871.785C354.251 874.484 354.487 876.486 354.63 877.682C354.672 878.044 354.726 878.497 354.723 878.594C354.712 878.66 354.701 878.724 354.693 878.79C354.655 878.799 354.617 878.809 354.582 878.82C352.694 879.363 351.899 882.07 352.691 885.254C353.223 887.386 354.297 888.979 355.536 889.598C356.02 891.131 356.671 892.651 357.452 894.082C351.724 896.205 346.756 900.575 343.452 906.605C335.018 893.774 336.108 875.869 346.783 864.389C353.699 856.952 363.605 853.501 373.278 855.169C374.069 855.307 374.821 854.724 374.947 853.871C375.076 853.017 374.534 852.212 373.74 852.075C363.151 850.251 352.299 854.027 344.724 862.172C331.662 876.218 331.662 899.074 344.724 913.12C345.008 913.425 345.381 913.579 345.754 913.579C346.127 913.579 346.5 913.425 346.784 913.12C347.354 912.507 347.354 911.518 346.784 910.905C346.296 910.38 345.859 909.823 345.412 909.271C348.478 903.061 353.43 898.634 359.166 896.761C361.608 900.041 364.833 902.373 368.417 902.373C372 902.373 375.226 900.041 377.667 896.761C383.404 898.634 388.354 903.061 391.42 909.271C390.973 909.821 390.536 910.379 390.048 910.904C389.478 911.516 389.478 912.506 390.048 913.118C390.332 913.424 390.705 913.577 391.078 913.577C391.451 913.577 391.824 913.424 392.108 913.118C405.171 899.076 405.171 876.219 392.109 862.174ZM368.417 899.243C363.745 899.243 359.606 893.382 358.083 887.869C357.899 887.204 357.414 886.76 356.77 886.76C356.769 886.76 356.769 886.76 356.767 886.76C356.573 886.684 355.887 885.97 355.506 884.443C355.222 883.299 355.293 882.454 355.404 882.026C355.798 882.211 356.256 882.197 356.646 881.982C357.109 881.725 357.412 881.222 357.437 880.662C357.461 880.149 357.513 879.637 357.593 879.138C357.679 878.616 357.614 878.06 357.522 877.286C357.386 876.154 357.185 874.442 357.402 872.097C357.683 869.063 359.252 867.322 361.723 867.322C362.038 867.322 362.345 867.213 362.597 867.009C363.815 866.029 366.371 865.26 368.418 865.26L369.377 865.26C374.706 865.26 378.626 868.056 380.41 873.021C379.877 873.069 379.367 873.259 378.961 873.679C378.572 874.078 378.005 874.993 378.563 876.619C379.136 878.29 379.338 879.272 379.399 880.66C379.424 881.221 379.768 881.7 380.232 881.955C380.597 882.156 381.042 882.165 381.428 882.013C381.539 882.438 381.616 883.287 381.329 884.441C380.948 885.969 380.262 886.684 380.151 886.747C380.149 886.747 380.149 886.747 380.148 886.747C379.504 886.747 378.934 887.203 378.751 887.867C377.227 893.382 373.089 899.243 368.417 899.243Z" fill="#8d6c9f" fill-rule="nonzero" opacity="1" stroke="none" vectornator:layerName="path"/>
<path d="M375.769 873.467L373.319 873.467C370.646 873.467 367.961 872.802 365.557 871.542L364.058 870.758C362.97 870.189 361.649 870.577 360.984 871.664L359.448 874.174C359.005 874.896 359.19 875.867 359.863 876.343C360.109 876.519 360.387 876.602 360.662 876.602C361.136 876.602 361.601 876.354 361.88 875.897L363.177 873.781L364.283 874.36C367.082 875.828 370.207 876.602 373.32 876.602L375.77 876.602C376.576 876.602 377.227 875.9 377.227 875.035C377.227 874.171 376.575 873.467 375.769 873.467Z" fill="#8d6c9f" fill-rule="nonzero" opacity="1" stroke="none" vectornator:layerName="path"/>
<path d="M444.56 650.278" fill="none" opacity="1" stroke="#c9dbe7" stroke-linecap="butt" stroke-linejoin="miter" stroke-width="21.6789"/>
<path d="M436.083 647.099L855.706 644.98" fill="none" opacity="1" stroke="#c9dbe7" stroke-linecap="butt" stroke-linejoin="miter" stroke-width="21.6789"/>
<path d="M440.322 683.128L859.945 681.008" fill="none" opacity="1" stroke="#c9dbe7" stroke-linecap="butt" stroke-linejoin="miter" stroke-width="21.6789"/>
<path d="M438.202 720.215L857.826 718.096" fill="none" opacity="1" stroke="#c9dbe7" stroke-linecap="butt" stroke-linejoin="miter" stroke-width="21.6789"/>
<path d="M438.202 851.613L857.826 849.493" fill="none" opacity="1" stroke="#c9dbe7" stroke-linecap="butt" stroke-linejoin="miter" stroke-width="21.6789"/>
<path d="M446.68 888.701L553.731 888.912L601.391 889.006L866.303 886.581" fill="none" opacity="1" stroke="#c9dbe7" stroke-linecap="butt" stroke-linejoin="miter" stroke-width="21.6789"/>
<path d="M442.441 927.908L549.493 928.119L597.152 928.213L862.064 925.789" fill="none" opacity="1" stroke="#c9dbe7" stroke-linecap="butt" stroke-linejoin="miter" stroke-width="21.6789"/>
<path d="M837.271 108.755C836.542 107.746 835.458 107.062 834.261 106.831L832.354 89.9176C832.325 80.0726 824.989 71.9356 815.499 70.6016C814.817 69.2726 813.45 68.3886 811.882 68.3886C810.314 68.3886 808.948 69.2726 808.266 70.6016C798.777 71.9346 791.44 80.0726 791.411 89.9176L789.504 106.831C788.308 107.062 787.223 107.746 786.494 108.755C785.575 110.029 785.34 111.636 785.848 113.164C786.491 115.093 788.351 116.39 790.477 116.39L804.343 116.39C804.983 120.029 808.143 122.723 811.883 122.723C815.623 122.723 818.784 120.029 819.423 116.39L833.289 116.39C835.415 116.39 837.275 115.094 837.918 113.164C838.425 111.636 838.19 110.03 837.271 108.755ZM811.883 69.3886C812.811 69.3886 813.646 69.8016 814.213 70.4616C813.734 70.4266 813.256 70.3886 812.769 70.3886L810.998 70.3886C810.51 70.3886 810.032 70.4266 809.554 70.4616C810.12 69.8016 810.954 69.3886 811.883 69.3886ZM811.883 121.723C808.691 121.723 805.977 119.467 805.354 116.39L818.414 116.39C817.79 119.467 815.076 121.723 811.883 121.723ZM836.019 112.532C835.656 113.626 834.533 114.389 833.289 114.389L790.477 114.389C789.233 114.389 788.11 113.625 787.747 112.532C787.444 111.621 787.579 110.671 788.117 109.925C788.65 109.186 789.507 108.745 790.408 108.745C790.708 108.745 790.969 108.602 791.153 108.39L818.32 108.39C818.596 108.39 818.82 108.166 818.82 107.89C818.82 107.614 818.596 107.39 818.32 107.39L791.455 107.39L793.406 90.0876C793.41 90.0496 793.412 90.0126 793.412 89.9756C793.412 80.2786 801.301 72.3896 810.998 72.3896L812.769 72.3896C822.466 72.3896 830.355 80.2786 830.355 89.9756C830.355 90.0136 830.357 90.0506 830.361 90.0876L832.365 107.858C832.423 108.363 832.85 108.746 833.359 108.746C834.26 108.746 835.117 109.187 835.65 109.926C836.187 110.672 836.322 111.622 836.019 112.532Z" fill="#ebecf0" fill-rule="nonzero" opacity="1" stroke="none" vectornator:layerName="path"/>
<path d="M826.32 107.389L823.32 107.389C823.044 107.389 822.82 107.613 822.82 107.889C822.82 108.165 823.044 108.389 823.32 108.389L826.32 108.389C826.596 108.389 826.82 108.165 826.82 107.889C826.82 107.613 826.596 107.389 826.32 107.389ZM821.32 107.389L820.32 107.389C820.044 107.389 819.82 107.613 819.82 107.889C819.82 108.165 820.044 108.389 820.32 108.389L821.32 108.389C821.596 108.389 821.82 108.165 821.82 107.889C821.82 107.613 821.596 107.389 821.32 107.389Z" fill="#ebecf0" fill-rule="nonzero" opacity="1" stroke="none" vectornator:layerName="path"/>
<path d="M846.966 78.4117C846.868 78.6074 846.77 78.803 846.673 78.9987" fill="none" opacity="1" stroke="#77e363" stroke-linecap="round" stroke-linejoin="miter" stroke-width="21.6789"/>
<path d="M889.621 289.688L840.447 289.688C833.66 289.688 828.153 292.933 828.153 296.947C828.153 300.961 833.66 304.205 840.447 304.205L889.621 304.205C896.407 304.205 901.915 300.961 901.915 296.947C901.915 292.933 896.407 289.688 889.621 289.688Z" fill="#ebecf0" fill-rule="nonzero" opacity="1" stroke="none" vectornator:layerName="path"/>
<path d="M914.209 217.103L299.525 217.103C279.191 217.103 262.644 226.873 262.644 238.878L262.644 543.738C262.644 555.744 279.191 565.514 299.525 565.514L914.209 565.514C934.542 565.514 951.09 555.744 951.09 543.738L951.09 238.878C951.09 226.873 934.542 217.103 914.209 217.103ZM926.502 543.738C926.502 547.745 920.982 550.997 914.209 550.997L299.525 550.997C292.751 550.997 287.231 547.745 287.231 543.738L287.231 304.205L791.272 304.205C798.058 304.205 803.566 300.961 803.566 296.947C803.566 292.933 798.058 289.688 791.272 289.688L287.231 289.688L287.231 238.878C287.231 234.872 292.751 231.62 299.525 231.62L914.209 231.62C920.982 231.62 926.502 234.872 926.502 238.878L926.502 543.738Z" fill="#ebecf0" fill-rule="nonzero" opacity="1" stroke="none" vectornator:layerName="path"/>
<path d="M459.343 246.137C452.557 246.137 447.049 249.381 447.049 253.395L447.049 267.913C447.049 271.927 452.557 275.171 459.343 275.171C466.129 275.171 471.636 271.927 471.636 267.913L471.636 253.395C471.636 249.381 466.129 246.137 459.343 246.137ZM397.874 246.137C391.088 246.137 385.581 249.381 385.581 253.395L385.581 267.913C385.581 271.927 391.088 275.171 397.874 275.171C404.661 275.171 410.168 271.927 410.168 267.913L410.168 253.395C410.168 249.381 404.661 246.137 397.874 246.137ZM336.406 246.137C329.62 246.137 324.112 249.381 324.112 253.395L324.112 267.913C324.112 271.927 329.62 275.171 336.406 275.171C343.192 275.171 348.7 271.927 348.7 267.913L348.7 253.395C348.7 249.381 343.192 246.137 336.406 246.137ZM643.748 246.137C636.962 246.137 631.454 249.381 631.454 253.395L631.454 267.913C631.454 271.927 636.962 275.171 643.748 275.171C650.534 275.171 656.041 271.927 656.041 267.913L656.041 253.395C656.041 249.381 650.534 246.137 643.748 246.137ZM705.216 246.137C698.43 246.137 692.923 249.381 692.923 253.395L692.923 267.913C692.923 271.927 698.43 275.171 705.216 275.171C712.002 275.171 717.51 271.927 717.51 267.913L717.51 253.395C717.51 249.381 712.002 246.137 705.216 246.137ZM766.685 246.137C759.898 246.137 754.391 249.381 754.391 253.395L754.391 267.913C754.391 271.927 759.898 275.171 766.685 275.171C773.471 275.171 778.978 271.927 778.978 267.913L778.978 253.395C778.978 249.381 773.471 246.137 766.685 246.137ZM828.153 275.171C834.939 275.171 840.447 271.927 840.447 267.913L840.447 253.395C840.447 249.381 834.939 246.137 828.153 246.137C821.367 246.137 815.859 249.381 815.859 253.395L815.859 267.913C815.859 271.927 821.367 275.171 828.153 275.171ZM889.621 246.137C882.835 246.137 877.328 249.381 877.328 253.395L877.328 267.913C877.328 271.927 882.835 275.171 889.621 275.171C896.407 275.171 901.915 271.927 901.915 267.913L901.915 253.395C901.915 249.381 896.407 246.137 889.621 246.137ZM520.811 246.137C514.025 246.137 508.517 249.381 508.517 253.395L508.517 267.913C508.517 271.927 514.025 275.171 520.811 275.171C527.597 275.171 533.105 271.927 533.105 267.913L533.105 253.395C533.105 249.381 527.597 246.137 520.811 246.137ZM582.279 246.137C575.493 246.137 569.986 249.381 569.986 253.395L569.986 267.913C569.986 271.927 575.493 275.171 582.279 275.171C589.066 275.171 594.573 271.927 594.573 267.913L594.573 253.395C594.573 249.381 589.066 246.137 582.279 246.137ZM815.859 507.446L754.391 507.446L754.391 384.05C754.391 380.036 748.883 376.791 742.097 376.791L680.629 376.791L680.629 340.498C680.629 336.484 675.121 333.24 668.335 333.24L594.573 333.24C587.787 333.24 582.279 336.484 582.279 340.498L582.279 449.377L533.105 449.377L533.105 427.601C533.105 423.587 527.597 420.343 520.811 420.343L447.049 420.343C440.263 420.343 434.755 423.587 434.755 427.601L434.755 507.446L373.287 507.446C366.501 507.446 360.993 510.69 360.993 514.704C360.993 518.718 366.501 521.963 373.287 521.963L447.049 521.963L520.811 521.963L594.573 521.963L668.335 521.963L742.097 521.963L815.859 521.963C822.645 521.963 828.153 518.718 828.153 514.704C828.153 510.69 822.645 507.446 815.859 507.446ZM508.517 456.635L508.517 507.446L459.343 507.446L459.343 434.86L508.517 434.86L508.517 456.635ZM582.279 507.446L533.105 507.446L533.105 463.894L582.279 463.894L582.279 507.446ZM656.041 384.05L656.041 507.446L606.867 507.446L606.867 456.635L606.867 347.757L656.041 347.757L656.041 384.05ZM729.804 507.446L680.629 507.446L680.629 391.308L729.804 391.308L729.804 507.446Z" fill="#ebecf0" fill-rule="nonzero" opacity="1" stroke="none" vectornator:layerName="path"/>
</g>
</svg>
