<?xml version="1.0" encoding="UTF-8" standalone="no"?>
<!DOCTYPE svg PUBLIC "-//W3C//DTD SVG 1.1//EN" "http://www.w3.org/Graphics/SVG/1.1/DTD/svg11.dtd">
<!-- Created with Vectornator (http://vectornator.io/) -->
<svg height="100%" stroke-miterlimit="10" style="fill-rule:nonzero;clip-rule:evenodd;stroke-linecap:round;stroke-linejoin:round;" version="1.1" viewBox="0 0 1024 1024" width="100%" xml:space="preserve" xmlns="http://www.w3.org/2000/svg" xmlns:vectornator="http://vectornator.io" xmlns:xlink="http://www.w3.org/1999/xlink">
<defs/>
<clipPath id="ArtboardFrame">
<rect height="1024" width="1024" x="0" y="0"/>
</clipPath>
<g clip-path="url(#ArtboardFrame)" id="Layer-1" vectornator:layerName="Layer 1">
<path d="M-7.37116 0L-7.37116 1027.1L1020.89 1027.1L1020.89 0L-7.37116 0Z" fill="#e5dbd5" fill-rule="nonzero" opacity="1" stroke="#afaba9" stroke-linecap="round" stroke-linejoin="miter" stroke-width="12.8805"/>
<path d="M182.132 300.054L887.38 300.054C899.438 300.054 909.213 309.829 909.213 321.887L909.213 321.887C909.213 333.944 899.438 343.719 887.38 343.719L182.132 343.719C170.074 343.719 160.299 333.944 160.299 321.887L160.299 321.887C160.299 309.829 170.074 300.054 182.132 300.054Z" fill="#f3f3f3" fill-rule="nonzero" opacity="1" stroke="#f3f3f3" stroke-linecap="round" stroke-linejoin="miter" stroke-width="21.6789"/>
<path d="M766.839 404.322L883.278 404.322C890.951 404.322 897.171 410.543 897.171 418.216L897.171 418.216C897.171 425.889 890.951 432.109 883.278 432.109L766.839 432.109C759.166 432.109 752.946 425.889 752.946 418.216L752.946 418.216C752.946 410.543 759.166 404.322 766.839 404.322Z" fill="#f3f3f3" fill-rule="nonzero" opacity="1" stroke="#f3f3f3" stroke-linecap="round" stroke-linejoin="miter" stroke-width="21.6789"/>
<path d="M839.038 411.134L868.286 428.075L894.038 410.075" fill="none" opacity="1" stroke="#e0ddda" stroke-linecap="butt" stroke-linejoin="miter" stroke-width="8.94388"/>
<path d="M181.038 401.075L693.038 401.075C701.322 401.075 708.038 407.791 708.038 416.075L708.038 416.075C708.038 424.359 701.322 431.075 693.038 431.075L181.038 431.075C172.753 431.075 166.038 424.359 166.038 416.075L166.038 416.075C166.038 407.791 172.753 401.075 181.038 401.075Z" fill="#f3f3f3" fill-rule="nonzero" opacity="1" stroke="#f3f3f3" stroke-linecap="round" stroke-linejoin="miter" stroke-width="21.6789"/>
<path d="M187.038 487.075L646.038 487.075C654.874 487.075 662.038 494.238 662.038 503.075L662.038 503.075C662.038 511.911 654.874 519.075 646.038 519.075L187.038 519.075C178.201 519.075 171.038 511.911 171.038 503.075L171.038 503.075C171.038 494.238 178.201 487.075 187.038 487.075Z" fill="#f3f3f3" fill-rule="nonzero" opacity="1" stroke="#f3f3f3" stroke-linecap="round" stroke-linejoin="miter" stroke-width="21.6789"/>
<path d="M199.538 580.075L644.538 580.075C654.755 580.075 663.038 588.358 663.038 598.575L663.038 598.575C663.038 608.792 654.755 617.075 644.538 617.075L199.538 617.075C189.32 617.075 181.038 608.792 181.038 598.575L181.038 598.575C181.038 588.358 189.32 580.075 199.538 580.075Z" fill="#f3f3f3" fill-rule="nonzero" opacity="1" stroke="#f3f3f3" stroke-linecap="round" stroke-linejoin="miter" stroke-width="21.6789"/>
<path d="M199.038 670.075L721.038 670.075C732.083 670.075 741.038 679.029 741.038 690.075L741.038 690.075C741.038 701.121 732.083 710.075 721.038 710.075L199.038 710.075C187.992 710.075 179.038 701.121 179.038 690.075L179.038 690.075C179.038 679.029 187.992 670.075 199.038 670.075Z" fill="#f3f3f3" fill-rule="nonzero" opacity="1" stroke="#f3f3f3" stroke-linecap="round" stroke-linejoin="miter" stroke-width="21.6789"/>
<path d="M211.538 796.075L354.538 796.075C362.546 796.075 369.038 802.567 369.038 810.575L369.038 810.575C369.038 818.583 362.546 825.075 354.538 825.075L211.538 825.075C203.53 825.075 197.038 818.583 197.038 810.575L197.038 810.575C197.038 802.567 203.53 796.075 211.538 796.075Z" fill="#87b8d8" fill-rule="nonzero" opacity="1" stroke="#87b8d8" stroke-linecap="round" stroke-linejoin="miter" stroke-width="21.6789"/>
<path d="M447.538 794.075L590.538 794.075C598.546 794.075 605.038 800.567 605.038 808.575L605.038 808.575C605.038 816.583 598.546 823.075 590.538 823.075L447.538 823.075C439.53 823.075 433.038 816.583 433.038 808.575L433.038 808.575C433.038 800.567 439.53 794.075 447.538 794.075Z" fill="#87b8d8" fill-rule="nonzero" opacity="1" stroke="#87b8d8" stroke-linecap="round" stroke-linejoin="miter" stroke-width="21.6789"/>
</g>
<g clip-path="url(#ArtboardFrame)" id="Layer-2" vectornator:layerName="Layer 2">
<g opacity="1">
<path d="M-1014.69 489.281C-1015.33 501.523-1015.92 513.843-1014.59 526.062C-1014.22 529.529-1013.6 532.949-1012.81 536.344C-1011.93 540.138-1010.87 543.897-1010.44 547.781C-1010.28 549.163-1010.24 550.551-1010.16 551.938C-1010.05 553.66-1009.83 555.366-1009.78 557.094C-1009.73 558.836-1009.79 560.571-1009.75 562.312C-1009.61 568.524-1009.39 574.735-1009.03 580.938C-1008.82 583.667-1006.42 585.714-1003.69 585.5C-1000.96 585.286-998.943 582.917-999.156 580.188C-999.945 572.217-1000.44 564.22-1001.75 556.312C-1002.05 554.515-1002.23 552.724-1002.59 550.938C-1003.15 548.24-1003.83 545.578-1004.72 542.969C-1006.55 537.619-1008.9 532.475-1010.25 526.969C-1013.28 514.64-1014 501.911-1014.69 489.281Z" fill="#afaba9" stroke="none"/>
</g>
<g fill="#9b948e" opacity="1" stroke="none">
<path d="M142.566 118.136L142.566 125.336L151.016 125.336L151.016 132.186L142.616 132.186L142.616 146.286L134.516 146.286L134.516 110.886L151.766 110.886L151.766 118.136L142.566 118.136Z"/>
<path d="M175.016 133.236C175.016 135.27 174.766 137.145 174.266 138.861C173.766 140.578 173.058 142.053 172.141 143.286C171.225 144.52 170.091 145.486 168.741 146.186C167.391 146.886 165.866 147.236 164.166 147.236C162.466 147.236 160.95 146.886 159.616 146.186C158.283 145.486 157.141 144.52 156.191 143.286C155.241 142.053 154.516 140.578 154.016 138.861C153.516 137.145 153.266 135.27 153.266 133.236C153.266 131.203 153.516 129.32 154.016 127.586C154.516 125.853 155.233 124.37 156.166 123.136C157.1 121.903 158.241 120.936 159.591 120.236C160.941 119.536 162.466 119.186 164.166 119.186C165.866 119.186 167.391 119.536 168.741 120.236C170.091 120.936 171.225 121.903 172.141 123.136C173.058 124.37 173.766 125.853 174.266 127.586C174.766 129.32 175.016 131.203 175.016 133.236ZM167.516 133.186C167.516 132.186 167.45 131.261 167.316 130.411C167.183 129.561 166.983 128.811 166.716 128.161C166.45 127.511 166.108 127.003 165.691 126.636C165.275 126.27 164.766 126.086 164.166 126.086C163.6 126.086 163.108 126.27 162.691 126.636C162.275 127.003 161.933 127.511 161.666 128.161C161.4 128.811 161.2 129.561 161.066 130.411C160.933 131.261 160.866 132.186 160.866 133.186C160.866 134.186 160.933 135.111 161.066 135.961C161.2 136.811 161.4 137.561 161.666 138.211C161.933 138.861 162.275 139.37 162.691 139.736C163.108 140.103 163.6 140.286 164.166 140.286C164.766 140.286 165.275 140.103 165.691 139.736C166.108 139.37 166.45 138.861 166.716 138.211C166.983 137.561 167.183 136.811 167.316 135.961C167.45 135.111 167.516 134.186 167.516 133.186Z"/>
<path d="M179.616 120.136L187.266 120.136L187.266 124.536L187.316 124.536C188.25 121.07 190 119.336 192.566 119.336C192.833 119.336 193.05 119.345 193.216 119.361C193.383 119.378 193.583 119.42 193.816 119.486L193.316 127.336C193.05 127.27 192.791 127.211 192.541 127.161C192.291 127.111 191.983 127.086 191.616 127.086C190.95 127.086 190.366 127.261 189.866 127.611C189.366 127.961 188.941 128.42 188.591 128.986C188.241 129.553 187.975 130.22 187.791 130.986C187.608 131.753 187.516 132.536 187.516 133.336L187.516 146.286L179.616 146.286L179.616 120.136Z"/>
<path d="M204.466 120.136L204.466 123.836L204.566 123.836C204.9 122.57 205.6 121.478 206.666 120.561C207.733 119.645 209.1 119.186 210.766 119.186C212.633 119.186 214.025 119.636 214.941 120.536C215.858 121.436 216.5 122.536 216.866 123.836L216.966 123.836C217.2 123.236 217.508 122.661 217.891 122.111C218.275 121.561 218.741 121.07 219.291 120.636C219.841 120.203 220.475 119.853 221.191 119.586C221.908 119.32 222.716 119.186 223.616 119.186C225.116 119.186 226.333 119.495 227.266 120.111C228.2 120.728 228.916 121.553 229.416 122.586C229.916 123.62 230.258 124.803 230.441 126.136C230.625 127.47 230.716 128.853 230.716 130.286L230.716 146.286L222.966 146.286L222.966 130.236C222.966 129.136 222.8 128.17 222.466 127.336C222.133 126.503 221.5 126.086 220.566 126.086C219.6 126.086 218.858 126.528 218.341 127.411C217.825 128.295 217.566 129.453 217.566 130.886L217.566 146.286L209.866 146.286L209.866 130.236C209.866 129.136 209.708 128.17 209.391 127.336C209.075 126.503 208.45 126.086 207.516 126.086C206.55 126.086 205.808 126.528 205.291 127.411C204.775 128.295 204.516 129.453 204.516 130.886L204.516 146.286L196.816 146.286L196.816 120.136L204.466 120.136Z"/>
</g>
</g>
<g clip-path="url(#ArtboardFrame)" id="Layer-3" vectornator:layerName="Layer 3">
<path d="M2346.17-10.2287C2346.17-20.0941 2355.06-28.0915 2366.02-28.0915C2376.98-28.0915 2385.87-20.0941 2385.87-10.2287C2385.87-0.363392 2376.98 7.63404 2366.02 7.63404C2355.06 7.63404 2346.17-0.363392 2346.17-10.2287Z" fill="#f3f3f3" fill-rule="nonzero" opacity="1" stroke="#afaba9" stroke-linecap="round" stroke-linejoin="miter" stroke-width="10.8934"/>
<path d="M166.254 212.725L446.765 212.725C456.631 212.725 464.628 220.723 464.628 230.588L464.628 230.588C464.628 240.453 456.631 248.451 446.765 248.451L166.254 248.451C156.388 248.451 148.391 240.453 148.391 230.588L148.391 230.588C148.391 220.723 156.388 212.725 166.254 212.725Z" fill="#f3f3f3" fill-rule="nonzero" opacity="1" stroke="#f3f3f3" stroke-linecap="round" stroke-linejoin="miter" stroke-width="10.8934"/>
<path d="M578.421 211.402L888.042 211.402C898.273 211.402 906.566 219.696 906.566 229.926L906.566 229.926C906.566 240.157 898.273 248.451 888.042 248.451L578.421 248.451C568.19 248.451 559.896 240.157 559.896 229.926L559.896 229.926C559.896 219.696 568.19 211.402 578.421 211.402Z" fill="#f3f3f3" fill-rule="nonzero" opacity="1" stroke="#f3f3f3" stroke-linecap="round" stroke-linejoin="miter" stroke-width="10.8934"/>
</g>
</svg>
