<?xml version="1.0" encoding="UTF-8" standalone="no"?>
<!DOCTYPE svg PUBLIC "-//W3C//DTD SVG 1.1//EN" "http://www.w3.org/Graphics/SVG/1.1/DTD/svg11.dtd">
<!-- Created with Vectornator (http://vectornator.io/) -->
<svg class= "game" height="100%" stroke-miterlimit="10" style="fill-rule:nonzero;clip-rule:evenodd;stroke-linecap:round;stroke-linejoin:round;" version="1.1" viewBox="0 0 3370.82 2384.24" width="100%" xml:space="preserve" xmlns="http://www.w3.org/2000/svg" xmlns:vectornator="http://vectornator.io" xmlns:xlink="http://www.w3.org/1999/xlink">
<defs/>
<g id="Layer-1" vectornator:layerName="Layer 1">
<path d="M1260.97 825.671L2045.68 825.671L2045.68 1543.76L1260.97 1543.76L1260.97 825.671Z" fill="#63fdff" fill-rule="nonzero" opacity="1" stroke="#43e8fe" stroke-linecap="butt" stroke-linejoin="miter" stroke-width="21.6789"/>
<path d="M1390.52 1234.07L1908.73 1234.07L1908.73 1472.2L1390.52 1472.2L1390.52 1234.07Z" fill="#63fdff" fill-rule="nonzero" opacity="1" stroke="#43e8fe" stroke-linecap="butt" stroke-linejoin="miter" stroke-width="21.6789"/>
<path d="M1664.09 937.645L1721.64 937.645L1721.64 989.187L1664.09 989.187L1664.09 937.645Z" fill="#63fdff" fill-rule="nonzero" opacity="1" stroke="#43e8fe" stroke-linecap="butt" stroke-linejoin="miter" stroke-width="21.6789"/>
<path d="M1574.55 937.743L1632.11 937.743L1632.11 989.285L1574.55 989.285L1574.55 937.743Z" fill="#63fdff" fill-rule="nonzero" opacity="1" stroke="#43e8fe" stroke-linecap="butt" stroke-linejoin="miter" stroke-width="21.6789"/>
<path d="M1482.97 936.85L1540.53 936.85L1540.53 989.285L1482.97 989.285L1482.97 936.85Z" fill="#63fdff" fill-rule="nonzero" opacity="1" stroke="#43e8fe" stroke-linecap="butt" stroke-linejoin="miter" stroke-width="21.6789"/>
<path d="M1756.08 937.743L1810.11 937.743L1810.11 989.285L1756.08 989.285L1756.08 937.743Z" fill="#63fdff" fill-rule="nonzero" opacity="1" stroke="#43e8fe" stroke-linecap="butt" stroke-linejoin="miter" stroke-width="21.6789"/>
<path d="M1841.84 937.743L1895.87 937.743L1895.87 989.285L1841.84 989.285L1841.84 937.743Z" fill="#63fdff" fill-rule="nonzero" opacity="1" stroke="#43e8fe" stroke-linecap="butt" stroke-linejoin="miter" stroke-width="21.6789"/>
<path d="M1492.52 1028.79L1549.38 1028.79L1549.38 1080.88L1492.52 1080.88L1492.52 1028.79Z" fill="#63fdff" fill-rule="nonzero" opacity="1" stroke="#43e8fe" stroke-linecap="butt" stroke-linejoin="miter" stroke-width="21.6789"/>
<path d="M1576.68 1029.36L1633.54 1029.36L1633.54 1081.45L1576.68 1081.45L1576.68 1029.36Z" fill="#63fdff" fill-rule="nonzero" opacity="1" stroke="#43e8fe" stroke-linecap="butt" stroke-linejoin="miter" stroke-width="21.6789"/>
<path d="M1661.47 1029.36L1718.33 1029.36L1718.33 1081.45L1661.47 1081.45L1661.47 1029.36Z" fill="#63fdff" fill-rule="nonzero" opacity="1" stroke="#43e8fe" stroke-linecap="butt" stroke-linejoin="miter" stroke-width="21.6789"/>
<path d="M1744.39 1029.93L1801.25 1029.93L1801.25 1082.02L1744.39 1082.02L1744.39 1029.93Z" fill="#63fdff" fill-rule="nonzero" opacity="1" stroke="#43e8fe" stroke-linecap="butt" stroke-linejoin="miter" stroke-width="21.6789"/>
<path d="M1393.44 937.413L1451 937.413L1451 988.954L1393.44 988.954L1393.44 937.413Z" fill="#63fdff" fill-rule="nonzero" opacity="1" stroke="#43e8fe" stroke-linecap="butt" stroke-linejoin="miter" stroke-width="21.6789"/>
<path d="M1441.1 1261.72L1478.97 1261.72L1478.97 1302.52L1441.1 1302.52L1441.1 1261.72Z" fill="#63fdff" fill-rule="nonzero" opacity="1" stroke="#43e8fe" stroke-linecap="butt" stroke-linejoin="miter" stroke-width="21.6789"/>
<path d="M1518.69 1261.72L1558.01 1261.72L1558.01 1302.52L1518.69 1302.52L1518.69 1261.72Z" fill="#63fdff" fill-rule="nonzero" opacity="1" stroke="#43e8fe" stroke-linecap="butt" stroke-linejoin="miter" stroke-width="21.6789"/>
<path d="M1595.77 1262.22L1631.72 1262.22L1631.72 1302.53L1595.77 1302.53L1595.77 1262.22Z" fill="#63fdff" fill-rule="nonzero" opacity="1" stroke="#43e8fe" stroke-linecap="butt" stroke-linejoin="miter" stroke-width="21.6789"/>
<path d="M1672.84 1262.22L1711.19 1262.22L1711.19 1303.49L1672.84 1303.49L1672.84 1262.22Z" fill="#63fdff" fill-rule="nonzero" opacity="1" stroke="#43e8fe" stroke-linecap="butt" stroke-linejoin="miter" stroke-width="21.6789"/>
<path d="M1747.3 1261.23L1783.74 1261.23L1783.74 1303.94L1747.3 1303.94L1747.3 1261.23Z" fill="#63fdff" fill-rule="nonzero" opacity="1" stroke="#43e8fe" stroke-linecap="butt" stroke-linejoin="miter" stroke-width="21.6789"/>
<path d="M1822.81 1260.24L1858.76 1260.24L1858.76 1302.47L1822.81 1302.47L1822.81 1260.24Z" fill="#63fdff" fill-rule="nonzero" opacity="1" stroke="#43e8fe" stroke-linecap="butt" stroke-linejoin="miter" stroke-width="21.6789"/>
<path d="M1442.14 1334.46L1481.94 1334.46L1481.94 1372.85L1442.14 1372.85L1442.14 1334.46Z" fill="#63fdff" fill-rule="nonzero" opacity="1" stroke="#43e8fe" stroke-linecap="butt" stroke-linejoin="miter" stroke-width="21.6789"/>
<path d="M1519.74 1334.95L1559.53 1334.95L1559.53 1374.31L1519.74 1374.31L1519.74 1334.95Z" fill="#63fdff" fill-rule="nonzero" opacity="1" stroke="#43e8fe" stroke-linecap="butt" stroke-linejoin="miter" stroke-width="21.6789"/>
<path d="M1595.77 1335.84L1633.64 1335.84L1633.64 1375.19L1595.77 1375.19L1595.77 1335.84Z" fill="#63fdff" fill-rule="nonzero" opacity="1" stroke="#43e8fe" stroke-linecap="butt" stroke-linejoin="miter" stroke-width="21.6789"/>
<path d="M1674.92 1335.82L1708.47 1335.82L1708.47 1374.7L1674.92 1374.7L1674.92 1335.82Z" fill="#63fdff" fill-rule="nonzero" opacity="1" stroke="#43e8fe" stroke-linecap="butt" stroke-linejoin="miter" stroke-width="21.6789"/>
<path d="M1749.03 1335.85L1785.94 1335.85L1785.94 1372.33L1749.03 1372.33L1749.03 1335.85Z" fill="#63fdff" fill-rule="nonzero" opacity="1" stroke="#43e8fe" stroke-linecap="butt" stroke-linejoin="miter" stroke-width="21.6789"/>
<path d="M1823.46 1332.97L1857.49 1332.97L1857.49 1370.89L1823.46 1370.89L1823.46 1332.97Z" fill="#63fdff" fill-rule="nonzero" opacity="1" stroke="#43e8fe" stroke-linecap="butt" stroke-linejoin="miter" stroke-width="21.6789"/>
<path d="M1444.23 1407.06L1484.5 1407.06L1484.5 1447.38L1444.23 1447.38L1444.23 1407.06Z" fill="#63fdff" fill-rule="nonzero" opacity="1" stroke="#43e8fe" stroke-linecap="butt" stroke-linejoin="miter" stroke-width="21.6789"/>
<path d="M1823.14 1405.55L1861.49 1405.55L1861.49 1445.86L1823.14 1445.86L1823.14 1405.55Z" fill="#63fdff" fill-rule="nonzero" opacity="1" stroke="#43e8fe" stroke-linecap="butt" stroke-linejoin="miter" stroke-width="21.6789"/>
<path d="M1521.82 1405.98L1785.75 1405.98L1785.75 1446.96L1521.82 1446.96L1521.82 1405.98Z" fill="#63fdff" fill-rule="nonzero" opacity="1" stroke="#43e8fe" stroke-linecap="butt" stroke-linejoin="miter" stroke-width="21.6789"/>
</g>
</svg>
