<?xml version="1.0" encoding="UTF-8" standalone="no"?>
<!DOCTYPE svg PUBLIC "-//W3C//DTD SVG 1.1//EN" "http://www.w3.org/Graphics/SVG/1.1/DTD/svg11.dtd">
<!-- Created with Vectornator (http://vectornator.io/) -->
<svg height="100%" stroke-miterlimit="10" style="fill-rule:nonzero;clip-rule:evenodd;stroke-linecap:round;stroke-linejoin:round;" version="1.1" viewBox="0 0 1024 1024" width="100%" xml:space="preserve" xmlns="http://www.w3.org/2000/svg" xmlns:vectornator="http://vectornator.io" xmlns:xlink="http://www.w3.org/1999/xlink">
<defs/>
<clipPath id="ArtboardFrame">
<rect height="1024" width="1024" x="0" y="0"/>
</clipPath>
<g clip-path="url(#ArtboardFrame)" id="Layer-1" vectornator:layerName="Layer 1">
<path d="M8.41573 10.0312L1015.57 10.0312L1015.57 1015.34L8.41573 1015.34L8.41573 10.0312Z" fill="#58888f" fill-rule="nonzero" opacity="1" stroke="#d9d7b7" stroke-linecap="butt" stroke-linejoin="miter" stroke-width="21.6789"/>
<g opacity="1">
<path d="M168.755 576.862L833.855 576.862L833.855 910.237L168.755 910.237L168.755 576.862Z" fill="#58888f" fill-rule="nonzero" opacity="1" stroke="#d9d7b7" stroke-linecap="butt" stroke-linejoin="miter" stroke-width="21.6789"/>
<g opacity="1">
<path d="M526.72 202.875L600.589 202.875L600.589 275.032L526.72 275.032L526.72 202.875Z" fill="#58888f" fill-rule="nonzero" opacity="1" stroke="#d9d7b7" stroke-linecap="butt" stroke-linejoin="miter" stroke-width="21.6789"/>
<path d="M411.807 203.012L485.676 203.012L485.676 275.169L411.807 275.169L411.807 203.012Z" fill="#58888f" fill-rule="nonzero" opacity="1" stroke="#d9d7b7" stroke-linecap="butt" stroke-linejoin="miter" stroke-width="21.6789"/>
<path d="M294.267 201.763L368.136 201.763L368.136 275.169L294.267 275.169L294.267 201.763Z" fill="#58888f" fill-rule="nonzero" opacity="1" stroke="#d9d7b7" stroke-linecap="butt" stroke-linejoin="miter" stroke-width="21.6789"/>
<path d="M644.787 203.012L714.128 203.012L714.128 275.169L644.787 275.169L644.787 203.012Z" fill="#58888f" fill-rule="nonzero" opacity="1" stroke="#d9d7b7" stroke-linecap="butt" stroke-linejoin="miter" stroke-width="21.6789"/>
<path d="M754.861 203.012L824.202 203.012L824.202 275.169L754.861 275.169L754.861 203.012Z" fill="#58888f" fill-rule="nonzero" opacity="1" stroke="#d9d7b7" stroke-linecap="butt" stroke-linejoin="miter" stroke-width="21.6789"/>
<path d="M306.519 330.474L379.497 330.474L379.497 403.401L306.519 403.401L306.519 330.474Z" fill="#58888f" fill-rule="nonzero" opacity="1" stroke="#d9d7b7" stroke-linecap="butt" stroke-linejoin="miter" stroke-width="21.6789"/>
<path d="M414.54 331.269L487.519 331.269L487.519 404.197L414.54 404.197L414.54 331.269Z" fill="#58888f" fill-rule="nonzero" opacity="1" stroke="#d9d7b7" stroke-linecap="butt" stroke-linejoin="miter" stroke-width="21.6789"/>
<path d="M523.355 331.269L596.334 331.269L596.334 404.197L523.355 404.197L523.355 331.269Z" fill="#58888f" fill-rule="nonzero" opacity="1" stroke="#d9d7b7" stroke-linecap="butt" stroke-linejoin="miter" stroke-width="21.6789"/>
<path d="M629.788 332.065L702.767 332.065L702.767 404.993L629.788 404.993L629.788 332.065Z" fill="#58888f" fill-rule="nonzero" opacity="1" stroke="#d9d7b7" stroke-linecap="butt" stroke-linejoin="miter" stroke-width="21.6789"/>
<path d="M179.355 202.55L253.224 202.55L253.224 274.707L179.355 274.707L179.355 202.55Z" fill="#58888f" fill-rule="nonzero" opacity="1" stroke="#d9d7b7" stroke-linecap="butt" stroke-linejoin="miter" stroke-width="21.6789"/>
</g>
<g opacity="1">
<path d="M231.915 615.647L280.521 615.647L280.521 672.761L231.915 672.761L231.915 615.647Z" fill="#58888f" fill-rule="nonzero" opacity="1" stroke="#d9d7b7" stroke-linecap="butt" stroke-linejoin="miter" stroke-width="21.6789"/>
<path d="M331.502 615.647L381.956 615.647L381.956 672.761L331.502 672.761L331.502 615.647Z" fill="#58888f" fill-rule="nonzero" opacity="1" stroke="#d9d7b7" stroke-linecap="butt" stroke-linejoin="miter" stroke-width="21.6789"/>
<path d="M430.42 616.34L476.562 616.34L476.562 672.782L430.42 672.782L430.42 616.34Z" fill="#58888f" fill-rule="nonzero" opacity="1" stroke="#d9d7b7" stroke-linecap="butt" stroke-linejoin="miter" stroke-width="21.6789"/>
<path d="M529.338 616.34L578.56 616.34L578.56 674.126L529.338 674.126L529.338 616.34Z" fill="#58888f" fill-rule="nonzero" opacity="1" stroke="#d9d7b7" stroke-linecap="butt" stroke-linejoin="miter" stroke-width="21.6789"/>
<path d="M624.914 614.954L671.672 614.954L671.672 674.756L624.914 674.756L624.914 614.954Z" fill="#58888f" fill-rule="nonzero" opacity="1" stroke="#d9d7b7" stroke-linecap="butt" stroke-linejoin="miter" stroke-width="21.6789"/>
<path d="M721.827 613.569L767.969 613.569L767.969 672.699L721.827 672.699L721.827 613.569Z" fill="#58888f" fill-rule="nonzero" opacity="1" stroke="#d9d7b7" stroke-linecap="butt" stroke-linejoin="miter" stroke-width="21.6789"/>
<path d="M233.252 717.475L284.322 717.475L284.322 771.229L233.252 771.229L233.252 717.475Z" fill="#58888f" fill-rule="nonzero" opacity="1" stroke="#d9d7b7" stroke-linecap="butt" stroke-linejoin="miter" stroke-width="21.6789"/>
<path d="M332.838 718.168L383.908 718.168L383.908 773.266L332.838 773.266L332.838 718.168Z" fill="#58888f" fill-rule="nonzero" opacity="1" stroke="#d9d7b7" stroke-linecap="butt" stroke-linejoin="miter" stroke-width="21.6789"/>
<path d="M430.42 719.408L479.026 719.408L479.026 774.506L430.42 774.506L430.42 719.408Z" fill="#58888f" fill-rule="nonzero" opacity="1" stroke="#d9d7b7" stroke-linecap="butt" stroke-linejoin="miter" stroke-width="21.6789"/>
<path d="M532.012 719.387L575.073 719.387L575.073 773.813L532.012 773.813L532.012 719.387Z" fill="#58888f" fill-rule="nonzero" opacity="1" stroke="#d9d7b7" stroke-linecap="butt" stroke-linejoin="miter" stroke-width="21.6789"/>
<path d="M627.129 719.429L674.503 719.429L674.503 770.495L627.129 770.495L627.129 719.429Z" fill="#58888f" fill-rule="nonzero" opacity="1" stroke="#d9d7b7" stroke-linecap="butt" stroke-linejoin="miter" stroke-width="21.6789"/>
<path d="M722.653 715.397L766.331 715.397L766.331 768.479L722.653 768.479L722.653 715.397Z" fill="#58888f" fill-rule="nonzero" opacity="1" stroke="#d9d7b7" stroke-linecap="butt" stroke-linejoin="miter" stroke-width="21.6789"/>
<path d="M235.925 819.116L287.611 819.116L287.611 875.558L235.925 875.558L235.925 819.116Z" fill="#58888f" fill-rule="nonzero" opacity="1" stroke="#d9d7b7" stroke-linecap="butt" stroke-linejoin="miter" stroke-width="21.6789"/>
<path d="M722.246 816.997L771.468 816.997L771.468 873.439L722.246 873.439L722.246 816.997Z" fill="#58888f" fill-rule="nonzero" opacity="1" stroke="#d9d7b7" stroke-linecap="butt" stroke-linejoin="miter" stroke-width="21.6789"/>
<path d="M335.512 817.606L674.253 817.606L674.253 874.97L335.512 874.97L335.512 817.606Z" fill="#58888f" fill-rule="nonzero" opacity="1" stroke="#d9d7b7" stroke-linecap="butt" stroke-linejoin="miter" stroke-width="21.6789"/>
</g>
</g>
</g>
</svg>
