<?xml version="1.0" encoding="UTF-8" standalone="no"?>
<!DOCTYPE svg PUBLIC "-//W3C//DTD SVG 1.1//EN" "http://www.w3.org/Graphics/SVG/1.1/DTD/svg11.dtd">
<!-- Created with Vectornator (http://vectornator.io/) -->
<svg height="100%" stroke-miterlimit="10" style="fill-rule:nonzero;clip-rule:evenodd;stroke-linecap:round;stroke-linejoin:round;" version="1.1" viewBox="0 0 1024 1024" width="100%" xml:space="preserve" xmlns="http://www.w3.org/2000/svg" xmlns:vectornator="http://vectornator.io" xmlns:xlink="http://www.w3.org/1999/xlink">
<defs/>
<clipPath id="ArtboardFrame">
<rect height="1024" width="1024" x="0" y="0"/>
</clipPath>
<g clip-path="url(#ArtboardFrame)" id="Layer-1" vectornator:layerName="Layer 1">
<path d="M5.95545 4.44087L1018.41 4.44087L1018.41 1018.73L5.95545 1018.73L5.95545 4.44087Z" fill="#daa987" fill-rule="nonzero" opacity="1" stroke="#8daca6" stroke-linecap="butt" stroke-linejoin="miter" stroke-width="12.8805"/>
<path d="M718.744 78.4635L972.441 78.4635C976.546 78.4635 979.873 81.7912 979.873 85.896L979.873 114.466C979.873 118.571 976.546 121.898 972.441 121.898L718.744 121.898C714.64 121.898 711.312 118.571 711.312 114.466L711.312 85.896C711.312 81.7912 714.64 78.4635 718.744 78.4635Z" fill="#e6d6cb" fill-rule="nonzero" opacity="1" stroke="#8daca6" stroke-linecap="butt" stroke-linejoin="miter" stroke-width="12.8805"/>
<g fill="#436557" opacity="1" stroke="none">
<path d="M730.488 102.229L730.63 102.299C730.63 102.384 730.649 102.46 730.687 102.526C730.753 102.639 730.883 102.75 731.076 102.859C731.27 102.968 731.492 103.064 731.742 103.149C731.992 103.234 732.254 103.303 732.528 103.355C732.802 103.407 733.048 103.433 733.265 103.433C733.425 103.433 733.633 103.421 733.888 103.397C734.143 103.374 734.393 103.324 734.639 103.249C734.884 103.173 735.097 103.069 735.276 102.937C735.456 102.805 735.546 102.63 735.546 102.413C735.546 102.196 735.463 102.035 735.298 101.931C735.132 101.827 734.915 101.752 734.646 101.704C734.377 101.657 734.07 101.627 733.725 101.612C733.381 101.598 733.029 101.577 732.67 101.549C732.311 101.52 731.959 101.473 731.615 101.407C731.27 101.341 730.963 101.23 730.694 101.074C730.425 100.918 730.207 100.706 730.042 100.437C729.877 100.168 729.794 99.8157 729.794 99.3813C729.794 99.0885 729.863 98.8005 730 98.5172C730.137 98.2339 730.347 97.9836 730.63 97.7664C730.913 97.5492 731.272 97.3721 731.707 97.2352C732.141 97.0982 732.651 97.0298 733.236 97.0298C733.737 97.0298 734.171 97.0676 734.54 97.1431C734.908 97.2187 735.227 97.2989 735.496 97.3839C735.765 97.4689 735.992 97.5492 736.176 97.6247C736.36 97.7003 736.514 97.7381 736.636 97.7381C736.768 97.7381 736.863 97.7097 736.92 97.6531L737.09 97.7664L736.112 99.5371L735.97 99.4805C735.952 99.3482 735.914 99.2396 735.857 99.1546C735.782 99.0413 735.656 98.9304 735.482 98.8218C735.307 98.7131 735.102 98.6163 734.866 98.5314C734.629 98.4464 734.374 98.3779 734.101 98.3259C733.827 98.274 733.553 98.248 733.279 98.248C733.071 98.248 732.856 98.2646 732.634 98.2976C732.413 98.3307 732.212 98.3803 732.032 98.4464C731.853 98.5125 731.704 98.5998 731.586 98.7084C731.468 98.817 731.409 98.9516 731.409 99.1122C731.409 99.3388 731.492 99.5088 731.657 99.6221C731.822 99.7354 732.039 99.8204 732.309 99.8771C732.578 99.9338 732.885 99.9715 733.229 99.9904C733.574 100.009 733.926 100.033 734.285 100.061C734.644 100.09 734.995 100.139 735.34 100.21C735.685 100.281 735.992 100.394 736.261 100.55C736.53 100.706 736.747 100.916 736.913 101.18C737.078 101.445 737.16 101.789 737.16 102.214C737.16 102.706 737.031 103.107 736.771 103.419C736.511 103.73 736.188 103.976 735.8 104.155C735.413 104.335 734.995 104.455 734.547 104.516C734.098 104.578 733.68 104.608 733.293 104.608C732.755 104.608 732.304 104.578 731.94 104.516C731.577 104.455 731.275 104.379 731.034 104.29C730.793 104.2 730.602 104.12 730.46 104.049C730.318 103.978 730.196 103.943 730.092 103.943C730.026 103.943 729.964 103.98 729.908 104.056L729.709 103.943L730.488 102.229Z"/>
<path d="M744.796 99.6505C744.796 99.471 744.649 99.3813 744.357 99.3813L740.9 99.3813L740.9 100.798L743.082 100.798C743.242 100.798 743.36 100.786 743.436 100.762C743.511 100.739 743.549 100.675 743.549 100.571L743.804 100.571L743.804 102.073L743.521 102.073C743.549 101.969 743.511 101.905 743.408 101.882C743.304 101.858 743.157 101.846 742.968 101.846L740.9 101.846L740.9 103.518L744.527 103.518C744.64 103.518 744.734 103.492 744.81 103.44C744.886 103.388 744.923 103.319 744.923 103.234L745.178 103.234L745.178 104.722L744.923 104.722C744.923 104.637 744.886 104.59 744.81 104.58C744.734 104.571 744.64 104.566 744.527 104.566L739.328 104.566L739.328 104.311C739.375 104.311 739.422 104.294 739.469 104.261C739.517 104.228 739.54 104.174 739.54 104.099L739.54 98.8005C739.54 98.725 739.517 98.6706 739.469 98.6376C739.422 98.6045 739.375 98.588 739.328 98.588L739.328 98.333L744.357 98.333C744.649 98.333 744.796 98.248 744.796 98.078L745.051 98.078L745.051 99.6505L744.796 99.6505Z"/>
<path d="M750.986 101.959L749.839 99.5796L748.833 101.959L750.986 101.959ZM746.255 104.311C746.368 104.292 746.46 104.238 746.531 104.148C746.602 104.058 746.656 103.976 746.694 103.9L748.805 99.2963C748.861 99.1641 748.906 99.0578 748.939 98.9776C748.972 98.8973 748.989 98.8194 748.989 98.7438C748.989 98.6872 748.977 98.6518 748.953 98.6376C748.93 98.6234 748.904 98.6069 748.876 98.588L748.876 98.333L751.015 98.333L751.015 98.588C750.986 98.6069 750.956 98.6211 750.922 98.6305C750.889 98.64 750.873 98.6777 750.873 98.7438C750.873 98.8005 750.894 98.869 750.937 98.9492C750.979 99.0295 751.024 99.1216 751.071 99.2255L753.366 104.042C753.413 104.127 753.465 104.188 753.522 104.226C753.579 104.264 753.64 104.292 753.706 104.311L753.706 104.566L751.695 104.566L751.695 104.353C751.742 104.353 751.791 104.339 751.843 104.311C751.895 104.283 751.921 104.231 751.921 104.155C751.921 104.099 751.912 104.047 751.893 103.999C751.874 103.952 751.85 103.891 751.822 103.815L751.44 103.008L748.408 103.008L748.011 103.773C747.974 103.848 747.943 103.917 747.919 103.978C747.896 104.039 747.884 104.094 747.884 104.141C747.884 104.217 747.908 104.264 747.955 104.283C748.002 104.302 748.068 104.311 748.153 104.311L748.153 104.566L746.255 104.566L746.255 104.311Z"/>
<path d="M758.905 101.025C759.83 101.025 760.293 100.732 760.293 100.146C760.293 99.9102 760.182 99.7236 759.96 99.5867C759.738 99.4498 759.387 99.3813 758.905 99.3813L756.667 99.3813L756.667 101.025L758.905 101.025ZM758.933 98.333C759.774 98.333 760.43 98.4723 760.902 98.7509C761.375 99.0295 761.611 99.5041 761.611 100.175C761.611 100.43 761.563 100.656 761.469 100.855C761.375 101.053 761.249 101.225 761.094 101.372C760.938 101.518 760.765 101.636 760.576 101.726C760.388 101.815 760.194 101.884 759.996 101.931L761.384 103.957C761.459 104.061 761.542 104.139 761.632 104.191C761.722 104.243 761.818 104.283 761.922 104.311L761.922 104.566L759.755 104.566L759.755 104.311C759.878 104.311 759.939 104.269 759.939 104.184C759.939 104.089 759.868 103.943 759.727 103.744L758.607 102.073L756.638 102.073L756.638 104.099C756.638 104.174 756.669 104.228 756.73 104.261C756.792 104.294 756.851 104.311 756.908 104.311L756.908 104.566L755.023 104.566L755.023 104.311C755.193 104.311 755.278 104.24 755.278 104.099L755.278 98.8005C755.278 98.6588 755.193 98.588 755.023 98.588L755.023 98.333L758.933 98.333Z"/>
<path d="M768.651 100.118C768.651 100.099 768.649 100.08 768.644 100.061C768.639 100.042 768.637 100.019 768.637 99.9904C768.637 99.9432 768.59 99.8795 768.495 99.7992C768.401 99.7189 768.266 99.641 768.091 99.5655C767.917 99.4899 767.711 99.4262 767.475 99.3742C767.239 99.3223 766.979 99.2963 766.696 99.2963C766.356 99.2963 766.047 99.3412 765.768 99.4309C765.49 99.5206 765.246 99.6552 765.039 99.8346C764.831 100.014 764.67 100.236 764.557 100.5C764.444 100.765 764.387 101.067 764.387 101.407C764.387 101.747 764.451 102.052 764.578 102.321C764.706 102.59 764.873 102.821 765.081 103.015C765.289 103.208 765.525 103.355 765.79 103.454C766.054 103.553 766.323 103.603 766.597 103.603C766.852 103.603 767.112 103.57 767.376 103.504C767.641 103.437 767.881 103.36 768.099 103.27C768.316 103.18 768.493 103.083 768.63 102.979C768.767 102.876 768.835 102.781 768.835 102.696L768.835 102.583C768.835 102.526 768.83 102.479 768.821 102.441L768.977 102.299L770.025 103.801L769.883 103.872C769.77 103.825 769.69 103.801 769.643 103.801C769.567 103.801 769.444 103.844 769.274 103.929C769.104 104.014 768.889 104.11 768.63 104.219C768.37 104.328 768.068 104.42 767.723 104.495C767.378 104.571 766.994 104.608 766.569 104.608C766.134 104.608 765.705 104.547 765.28 104.424C764.855 104.302 764.477 104.106 764.146 103.836C763.816 103.567 763.547 103.232 763.339 102.831C763.131 102.429 763.027 101.964 763.027 101.435C763.027 100.906 763.131 100.444 763.339 100.047C763.547 99.6505 763.82 99.3176 764.16 99.0484C764.5 98.7793 764.89 98.5786 765.329 98.4464C765.768 98.3141 766.219 98.248 766.682 98.248C767.041 98.248 767.369 98.2811 767.666 98.3472C767.964 98.4133 768.226 98.4889 768.453 98.5738C768.679 98.6588 768.868 98.7344 769.019 98.8005C769.17 98.8666 769.279 98.8997 769.345 98.8997C769.392 98.8997 769.432 98.8855 769.466 98.8572C769.499 98.8288 769.534 98.8052 769.572 98.7863L769.742 98.8855L768.807 100.231L768.651 100.118Z"/>
<path d="M773.269 104.099C773.269 104.174 773.29 104.228 773.333 104.261C773.375 104.294 773.425 104.311 773.482 104.311L773.482 104.566L771.697 104.566L771.697 104.311C771.753 104.311 771.803 104.294 771.845 104.261C771.888 104.228 771.909 104.174 771.909 104.099L771.909 98.8005C771.909 98.725 771.888 98.6706 771.845 98.6376C771.803 98.6045 771.753 98.588 771.697 98.588L771.697 98.333L773.482 98.333L773.482 98.588C773.425 98.588 773.375 98.6045 773.333 98.6376C773.29 98.6706 773.269 98.725 773.269 98.8005L773.269 100.798L777.065 100.798L777.065 98.8005C777.065 98.725 777.044 98.6706 777.002 98.6376C776.959 98.6045 776.91 98.588 776.853 98.588L776.853 98.333L778.638 98.333L778.638 98.588C778.581 98.588 778.532 98.6045 778.489 98.6376C778.447 98.6706 778.425 98.725 778.425 98.8005L778.425 104.099C778.425 104.174 778.447 104.228 778.489 104.261C778.532 104.294 778.581 104.311 778.638 104.311L778.638 104.566L776.853 104.566L776.853 104.311C776.91 104.311 776.959 104.294 777.002 104.261C777.044 104.228 777.065 104.174 777.065 104.099L777.065 101.959L773.269 101.959L773.269 104.099Z"/>
</g>
<path d="M718.744 78.4635L972.441 78.4635C976.546 78.4635 979.873 81.7912 979.873 85.896L979.873 114.466C979.873 118.571 976.546 121.898 972.441 121.898L718.744 121.898C714.64 121.898 711.312 118.571 711.312 114.466L711.312 85.896C711.312 81.7912 714.64 78.4635 718.744 78.4635Z" fill="#e6d6cb" fill-rule="nonzero" opacity="1" stroke="#8daca6" stroke-linecap="butt" stroke-linejoin="miter" stroke-width="12.8805"/>
<g fill="#436557" opacity="1" stroke="none">
<path d="M730.488 102.229L730.63 102.299C730.63 102.384 730.649 102.46 730.687 102.526C730.753 102.639 730.883 102.75 731.076 102.859C731.27 102.968 731.492 103.064 731.742 103.149C731.992 103.234 732.254 103.303 732.528 103.355C732.802 103.407 733.048 103.433 733.265 103.433C733.425 103.433 733.633 103.421 733.888 103.397C734.143 103.374 734.393 103.324 734.639 103.249C734.884 103.173 735.097 103.069 735.276 102.937C735.456 102.805 735.546 102.63 735.546 102.413C735.546 102.196 735.463 102.035 735.298 101.931C735.132 101.827 734.915 101.752 734.646 101.704C734.377 101.657 734.07 101.627 733.725 101.612C733.381 101.598 733.029 101.577 732.67 101.549C732.311 101.52 731.959 101.473 731.615 101.407C731.27 101.341 730.963 101.23 730.694 101.074C730.425 100.918 730.207 100.706 730.042 100.437C729.877 100.168 729.794 99.8157 729.794 99.3813C729.794 99.0885 729.863 98.8005 730 98.5172C730.137 98.2339 730.347 97.9836 730.63 97.7664C730.913 97.5492 731.272 97.3721 731.707 97.2352C732.141 97.0982 732.651 97.0298 733.236 97.0298C733.737 97.0298 734.171 97.0676 734.54 97.1431C734.908 97.2187 735.227 97.2989 735.496 97.3839C735.765 97.4689 735.992 97.5492 736.176 97.6247C736.36 97.7003 736.514 97.7381 736.636 97.7381C736.768 97.7381 736.863 97.7097 736.92 97.6531L737.09 97.7664L736.112 99.5371L735.97 99.4805C735.952 99.3482 735.914 99.2396 735.857 99.1546C735.782 99.0413 735.656 98.9304 735.482 98.8218C735.307 98.7131 735.102 98.6163 734.866 98.5314C734.629 98.4464 734.374 98.3779 734.101 98.3259C733.827 98.274 733.553 98.248 733.279 98.248C733.071 98.248 732.856 98.2646 732.634 98.2976C732.413 98.3307 732.212 98.3803 732.032 98.4464C731.853 98.5125 731.704 98.5998 731.586 98.7084C731.468 98.817 731.409 98.9516 731.409 99.1122C731.409 99.3388 731.492 99.5088 731.657 99.6221C731.822 99.7354 732.039 99.8204 732.309 99.8771C732.578 99.9338 732.885 99.9715 733.229 99.9904C733.574 100.009 733.926 100.033 734.285 100.061C734.644 100.09 734.995 100.139 735.34 100.21C735.685 100.281 735.992 100.394 736.261 100.55C736.53 100.706 736.747 100.916 736.913 101.18C737.078 101.445 737.16 101.789 737.16 102.214C737.16 102.706 737.031 103.107 736.771 103.419C736.511 103.73 736.188 103.976 735.8 104.155C735.413 104.335 734.995 104.455 734.547 104.516C734.098 104.578 733.68 104.608 733.293 104.608C732.755 104.608 732.304 104.578 731.94 104.516C731.577 104.455 731.275 104.379 731.034 104.29C730.793 104.2 730.602 104.12 730.46 104.049C730.318 103.978 730.196 103.943 730.092 103.943C730.026 103.943 729.964 103.98 729.908 104.056L729.709 103.943L730.488 102.229Z"/>
<path d="M744.796 99.6505C744.796 99.471 744.649 99.3813 744.357 99.3813L740.9 99.3813L740.9 100.798L743.082 100.798C743.242 100.798 743.36 100.786 743.436 100.762C743.511 100.739 743.549 100.675 743.549 100.571L743.804 100.571L743.804 102.073L743.521 102.073C743.549 101.969 743.511 101.905 743.408 101.882C743.304 101.858 743.157 101.846 742.968 101.846L740.9 101.846L740.9 103.518L744.527 103.518C744.64 103.518 744.734 103.492 744.81 103.44C744.886 103.388 744.923 103.319 744.923 103.234L745.178 103.234L745.178 104.722L744.923 104.722C744.923 104.637 744.886 104.59 744.81 104.58C744.734 104.571 744.64 104.566 744.527 104.566L739.328 104.566L739.328 104.311C739.375 104.311 739.422 104.294 739.469 104.261C739.517 104.228 739.54 104.174 739.54 104.099L739.54 98.8005C739.54 98.725 739.517 98.6706 739.469 98.6376C739.422 98.6045 739.375 98.588 739.328 98.588L739.328 98.333L744.357 98.333C744.649 98.333 744.796 98.248 744.796 98.078L745.051 98.078L745.051 99.6505L744.796 99.6505Z"/>
<path d="M750.986 101.959L749.839 99.5796L748.833 101.959L750.986 101.959ZM746.255 104.311C746.368 104.292 746.46 104.238 746.531 104.148C746.602 104.058 746.656 103.976 746.694 103.9L748.805 99.2963C748.861 99.1641 748.906 99.0578 748.939 98.9776C748.972 98.8973 748.989 98.8194 748.989 98.7438C748.989 98.6872 748.977 98.6518 748.953 98.6376C748.93 98.6234 748.904 98.6069 748.876 98.588L748.876 98.333L751.015 98.333L751.015 98.588C750.986 98.6069 750.956 98.6211 750.922 98.6305C750.889 98.64 750.873 98.6777 750.873 98.7438C750.873 98.8005 750.894 98.869 750.937 98.9492C750.979 99.0295 751.024 99.1216 751.071 99.2255L753.366 104.042C753.413 104.127 753.465 104.188 753.522 104.226C753.579 104.264 753.64 104.292 753.706 104.311L753.706 104.566L751.695 104.566L751.695 104.353C751.742 104.353 751.791 104.339 751.843 104.311C751.895 104.283 751.921 104.231 751.921 104.155C751.921 104.099 751.912 104.047 751.893 103.999C751.874 103.952 751.85 103.891 751.822 103.815L751.44 103.008L748.408 103.008L748.011 103.773C747.974 103.848 747.943 103.917 747.919 103.978C747.896 104.039 747.884 104.094 747.884 104.141C747.884 104.217 747.908 104.264 747.955 104.283C748.002 104.302 748.068 104.311 748.153 104.311L748.153 104.566L746.255 104.566L746.255 104.311Z"/>
<path d="M758.905 101.025C759.83 101.025 760.293 100.732 760.293 100.146C760.293 99.9102 760.182 99.7236 759.96 99.5867C759.738 99.4498 759.387 99.3813 758.905 99.3813L756.667 99.3813L756.667 101.025L758.905 101.025ZM758.933 98.333C759.774 98.333 760.43 98.4723 760.902 98.7509C761.375 99.0295 761.611 99.5041 761.611 100.175C761.611 100.43 761.563 100.656 761.469 100.855C761.375 101.053 761.249 101.225 761.094 101.372C760.938 101.518 760.765 101.636 760.576 101.726C760.388 101.815 760.194 101.884 759.996 101.931L761.384 103.957C761.459 104.061 761.542 104.139 761.632 104.191C761.722 104.243 761.818 104.283 761.922 104.311L761.922 104.566L759.755 104.566L759.755 104.311C759.878 104.311 759.939 104.269 759.939 104.184C759.939 104.089 759.868 103.943 759.727 103.744L758.607 102.073L756.638 102.073L756.638 104.099C756.638 104.174 756.669 104.228 756.73 104.261C756.792 104.294 756.851 104.311 756.908 104.311L756.908 104.566L755.023 104.566L755.023 104.311C755.193 104.311 755.278 104.24 755.278 104.099L755.278 98.8005C755.278 98.6588 755.193 98.588 755.023 98.588L755.023 98.333L758.933 98.333Z"/>
<path d="M768.651 100.118C768.651 100.099 768.649 100.08 768.644 100.061C768.639 100.042 768.637 100.019 768.637 99.9904C768.637 99.9432 768.59 99.8795 768.495 99.7992C768.401 99.7189 768.266 99.641 768.091 99.5655C767.917 99.4899 767.711 99.4262 767.475 99.3742C767.239 99.3223 766.979 99.2963 766.696 99.2963C766.356 99.2963 766.047 99.3412 765.768 99.4309C765.49 99.5206 765.246 99.6552 765.039 99.8346C764.831 100.014 764.67 100.236 764.557 100.5C764.444 100.765 764.387 101.067 764.387 101.407C764.387 101.747 764.451 102.052 764.578 102.321C764.706 102.59 764.873 102.821 765.081 103.015C765.289 103.208 765.525 103.355 765.79 103.454C766.054 103.553 766.323 103.603 766.597 103.603C766.852 103.603 767.112 103.57 767.376 103.504C767.641 103.437 767.881 103.36 768.099 103.27C768.316 103.18 768.493 103.083 768.63 102.979C768.767 102.876 768.835 102.781 768.835 102.696L768.835 102.583C768.835 102.526 768.83 102.479 768.821 102.441L768.977 102.299L770.025 103.801L769.883 103.872C769.77 103.825 769.69 103.801 769.643 103.801C769.567 103.801 769.444 103.844 769.274 103.929C769.104 104.014 768.889 104.11 768.63 104.219C768.37 104.328 768.068 104.42 767.723 104.495C767.378 104.571 766.994 104.608 766.569 104.608C766.134 104.608 765.705 104.547 765.28 104.424C764.855 104.302 764.477 104.106 764.146 103.836C763.816 103.567 763.547 103.232 763.339 102.831C763.131 102.429 763.027 101.964 763.027 101.435C763.027 100.906 763.131 100.444 763.339 100.047C763.547 99.6505 763.82 99.3176 764.16 99.0484C764.5 98.7793 764.89 98.5786 765.329 98.4464C765.768 98.3141 766.219 98.248 766.682 98.248C767.041 98.248 767.369 98.2811 767.666 98.3472C767.964 98.4133 768.226 98.4889 768.453 98.5738C768.679 98.6588 768.868 98.7344 769.019 98.8005C769.17 98.8666 769.279 98.8997 769.345 98.8997C769.392 98.8997 769.432 98.8855 769.466 98.8572C769.499 98.8288 769.534 98.8052 769.572 98.7863L769.742 98.8855L768.807 100.231L768.651 100.118Z"/>
<path d="M773.269 104.099C773.269 104.174 773.29 104.228 773.333 104.261C773.375 104.294 773.425 104.311 773.482 104.311L773.482 104.566L771.697 104.566L771.697 104.311C771.753 104.311 771.803 104.294 771.845 104.261C771.888 104.228 771.909 104.174 771.909 104.099L771.909 98.8005C771.909 98.725 771.888 98.6706 771.845 98.6376C771.803 98.6045 771.753 98.588 771.697 98.588L771.697 98.333L773.482 98.333L773.482 98.588C773.425 98.588 773.375 98.6045 773.333 98.6376C773.29 98.6706 773.269 98.725 773.269 98.8005L773.269 100.798L777.065 100.798L777.065 98.8005C777.065 98.725 777.044 98.6706 777.002 98.6376C776.959 98.6045 776.91 98.588 776.853 98.588L776.853 98.333L778.638 98.333L778.638 98.588C778.581 98.588 778.532 98.6045 778.489 98.6376C778.447 98.6706 778.425 98.725 778.425 98.8005L778.425 104.099C778.425 104.174 778.447 104.228 778.489 104.261C778.532 104.294 778.581 104.311 778.638 104.311L778.638 104.566L776.853 104.566L776.853 104.311C776.91 104.311 776.959 104.294 777.002 104.261C777.044 104.228 777.065 104.174 777.065 104.099L777.065 101.959L773.269 101.959L773.269 104.099Z"/>
</g>
<g opacity="1">
<path d="M568.982 742.895L709.127 742.895C718.411 742.895 725.937 750.367 725.937 759.584L725.937 895.242C725.937 904.459 718.411 911.931 709.127 911.931L568.982 911.931C559.698 911.931 552.172 904.459 552.172 895.242L552.172 759.584C552.172 750.367 559.698 742.895 568.982 742.895Z" fill="#abcadf" fill-rule="nonzero" opacity="1" stroke="#c9dbe7" stroke-linecap="butt" stroke-linejoin="miter" stroke-width="12.8805"/>
<path d="M335.966 302.132L476.111 302.132C485.395 302.132 492.921 309.603 492.921 318.82L492.921 454.479C492.921 463.696 485.395 471.167 476.111 471.167L335.966 471.167C326.682 471.167 319.155 463.696 319.155 454.479L319.155 318.82C319.155 309.603 326.682 302.132 335.966 302.132Z" fill="#abcadf" fill-rule="nonzero" opacity="1" stroke="#c9dbe7" stroke-linecap="butt" stroke-linejoin="miter" stroke-width="12.8805"/>
<path d="M778.93 524.233L919.075 524.233C928.359 524.233 935.886 531.705 935.886 540.922L935.886 676.58C935.886 685.797 928.359 693.268 919.075 693.268L778.93 693.268C769.646 693.268 762.12 685.797 762.12 676.58L762.12 540.922C762.12 531.705 769.646 524.233 778.93 524.233Z" fill="#abcadf" fill-rule="nonzero" opacity="1" stroke="#c9dbe7" stroke-linecap="butt" stroke-linejoin="miter" stroke-width="12.8805"/>
<path d="M776.089 304.618L916.234 304.618C925.518 304.618 933.045 312.09 933.045 321.307L933.045 456.965C933.045 466.182 925.518 473.654 916.234 473.654L776.089 473.654C766.805 473.654 759.279 466.182 759.279 456.965L759.279 321.307C759.279 312.09 766.805 304.618 776.089 304.618Z" fill="#abcadf" fill-rule="nonzero" opacity="1" stroke="#c9dbe7" stroke-linecap="butt" stroke-linejoin="miter" stroke-width="12.8805"/>
<path d="M784.739 739.715L924.884 739.715C934.168 739.715 941.694 747.187 941.694 756.404L941.694 892.062C941.694 901.279 934.168 908.751 924.884 908.751L784.739 908.751C775.454 908.751 767.928 901.279 767.928 892.062L767.928 756.404C767.928 747.187 775.454 739.715 784.739 739.715Z" fill="#abcadf" fill-rule="nonzero" opacity="1" stroke="#c9dbe7" stroke-linecap="butt" stroke-linejoin="miter" stroke-width="12.8805"/>
<path d="M332.926 527.131L473.071 527.131C482.355 527.131 489.882 534.603 489.882 543.819L489.882 679.478C489.882 688.695 482.355 696.166 473.071 696.166L332.926 696.166C323.642 696.166 316.116 688.695 316.116 679.478L316.116 543.819C316.116 534.603 323.642 527.131 332.926 527.131Z" fill="#abcadf" fill-rule="nonzero" opacity="1" stroke="#c9dbe7" stroke-linecap="butt" stroke-linejoin="miter" stroke-width="12.8805"/>
<path d="M558.459 524.645L698.604 524.645C707.888 524.645 715.414 532.116 715.414 541.333L715.414 676.992C715.414 686.208 707.888 693.68 698.604 693.68L558.459 693.68C549.175 693.68 541.649 686.208 541.649 676.992L541.649 541.333C541.649 532.116 549.175 524.645 558.459 524.645Z" fill="#abcadf" fill-rule="nonzero" opacity="1" stroke="#c9dbe7" stroke-linecap="butt" stroke-linejoin="miter" stroke-width="12.8805"/>
<path d="M555.526 306.499L695.671 306.499C704.956 306.499 712.482 313.97 712.482 323.187L712.482 458.845C712.482 468.062 704.956 475.534 695.671 475.534L555.526 475.534C546.242 475.534 538.716 468.062 538.716 458.845L538.716 323.187C538.716 313.97 546.242 306.499 555.526 306.499Z" fill="#abcadf" fill-rule="nonzero" opacity="1" stroke="#c9dbe7" stroke-linecap="butt" stroke-linejoin="miter" stroke-width="12.8805"/>
<path d="M112.669 530.941L252.814 530.941C262.098 530.941 269.624 538.412 269.624 547.629L269.624 683.288C269.624 692.504 262.098 699.976 252.814 699.976L112.669 699.976C103.385 699.976 95.8584 692.504 95.8584 683.288L95.8584 547.629C95.8584 538.412 103.385 530.941 112.669 530.941Z" fill="#abcadf" fill-rule="nonzero" opacity="1" stroke="#c9dbe7" stroke-linecap="butt" stroke-linejoin="miter" stroke-width="12.8805"/>
<path d="M114.064 306.031L254.21 306.031C263.494 306.031 271.02 313.502 271.02 322.719L271.02 458.378C271.02 467.594 263.494 475.066 254.21 475.066L114.064 475.066C104.78 475.066 97.2541 467.594 97.2541 458.378L97.2541 322.719C97.2541 313.502 104.78 306.031 114.064 306.031Z" fill="#abcadf" fill-rule="nonzero" opacity="1" stroke="#c9dbe7" stroke-linecap="butt" stroke-linejoin="miter" stroke-width="12.8805"/>
<path d="M335.358 745.914L475.503 745.914C484.787 745.914 492.313 753.386 492.313 762.603L492.313 898.261C492.313 907.478 484.787 914.95 475.503 914.95L335.358 914.95C326.074 914.95 318.548 907.478 318.548 898.261L318.548 762.603C318.548 753.386 326.074 745.914 335.358 745.914Z" fill="#abcadf" fill-rule="nonzero" opacity="1" stroke="#c9dbe7" stroke-linecap="butt" stroke-linejoin="miter" stroke-width="12.8805"/>
<path d="M108.609 748.401L248.754 748.401C258.038 748.401 265.565 755.872 265.565 765.089L265.565 900.747C265.565 909.964 258.038 917.436 248.754 917.436L108.609 917.436C99.3251 917.436 91.7989 909.964 91.7989 900.747L91.7989 765.089C91.7989 755.872 99.3251 748.401 108.609 748.401Z" fill="#abcadf" fill-rule="nonzero" opacity="1" stroke="#c9dbe7" stroke-linecap="butt" stroke-linejoin="miter" stroke-width="12.8805"/>
<path d="M597.058 835.85C596.154 835.85 595.253 836.349 594.782 837.334L562.534 905.286L631.581 905.286L599.333 837.334C598.862 836.349 597.961 835.85 597.058 835.85ZM688.721 867.179L669.243 905.286L713.182 905.286L693.704 867.179C693.171 866.134 692.192 865.608 691.213 865.608C690.233 865.608 689.254 866.134 688.721 867.179Z" fill="#90a4ae" fill-rule="nonzero" opacity="1" stroke="none" vectornator:layerName="path"/>
<path d="M697.49 905.286L584.504 905.286L615.047 839.156L628.443 819.317L653.551 819.317L668.239 841.967L697.49 905.286Z" fill="#546e7a" fill-rule="nonzero" opacity="1" stroke="none" vectornator:layerName="path"/>
<path d="M668.446 842.463L659.828 835.85L662.966 858.995L644.135 822.624L634.72 845.769L628.443 825.93L615.047 839.156L628.443 810.158L638.611 787.74C638.737 787.476 638.925 787.244 639.113 787.046C639.647 786.517 640.306 786.252 640.965 786.252C641.813 786.252 642.629 786.682 643.099 787.476C643.194 787.575 643.225 787.674 643.288 787.773L668.446 842.463Z" fill="#81d4fa" fill-rule="nonzero" opacity="1" stroke="none" vectornator:layerName="path"/>
<path d="M710.451 652.961L549.576 652.961L549.576 551.614C549.576 551.614 549.576 539.92 562.982 539.92C576.389 539.92 612.139 551.614 638.951 551.614C665.763 551.614 683.638 539.92 697.045 539.92C710.451 539.92 710.451 551.614 710.451 551.614L710.451 652.961Z" fill="#546e7a" fill-rule="nonzero" opacity="1" stroke="none" vectornator:layerName="path"/>
<path d="M668.896 617.63C666.934 577.824 661.161 548.995 661.161 548.995C661.147 549.139 657.755 582.958 660.307 624.085C660.312 624.085 660.316 624.085 660.321 624.085C711.197 632.333 710.451 652.006 710.451 652.961L710.451 635.502C701.773 627.574 687.204 621.31 668.896 617.63ZM589.969 625.941C589.969 625.941 589.974 625.941 589.969 625.941C590.912 576.546 611.209 548.96 611.357 548.757C603.201 555.512 583.722 579.617 581.3 619.934C567.594 623.691 556.637 629.047 549.576 635.502L549.576 652.961C549.576 651.987 548.459 635.662 589.951 625.944C589.96 625.944 589.965 625.941 589.969 625.941Z" fill="#37474f" fill-rule="nonzero" opacity="1" stroke="none" vectornator:layerName="path"/>
<path d="M578.846 629.714L579.164 626.545C579.199 625.613 579.334 624.724 579.307 623.73C579.351 621.774 579.24 619.813 579.007 617.852C578.525 613.943 577.475 610.033 575.759 606.279C574.078 602.51 571.737 598.904 568.85 595.572C565.95 592.266 562.544 589.171 558.514 586.696C563.099 588.321 567.357 590.73 571.267 593.552C575.169 596.394 578.708 599.727 581.657 603.5C584.642 607.254 587.029 611.44 588.798 615.849C589.67 618.055 590.407 620.316 590.97 622.612C591.292 623.734 591.475 624.989 591.725 626.19L592.253 629.433L578.846 629.714ZM658.837 629.433L659.364 626.19C659.614 624.989 659.798 623.734 660.119 622.612C660.682 620.316 661.42 618.055 662.291 615.849C664.061 611.44 666.447 607.254 669.432 603.5C672.382 599.727 675.921 596.39 679.822 593.552C683.732 590.73 687.991 588.321 692.576 586.696C688.545 589.171 685.14 592.266 682.24 595.575C679.353 598.904 677.011 602.514 675.331 606.283C673.615 610.037 672.569 613.947 672.082 617.856C671.845 619.817 671.738 621.778 671.783 623.734C671.756 624.728 671.89 625.613 671.926 626.549L672.243 629.718L658.837 629.433Z" fill="#8bc34a" fill-rule="nonzero" opacity="1" stroke="none" vectornator:layerName="path"/>
<path d="M664.427 636.481C665.75 632.707 667.426 629.745 669.459 626.669C671.483 623.664 673.888 620.858 676.685 618.402C679.487 615.954 682.695 613.861 686.199 612.442C689.68 610.98 693.42 610.259 697.045 610.084C690.123 612.278 685.015 616.749 682.056 621.902C680.546 624.483 679.469 627.227 678.75 630.03C678.048 632.758 677.583 635.837 677.677 638.254L664.427 636.481ZM569.65 635.194C570.168 633.015 570.432 630.33 570.53 627.839C570.611 625.301 570.517 622.736 570.119 620.211C569.324 615.202 567.518 610.06 562.982 606.186C568.841 608.396 573.354 613.241 576.474 618.347C578.069 620.928 579.356 623.641 580.455 626.42C581.537 629.25 582.439 631.94 583.06 635.155L569.65 635.194Z" fill="#8bc34a" fill-rule="nonzero" opacity="1" stroke="none" vectornator:layerName="path"/>
<g opacity="1" vectornator:layerName="g">
<path d="M630.014 621.778C585.589 621.778 549.576 635.739 549.576 652.961C549.576 670.183 585.589 684.145 630.014 684.145C674.438 684.145 710.451 670.183 710.451 652.961C710.451 635.739 674.438 621.778 630.014 621.778Z" fill="#42a5f5" fill-rule="nonzero" opacity="1" stroke="none" vectornator:layerName="path"/>
<path d="M661.295 547.716L612.139 547.716C612.139 547.716 589.795 575.002 589.795 633.471L660.973 633.471C657.058 584.712 661.295 547.716 661.295 547.716Z" fill="#42a5f5" fill-rule="nonzero" opacity="1" stroke="none" vectornator:layerName="path"/>
</g>
<g opacity="1" vectornator:layerName="g">
<path d="M665.763 633.471C676.73 637.28 692.576 642.908 692.576 649.063C692.576 660.543 659.632 668.553 630.014 668.553C600.395 668.553 567.451 660.543 567.451 649.063C567.451 642.908 583.293 637.28 594.264 633.471" fill="#42a5f5" fill-rule="nonzero" opacity="1" stroke="none" vectornator:layerName="path"/>
<path d="M665.763 633.471C670.049 634.27 674.276 635.225 678.481 636.434C682.687 637.67 686.82 639.081 690.913 641.505C692.862 642.784 695.123 644.339 696.2 647.535C696.464 648.214 696.482 649.461 696.495 649.749C696.455 650.619 696.37 651.297 696.182 651.975C695.838 653.351 695.186 654.583 694.435 655.678C691.302 660.02 686.959 662.27 682.87 664.351C666.023 671.925 648.076 674.034 629.982 674.396C621 674.365 611.978 673.636 603.134 672.085C594.326 670.385 585.487 668.401 577.148 664.367C573.055 662.289 568.72 660.036 565.574 655.686C564.077 653.491 563 650.685 563.787 647.641C564.913 644.214 567.147 642.83 569.1 641.49C573.198 639.069 577.336 637.662 581.541 636.426C585.746 635.218 589.974 634.263 594.264 633.471C590.523 635.467 586.734 637.338 583.119 639.342C579.553 641.353 575.91 643.407 573.354 645.832C572.09 646.915 571.151 648.443 571.343 648.759C571.335 649.465 571.853 650.49 572.782 651.363C574.704 653.215 578.096 654.934 581.68 656.165C588.999 658.586 597.106 660.25 605.284 661.174C613.479 662.172 621.742 662.714 630.04 662.71C638.218 662.811 646.575 662.219 654.735 661.19C662.912 660.258 671.028 658.609 678.347 656.181C681.931 654.949 685.328 653.218 687.254 651.371C689.041 649.293 689.559 648.599 686.677 645.82C684.121 643.4 680.47 641.345 676.904 639.334C673.298 637.33 669.504 635.463 665.763 633.471Z" fill="#90caf9" fill-rule="nonzero" opacity="1" stroke="none" vectornator:layerName="path"/>
<path d="M603.201 635.724C603.201 576.659 630.014 547.716 630.014 547.716C630.014 547.716 614.373 573.357 616.607 635.724L603.201 635.724ZM630.027 635.724C630.027 600.643 643.42 559.41 643.42 559.41C643.42 559.41 638.951 596.441 643.42 635.42L630.027 635.724ZM589.795 641.267C585.545 644.167 589.875 645.883 593.258 646.67C596.793 647.586 600.632 647.995 604.421 648.358C612.067 649.02 619.802 649.055 627.623 649.067C635.421 649.028 643.237 648.9 650.923 648.276C654.748 647.917 658.596 647.531 662.188 646.647C663.971 646.241 665.754 645.629 666.907 644.776C667.479 644.335 667.73 643.891 667.524 643.197C667.269 642.499 666.55 641.825 665.763 641.267C666.742 641.513 667.761 641.817 668.619 642.597C669.508 643.4 669.548 644.974 668.892 645.925C667.672 647.925 665.728 648.974 663.927 650.014C660.173 651.917 656.196 653.199 652.165 654.107C644.103 655.994 635.885 656.695 627.703 656.832C619.539 656.976 611.218 656.337 603.116 654.478C599.076 653.515 595.068 652.271 591.332 650.237C589.54 649.149 587.623 648.015 586.461 645.933C585.844 644.924 585.996 643.353 586.89 642.561C587.775 641.794 588.821 641.49 589.795 641.267Z" fill="#90caf9" fill-rule="nonzero" opacity="1" stroke="none" vectornator:layerName="path"/>
<path d="M609.904 629.573C606.202 629.573 603.201 632.191 603.201 635.42C603.201 638.65 606.202 641.267 609.904 641.267C613.606 641.267 616.607 638.65 616.607 635.42C616.607 632.191 613.606 629.573 609.904 629.573ZM636.717 629.573C633.015 629.573 630.014 632.191 630.014 635.42C630.014 638.65 633.015 641.267 636.717 641.267C640.419 641.267 643.42 638.65 643.42 635.42C643.42 632.191 640.419 629.573 636.717 629.573Z" fill="#90caf9" fill-rule="nonzero" opacity="1" stroke="none" vectornator:layerName="path"/>
</g>
<path d="M850.036 582.872L850.036 556.944C850.036 549.814 844.196 543.98 837.057 543.98L837.057 543.98C829.919 543.98 824.079 549.814 824.079 556.944L824.079 595.836C824.079 610.096 835.76 621.764 850.036 621.764L863.014 621.764C877.291 621.764 888.971 610.096 888.971 595.836L888.971 582.872L850.036 582.872Z" fill="#ffffff" fill-rule="nonzero" opacity="1" stroke="none" vectornator:layerName="path"/>
<path d="M837.057 562.13C836.019 562.13 834.981 561.741 834.332 560.963C833.553 560.315 833.164 559.278 833.164 558.241L840.951 558.241C840.951 559.278 840.562 560.315 839.783 560.963C839.004 561.611 838.096 562.13 837.057 562.13Z" fill="#454b54" fill-rule="nonzero" opacity="1" stroke="none" vectornator:layerName="path"/>
<path d="M816.292 680.75L839.523 648.599C844.715 641.469 855.357 641.469 860.548 648.599L883.78 680.75" fill="#ce938e" fill-rule="nonzero" opacity="1" stroke="none" vectornator:layerName="path"/>
<path d="M863.014 625.653C879.497 625.653 892.865 612.3 892.865 595.836L892.865 582.872C892.865 580.668 891.178 578.983 888.971 578.983L853.929 578.983L853.929 556.944C853.929 547.61 846.402 540.091 837.057 540.091C827.713 540.091 820.185 547.61 820.185 556.944L820.185 559.537L804.611 559.537C802.405 559.537 800.718 561.222 800.718 563.426L800.718 564.723C800.718 566.927 802.405 568.612 804.611 568.612C805.779 568.612 806.818 568.093 807.467 567.315L820.185 567.315L820.185 595.836C820.185 611.004 831.477 623.449 846.142 625.394L846.142 639.784C842.249 640.691 838.745 643.025 836.409 646.266L813.177 678.416C811.879 680.102 812.269 682.565 814.086 683.861C815.773 685.158 818.239 684.769 819.537 682.954L842.638 650.933C844.325 648.599 847.051 647.173 850.036 647.173C853.021 647.173 855.617 648.599 857.434 650.933L880.665 683.083C881.444 684.121 882.612 684.639 883.78 684.639C884.559 684.639 885.337 684.38 886.116 683.861C887.803 682.565 888.193 680.231 887.024 678.416L863.663 646.395C861.197 643.025 857.823 640.821 853.929 639.914L853.929 625.653L863.014 625.653ZM827.973 595.836L827.973 556.944C827.973 551.888 831.996 547.87 837.057 547.87C842.119 547.87 846.142 551.888 846.142 556.944L846.142 582.872C846.142 585.076 847.83 586.761 850.036 586.761L885.078 586.761L885.078 595.836C885.078 608.022 875.214 617.875 863.014 617.875L850.036 617.875C837.836 617.875 827.973 607.893 827.973 595.836Z" fill="#454b54" fill-rule="nonzero" opacity="1" stroke="none" vectornator:layerName="path"/>
<path d="M863.274 685.935C863.144 685.935 863.144 685.935 863.014 685.935C858.212 685.935 853.67 684.25 850.036 681.398C846.402 684.121 841.989 685.676 837.317 685.676C832.515 685.676 828.102 684.121 824.468 681.398C820.834 684.25 816.422 685.676 811.62 685.676C806.818 685.676 802.405 684.121 798.771 681.398C795.137 684.25 790.724 685.676 785.922 685.676C779.823 685.676 773.982 683.083 770.089 678.546C768.661 676.861 768.921 674.398 770.478 673.101C772.165 671.675 774.631 671.934 775.929 673.49C778.265 676.342 781.899 677.898 785.793 677.898C789.686 677.898 793.32 676.342 795.656 673.49C796.435 672.583 797.473 672.064 798.641 672.064C799.809 672.064 800.848 672.583 801.626 673.49C803.962 676.342 807.596 677.898 811.49 677.898C815.383 677.898 819.017 676.342 821.354 673.49C822.132 672.583 823.171 672.064 824.339 672.064C825.507 672.064 826.545 672.583 827.324 673.49C829.66 676.342 833.294 677.898 837.187 677.898C841.081 677.898 844.715 676.342 847.051 673.49C847.83 672.583 848.868 672.064 850.036 672.064L850.036 672.064C851.204 672.064 852.242 672.583 853.021 673.49L853.281 673.749C855.617 676.472 859.251 678.157 863.014 678.157L863.144 678.157C866.908 678.157 870.412 676.601 872.878 673.879L873.397 673.36C874.176 672.453 875.214 672.064 876.382 672.064C877.55 672.064 878.588 672.583 879.367 673.49C881.703 676.342 885.337 677.898 889.231 677.898C891.437 677.898 893.124 679.583 893.124 681.787C893.124 683.991 891.437 685.676 889.231 685.676C884.559 685.676 880.016 684.121 876.512 681.398C872.748 684.25 868.076 685.935 863.274 685.935ZM927.647 679.842C925.441 679.842 923.753 678.157 923.753 675.953C923.753 673.749 925.441 672.064 927.647 672.064L927.647 672.064C929.853 672.064 931.541 673.749 931.541 675.953C931.541 678.157 929.853 679.842 927.647 679.842Z" fill="#454b54" fill-rule="nonzero" opacity="1" stroke="none" vectornator:layerName="path"/>
<path d="M889.101 685.676C883.001 685.676 877.161 683.083 873.267 678.546C871.84 676.861 872.099 674.398 873.657 673.101C875.344 671.675 877.81 671.934 879.108 673.49C881.444 676.342 885.078 677.898 888.971 677.898C892.865 677.898 896.499 676.342 898.835 673.49C899.614 672.583 900.652 672.064 901.82 672.064L901.82 672.064C902.988 672.064 904.026 672.583 904.805 673.49C907.141 676.213 910.645 677.768 914.279 677.898C916.486 677.898 918.173 679.713 918.043 681.917C918.043 683.991 916.226 685.676 914.149 685.676L914.02 685.676C909.477 685.547 905.194 683.991 901.69 681.398C898.446 684.121 893.903 685.676 889.101 685.676Z" fill="#454b54" fill-rule="nonzero" opacity="1" stroke="none" vectornator:layerName="path"/>
<path d="M875.993 608.8L875.993 608.8C861.717 608.8 850.036 597.133 850.036 582.872L850.036 582.872L901.95 582.872L901.95 582.872C901.95 597.133 890.269 608.8 875.993 608.8Z" fill="#7ca5c6" fill-rule="nonzero" opacity="1" stroke="none" vectornator:layerName="path"/>
<path d="M901.95 581.576L888.971 581.576L888.971 594.54C888.971 598.299 888.193 601.929 886.635 605.17C895.59 601.151 901.95 592.077 901.95 581.576C901.95 581.705 901.95 581.705 901.95 581.576C901.95 581.705 901.95 581.705 901.95 581.576L901.95 581.576L901.95 581.576L901.95 581.576L901.95 581.576" fill="#7196b4" fill-rule="nonzero" opacity="1" stroke="none" vectornator:layerName="path"/>
<path d="M875.993 612.689C859.51 612.689 846.142 599.336 846.142 582.872C846.142 580.668 847.83 578.983 850.036 578.983L901.95 578.983C904.156 578.983 905.843 580.668 905.843 582.872C905.843 599.336 892.475 612.689 875.993 612.689ZM854.189 586.761C856.006 597.003 865.091 604.911 875.863 604.911C886.635 604.911 895.72 597.003 897.537 586.761L854.189 586.761Z" fill="#454b54" fill-rule="nonzero" opacity="1" stroke="none" vectornator:layerName="path"/>
<path d="M343.339 582.053C341.75 582.053 340.161 580.985 339.366 579.56C338.969 577.78 340.161 575.644 342.147 575.287C343.339 574.931 351.286 572.439 351.286 564.249C351.286 562.113 352.875 560.688 355.259 560.688C357.643 560.688 359.232 562.113 359.232 564.249C359.232 575.287 349.696 580.629 344.531 582.053C344.134 582.053 343.737 582.053 343.339 582.053ZM470.484 649.707C458.962 649.707 454.591 641.161 454.591 635.464C454.591 633.328 456.181 631.903 458.564 631.903C460.551 631.903 462.538 633.328 462.538 635.464C462.538 637.245 463.332 642.586 470.484 642.586C472.868 642.586 474.458 644.01 474.458 646.146C474.458 648.283 472.868 649.707 470.484 649.707ZM355.259 624.782C353.67 624.782 352.08 623.714 351.286 622.289C350.888 620.509 352.08 618.373 354.067 618.016C355.259 617.66 363.206 615.168 363.206 606.978C363.206 604.842 364.795 603.417 367.179 603.417C369.563 603.417 371.152 604.842 371.152 606.978C371.152 618.016 361.616 623.358 356.451 624.782C356.054 624.782 355.656 624.782 355.259 624.782ZM347.313 671.072C345.326 671.072 343.339 669.647 343.339 667.511C343.339 667.155 342.942 662.526 337.777 660.033C335.79 659.321 334.995 657.185 336.187 655.404C336.982 653.624 339.366 652.912 341.353 653.98C351.286 658.253 351.286 667.155 351.286 667.511C351.286 669.647 349.696 671.072 347.313 671.072Z" fill="#ff8a80" fill-rule="nonzero" opacity="1" stroke="none" vectornator:layerName="path"/>
<path d="M369.96 600.213C361.616 600.213 354.862 598.076 348.902 593.803C336.585 584.545 335.393 568.522 335.393 568.166C335.393 566.03 336.982 564.249 338.969 564.249C341.353 564.249 343.339 565.673 343.339 567.454C343.339 567.81 344.531 580.985 354.067 588.106C359.232 592.023 366.384 593.447 374.728 592.379C376.715 592.023 378.701 593.447 379.099 595.584C379.496 597.364 377.907 599.145 375.523 599.501C373.536 600.213 371.55 600.213 369.96 600.213ZM418.832 582.053C412.077 582.053 398.965 578.492 398.965 564.249C398.965 562.113 400.555 560.688 402.939 560.688C405.322 560.688 406.912 562.113 406.912 564.249C406.912 574.219 416.845 574.931 418.832 574.931C420.818 574.931 422.805 576.712 422.805 578.492C422.805 580.629 420.818 582.053 418.832 582.053Z" fill="#ff8a80" fill-rule="nonzero" opacity="1" stroke="none" vectornator:layerName="path"/>
<path d="M373.536 590.599C371.947 590.599 370.358 589.53 369.96 588.106C369.166 586.326 370.358 584.189 372.344 583.477C372.742 583.477 383.469 579.56 383.469 571.015C383.469 568.878 385.059 567.454 387.443 567.454C389.827 567.454 391.416 568.878 391.416 571.015C391.416 584.545 375.92 589.887 375.126 590.243C374.331 590.599 373.934 590.599 373.536 590.599ZM455.386 590.955C451.015 590.955 447.439 589.887 444.658 588.818C442.671 588.106 441.877 585.97 443.069 584.189C443.863 582.409 446.247 581.697 448.234 582.765C449.426 583.477 460.948 587.75 466.908 577.068C467.703 575.287 470.087 574.575 472.074 575.644C474.06 576.356 474.855 578.492 473.663 580.273C469.292 588.462 462.14 590.955 455.386 590.955ZM375.126 635.464C369.563 635.464 347.313 631.191 347.313 610.539C347.313 608.402 348.902 606.978 351.286 606.978C353.67 606.978 355.259 608.402 355.259 610.539C355.259 626.918 375.126 628.343 375.126 628.343C377.509 628.343 379.099 629.767 379.099 631.903C379.099 634.04 377.509 635.464 375.126 635.464ZM438.698 671.072C437.903 671.072 436.711 670.716 435.917 670.359C435.519 670.003 425.984 662.17 430.752 648.639C431.546 646.859 433.533 645.79 435.917 646.502C437.903 647.215 439.095 648.995 438.301 651.131C435.122 660.033 441.082 665.018 441.082 665.018C442.671 666.443 442.671 668.579 441.479 670.003C440.685 670.716 439.89 671.072 438.698 671.072ZM459.359 637.601C444.658 637.601 439.095 626.206 439.095 626.206C438.301 624.426 439.095 622.289 441.082 621.577C443.069 620.865 445.453 621.577 446.247 623.358C446.645 624.426 452.207 634.396 468.895 628.699C470.882 627.987 473.266 628.699 474.06 630.835C474.855 632.616 474.06 634.752 471.676 635.464C466.908 636.888 462.935 637.601 459.359 637.601Z" fill="#ff5252" fill-rule="nonzero" opacity="1" stroke="none" vectornator:layerName="path"/>
<path d="M382.277 645.078C377.112 645.078 372.742 643.654 369.563 642.23C367.576 641.517 366.782 639.381 367.974 637.601C368.768 635.82 371.152 635.108 373.139 636.176L373.139 636.176C373.536 636.532 385.853 641.873 391.813 633.684C393.005 631.903 395.389 631.547 397.376 632.616C399.363 633.684 399.76 635.82 398.568 637.601C394.197 642.942 387.84 645.078 382.277 645.078ZM347.313 673.208C342.942 673.208 338.571 672.496 333.803 670.716C331.817 670.003 330.625 667.867 331.419 666.087C332.214 664.306 334.598 663.238 336.585 663.95C354.862 670.359 367.576 658.253 367.974 657.897C369.563 656.473 371.947 656.473 373.536 657.541C375.126 658.965 375.126 661.102 373.934 662.526C369.96 667.155 360.027 673.208 347.313 673.208Z" fill="#ff5252" fill-rule="nonzero" opacity="1" stroke="none" vectornator:layerName="path"/>
<path d="M402.939 603.773C400.555 603.773 398.171 602.349 397.376 600.569C396.184 597.72 397.773 594.872 400.555 593.803C416.845 587.75 413.666 569.59 413.666 569.234C413.269 566.386 415.256 563.537 418.434 563.181C421.613 562.825 424.792 564.605 425.189 567.454C426.778 576.712 424.792 596.296 404.528 603.417C404.528 603.773 403.733 603.773 402.939 603.773ZM446.645 630.123C446.247 630.123 445.85 630.123 445.453 630.123C437.506 628.699 422.408 620.865 422.408 602.349C422.408 599.501 425.189 597.008 428.368 597.008C431.546 597.008 434.327 599.501 434.327 602.349C434.327 616.948 447.439 619.441 447.837 619.797C451.015 620.509 453.002 623.358 452.207 626.206C451.81 628.343 449.426 630.123 446.645 630.123ZM356.451 656.829C354.067 656.829 352.08 655.76 351.286 653.98C349.696 651.488 350.888 648.283 354.067 646.859C354.862 646.502 375.523 636.888 371.947 618.373C371.55 615.524 373.536 612.675 376.715 612.319C379.893 611.963 383.072 613.744 383.469 616.592C387.443 637.601 369.166 651.844 359.232 656.473C358.438 656.473 357.246 656.829 356.451 656.829ZM425.189 674.988C416.05 674.988 409.296 672.496 408.898 672.496C405.72 671.428 404.13 668.223 405.322 665.73C406.514 662.882 410.09 661.814 412.872 662.526L412.872 662.526C413.666 662.882 432.341 668.935 446.247 656.473C448.631 654.336 452.207 654.336 454.591 656.473C456.975 658.609 456.975 661.814 454.591 663.95C445.055 672.852 433.93 674.988 425.189 674.988Z" fill="#f44336" fill-rule="nonzero" opacity="1" stroke="none" vectornator:layerName="path"/>
<path d="M394.595 604.13C391.813 604.13 387.84 603.773 383.867 602.705C375.92 600.569 365.987 594.872 363.206 580.629C362.808 577.78 364.795 574.931 367.974 574.575C371.152 574.219 374.331 576 374.728 578.848C375.92 586.326 380.291 590.599 387.045 592.735C392.608 594.159 397.376 593.447 397.376 593.447C400.555 593.091 403.733 594.872 404.13 597.72C404.528 600.569 402.541 603.417 399.363 603.773C399.363 603.773 397.376 604.13 394.595 604.13ZM457.77 611.607C456.578 611.607 455.386 611.251 454.194 610.539C437.506 599.501 440.287 583.833 443.863 577.424C445.453 574.931 449.029 573.863 451.81 574.931C454.591 576.356 455.783 579.56 454.591 582.053C453.797 583.121 449.029 593.447 461.346 601.993C464.127 603.773 464.524 606.978 462.538 609.471C461.346 610.539 459.756 611.607 457.77 611.607Z" fill="#f44336" fill-rule="nonzero" opacity="1" stroke="none" vectornator:layerName="path"/>
<path d="M387.443 666.087C377.509 666.087 365.987 664.662 355.656 659.321C343.737 653.268 335.79 643.654 331.817 630.835C330.625 626.918 333.009 623.002 337.379 621.933C341.75 620.865 346.121 623.002 347.313 626.918C350.094 636.176 355.656 642.942 363.603 646.859C380.688 655.404 404.528 650.063 404.925 650.063C409.296 648.995 413.666 651.131 414.858 655.048C416.05 658.965 413.666 662.882 409.296 663.95C408.501 663.95 399.363 666.087 387.443 666.087ZM411.282 643.654C406.912 643.654 403.336 640.805 403.336 636.888C402.939 629.767 393.8 610.183 387.84 599.857C385.853 596.296 387.443 592.023 391.416 590.243C395.389 588.462 400.157 589.887 402.144 593.447C403.733 596.652 418.832 623.714 419.229 636.532C419.626 640.093 416.05 643.298 411.282 643.654C411.68 643.654 411.282 643.654 411.282 643.654Z" fill="#e53935" fill-rule="nonzero" opacity="1" stroke="none" vectornator:layerName="path"/>
<path d="M375.92 688.875L397.376 688.875C406.912 678.193 418.832 661.458 419.626 642.942C435.917 640.805 458.962 631.547 465.716 607.69C466.908 603.773 464.127 599.857 459.756 599.145C455.386 598.432 451.015 600.569 450.221 604.486C443.466 628.699 412.872 629.411 411.68 629.411L402.939 629.411L403.733 637.245C406.117 660.033 383.072 682.466 375.92 688.875Z" fill="#e53935" fill-rule="nonzero" opacity="1" stroke="none" vectornator:layerName="path"/>
<path d="M838.353 345.305L863.975 345.305L863.975 365.328L838.353 365.328L838.353 345.305Z" fill="#f8e390" fill-rule="nonzero" opacity="1" stroke="none" vectornator:layerName="path"/>
<path d="M851.164 328.815L851.164 328.815C844.118 328.815 838.353 334.115 838.353 340.593L838.353 345.305L863.975 345.305L863.975 340.593C863.975 334.115 858.338 328.815 851.164 328.815ZM877.171 445.421L825.926 445.421L832.331 365.328L870.765 365.328L877.171 445.421Z" fill="#f37778" fill-rule="nonzero" opacity="1" stroke="none" vectornator:layerName="path"/>
<path d="M874.609 441.887L828.488 441.887C826.31 441.887 824.644 440.356 824.644 438.354C824.644 436.351 826.31 434.82 828.488 434.82L874.609 434.82C876.787 434.82 878.452 436.351 878.452 438.354C878.452 440.356 876.658 441.887 874.609 441.887ZM869.484 374.75L833.612 374.75C831.434 374.75 829.769 373.219 829.769 371.217C829.769 369.215 831.434 367.683 833.612 367.683L869.484 367.683C871.662 367.683 873.328 369.215 873.328 371.217C873.328 373.219 871.534 374.75 869.484 374.75ZM827.463 426.693L874.609 410.91L872.175 385.822L829.897 399.956L827.463 426.693Z" fill="#ffffff" fill-rule="nonzero" opacity="1" stroke="none" vectornator:layerName="path"/>
<path d="M851.548 448.954C847.321 448.954 843.861 445.774 843.861 441.887L843.861 432.464C843.861 428.578 847.321 425.397 851.548 425.397C855.776 425.397 859.235 428.578 859.235 432.464L859.235 441.887C859.235 445.774 855.776 448.954 851.548 448.954ZM851.548 410.086C850.267 410.086 848.858 409.614 847.961 408.672C847.064 407.73 846.424 406.552 846.424 405.374C846.424 404.079 846.936 402.901 847.961 402.076C848.986 401.252 850.267 400.663 851.548 400.663C852.829 400.663 854.239 401.134 855.135 402.076C856.032 403.019 856.673 404.196 856.673 405.374C856.673 406.552 856.16 407.848 855.135 408.672C854.239 409.614 852.829 410.086 851.548 410.086ZM851.548 388.885C850.267 388.885 848.858 388.413 847.961 387.471C847.064 386.529 846.424 385.351 846.424 384.173C846.424 382.878 846.936 381.7 847.961 380.875C848.986 380.051 850.267 379.462 851.548 379.462C852.958 379.462 854.239 379.933 855.135 380.875C856.032 381.817 856.673 382.995 856.673 384.173C856.673 385.351 856.16 386.647 855.135 387.471C854.239 388.413 852.829 388.885 851.548 388.885Z" fill="#454b54" fill-rule="nonzero" opacity="1" stroke="none" vectornator:layerName="path"/>
<path d="M900.231 460.85L878.836 460.85L808.246 460.85L801.84 460.497L819.52 445.421L883.577 445.421L900.231 460.85Z" fill="#7ca5c6" fill-rule="nonzero" opacity="1" stroke="none" vectornator:layerName="path"/>
<path d="M894.722 450.721L886.267 442.947C885.498 442.24 884.601 441.887 883.577 441.887L880.758 441.887L874.865 368.508C876.274 367.919 877.171 366.741 877.171 365.328C877.171 363.325 875.505 361.794 873.328 361.794L870.765 361.794L867.819 361.794L867.819 348.838C869.997 348.838 871.662 347.307 871.662 345.305C871.662 343.302 869.997 341.771 867.819 341.771L867.819 340.593C867.819 333.408 862.31 327.284 855.007 325.753L855.007 322.926C855.007 320.923 853.342 319.392 851.164 319.392C848.986 319.392 847.321 320.923 847.321 322.926L847.321 325.753C840.018 327.284 834.509 333.408 834.509 340.593L834.509 341.771C832.331 341.771 830.666 343.302 830.666 345.305C830.666 347.307 832.331 348.838 834.509 348.838L834.509 361.794L832.203 361.794L829.641 361.794C827.463 361.794 825.798 363.325 825.798 365.328C825.798 366.741 826.694 368.037 828.104 368.508L822.338 441.887L819.52 441.887C818.495 441.887 817.598 442.24 816.958 442.829L808.63 449.896C807.093 451.192 806.965 453.43 808.374 454.843C809.783 456.257 812.218 456.374 813.755 455.079L820.929 448.954L825.798 448.954L877.043 448.954L877.043 448.954L881.911 448.954L889.342 455.786C890.11 456.492 891.135 456.846 892.032 456.846C892.929 456.846 893.954 456.492 894.722 455.786C896.26 454.372 896.26 452.134 894.722 450.721ZM842.196 340.593C842.196 336 846.168 332.348 851.164 332.348C856.16 332.348 860.132 336 860.132 340.593L860.132 341.771L842.196 341.771L842.196 340.593ZM842.196 348.838L860.132 348.838L860.132 361.794L842.196 361.794L842.196 348.838ZM830.025 441.887L835.918 368.861L867.178 368.861L873.071 441.887L830.025 441.887Z" fill="#454b54" fill-rule="nonzero" opacity="1" stroke="none" vectornator:layerName="path"/>
<path d="M865.256 466.622C865.128 466.622 865.128 466.622 865 466.622C860.004 466.622 855.264 464.973 851.548 462.028C847.833 464.855 843.221 466.386 838.353 466.386C833.484 466.386 828.744 464.855 825.029 462.028C821.314 464.855 816.701 466.386 811.705 466.386C806.837 466.386 802.097 464.855 798.381 462.028C794.666 464.855 790.054 466.386 785.058 466.386L785.058 466.386C778.78 466.386 772.759 463.795 768.787 459.201C767.506 457.67 767.762 455.432 769.428 454.254C771.093 453.077 773.527 453.312 774.808 454.843C777.371 457.67 781.086 459.319 785.058 459.319L785.058 459.319C789.029 459.319 792.872 457.67 795.307 454.843C796.075 454.019 797.1 453.548 798.253 453.548L798.253 453.548C799.406 453.548 800.559 454.019 801.2 454.843C803.762 457.67 807.477 459.319 811.449 459.319C815.42 459.319 819.264 457.67 821.698 454.843C822.467 454.019 823.491 453.548 824.644 453.548C825.798 453.548 826.951 454.019 827.591 454.843C830.153 457.67 833.869 459.319 837.84 459.319C841.812 459.319 845.655 457.67 848.089 454.843C848.858 454.019 849.883 453.548 851.036 453.548L851.036 453.548C852.189 453.548 853.342 454.019 853.982 454.843L854.239 455.079C856.673 457.906 860.388 459.555 864.36 459.555L864.488 459.555C868.459 459.555 872.046 458.023 874.609 455.197L875.121 454.726C875.89 453.901 876.915 453.43 878.068 453.43C879.221 453.43 880.246 453.901 881.014 454.726C883.577 457.552 887.292 459.201 891.263 459.201C893.441 459.201 895.107 460.732 895.107 462.735C895.107 464.737 893.441 466.268 891.263 466.268C886.395 466.268 881.783 464.737 878.068 461.91C875.121 464.973 870.253 466.622 865.256 466.622ZM919.064 466.386C918.039 466.386 917.014 466.033 916.374 465.326C915.733 464.619 915.221 463.795 915.221 462.853C915.221 461.91 915.605 460.968 916.374 460.379C917.783 459.084 920.345 459.084 921.754 460.379C922.523 461.086 922.907 461.91 922.907 462.853C922.907 463.795 922.523 464.737 921.754 465.326C921.114 466.033 920.089 466.386 919.064 466.386Z" fill="#454b54" fill-rule="nonzero" opacity="1" stroke="none" vectornator:layerName="path"/>
<path d="M892.032 466.386C885.626 466.386 879.733 463.795 875.762 459.201C874.481 457.67 874.737 455.432 876.402 454.254C878.068 453.077 880.502 453.312 881.783 454.843C884.345 457.67 888.061 459.319 892.032 459.319C896.004 459.319 899.847 457.67 902.281 454.843C903.562 453.312 905.996 453.077 907.662 454.254C909.327 455.432 909.584 457.67 908.302 459.201C904.331 463.677 898.438 466.386 892.032 466.386Z" fill="#454b54" fill-rule="nonzero" opacity="1" stroke="none" vectornator:layerName="path"/>
<path d="M436.488 458.022C433.563 422.602 443.192 385.668 463.058 355.725L466.836 350.015C468.786 346.986 473.783 347.802 474.636 351.297L476.22 357.938C484.264 392.659 481.705 425.748 466.47 458.022L436.488 458.022" fill="#f8e390" fill-rule="nonzero" opacity="1" stroke="none" vectornator:layerName="path"/>
<path d="M476.22 357.938L474.636 351.297C473.783 347.802 468.786 346.986 466.836 350.015L463.058 355.725C460.133 360.035 457.451 364.579 455.014 369.24C459.279 385.901 469.029 398.717 480.486 402.562C481.217 387.998 479.755 373.085 476.22 357.938" fill="#ffffff" fill-rule="nonzero" opacity="1" stroke="none" vectornator:layerName="path"/>
<path d="M455.014 369.356C440.754 396.154 434.051 427.146 436.367 457.09L436.367 457.09L436.367 457.09L436.367 457.09L436.367 457.09L436.367 457.09L436.367 457.09L436.367 457.09L436.367 457.09L436.367 457.206L436.367 457.206L436.367 457.206L436.367 457.206L436.367 457.206L436.367 457.206L436.367 457.206L436.367 457.206L436.367 457.206L436.367 457.206C436.367 457.323 436.367 457.323 436.367 457.439L436.367 457.439L436.367 457.439L436.367 457.439L436.367 457.439L436.367 457.439L436.367 457.439L436.367 457.439L436.367 457.439L436.367 457.439L436.367 457.439L436.367 457.439L458.548 457.439C464.764 432.739 465.373 407.456 460.376 382.988C458.182 379.26 456.354 374.483 455.014 369.356" fill="#e0cd83" fill-rule="nonzero" opacity="1" stroke="none" vectornator:layerName="path"/>
<path d="M456.232 367.143C455.867 367.842 455.379 368.657 455.014 369.356C456.354 374.483 458.182 379.26 460.498 383.571C459.401 377.978 457.939 372.502 456.232 367.143" fill="#e6e7e7" fill-rule="nonzero" opacity="1" stroke="none" vectornator:layerName="path"/>
<path d="M437.463 461.284C435.757 461.284 434.295 460.236 433.929 458.605L433.563 457.09C433.563 456.857 433.442 456.74 433.442 456.507C430.395 420.156 439.657 384.619 460.011 353.744L463.545 348.268C465.008 346.054 467.567 344.656 470.37 344.656C474.148 344.656 477.439 347.219 478.292 350.714L479.755 357.006C488.408 394.173 485.361 426.447 470.248 458.372C470.126 458.605 470.004 458.721 469.883 458.954C469.273 459.77 468.298 461.168 466.348 461.168L437.463 461.284L437.463 461.284ZM470.37 351.763C470.004 351.763 469.883 351.996 469.761 352.113L466.226 357.589C446.97 386.717 438.195 420.039 440.632 454.41L464.276 454.41C478.17 424.35 480.851 393.94 472.686 358.754L471.223 352.462C471.101 351.88 470.614 351.763 470.37 351.763Z" fill="#454b54" fill-rule="nonzero" opacity="1" stroke="none" vectornator:layerName="path"/>
<path d="M417.232 457.789L417.232 457.789C407.116 420.738 410.041 381.59 425.398 346.054L428.323 339.296C429.907 335.684 435.392 335.684 436.976 339.296L439.901 346.054C455.379 381.59 458.182 420.622 448.189 457.789L448.189 457.789L432.954 457.789L417.232 457.789Z" fill="#e4caa6" fill-rule="nonzero" opacity="1" stroke="none" vectornator:layerName="path"/>
<path d="M417.232 457.789L417.232 457.789C407.116 420.738 410.041 381.59 425.398 346.054L428.323 339.296C429.907 335.684 435.392 335.684 436.976 339.296L439.901 346.054C455.379 381.59 458.182 420.622 448.189 457.789L448.189 457.789L432.954 457.789L417.232 457.789Z" fill="#8eaf99" fill-rule="nonzero" opacity="1" stroke="none" vectornator:layerName="path"/>
<path d="M411.382 407.805L453.186 430.875C453.307 430.176 453.307 429.593 453.429 428.894L412.479 393.94C411.869 398.484 411.504 403.145 411.382 407.805ZM452.942 433.205L411.382 418.408C411.504 421.903 411.626 425.282 411.991 428.778L452.82 434.72C452.82 434.137 452.942 433.671 452.942 433.205ZM453.795 403.844C452.576 384.153 447.945 364.696 439.901 346.171L436.976 339.413C435.392 335.801 429.907 335.801 428.323 339.413L425.398 346.054C424.057 349.083 422.838 352.229 421.741 355.375C422.229 357.938 422.838 360.618 423.57 363.181C428.932 382.755 440.876 397.785 453.795 403.844Z" fill="#ffffff" fill-rule="nonzero" opacity="1" stroke="none" vectornator:layerName="path"/>
<path d="M478.658 461.517C477.683 461.517 476.708 461.168 476.098 460.469C475.367 459.77 475.001 458.954 475.001 458.022C475.001 457.09 475.367 456.158 476.098 455.575C477.439 454.294 479.876 454.294 481.217 455.575C481.948 456.274 482.314 457.09 482.314 458.022C482.314 458.954 481.948 459.886 481.217 460.469C480.608 461.168 479.633 461.517 478.658 461.517ZM395.294 399.3C394.929 399.3 394.563 399.183 394.076 399.067C392.125 398.484 391.15 396.504 391.76 394.64C401.876 366.094 381.644 357.356 380.791 357.006C378.963 356.191 378.11 354.21 378.841 352.462C379.572 350.714 381.766 349.899 383.594 350.598C383.838 350.714 411.016 362.016 398.707 396.853C398.341 398.368 396.879 399.3 395.294 399.3Z" fill="#454b54" fill-rule="nonzero" opacity="1" stroke="none" vectornator:layerName="path"/>
<path d="M350.688 457.789C350.688 457.789 316.684 402.446 370.066 356.191C370.066 356.191 317.781 392.775 368.116 457.906L350.688 457.789Z" fill="#e4caa6" fill-rule="nonzero" opacity="1" stroke="none" vectornator:layerName="path"/>
<path d="M466.47 454.527L452.82 454.527C461.839 417.709 458.67 379.842 443.314 344.772L440.389 338.015C439.048 335.102 436.123 333.121 432.71 333.121C429.298 333.121 426.251 334.985 425.032 338.015L422.107 344.772C406.751 379.842 403.582 417.709 412.601 454.527L370.066 454.527C350.931 429.127 345.447 405.475 353.613 384.27C356.05 377.978 359.341 372.852 362.51 368.774C365.556 365.395 368.847 362.016 372.625 358.87C374.088 357.589 374.21 355.491 372.991 354.093C371.772 352.695 369.578 352.346 367.994 353.511C367.506 353.86 361.778 357.938 355.928 365.628C337.89 386.95 335.331 408.97 336.794 424.7C338.012 437.865 342.034 448.352 344.837 454.294L335.209 454.294C333.137 454.294 331.553 455.808 331.553 457.789C331.553 459.77 333.137 461.284 335.209 461.284L350.688 461.284C350.809 461.284 350.809 461.284 350.931 461.284C351.053 461.284 351.175 461.284 351.297 461.284C351.419 461.284 351.541 461.284 351.663 461.168C351.784 461.168 351.906 461.051 352.028 461.051C352.15 461.051 352.272 460.935 352.394 460.935C352.516 460.935 352.516 460.935 352.638 460.818C352.638 460.818 352.638 460.818 352.759 460.702C352.881 460.585 353.003 460.585 353.125 460.469C353.247 460.352 353.247 460.352 353.369 460.236C353.491 460.119 353.491 460.119 353.613 460.003C353.734 459.886 353.734 459.886 353.856 459.77C353.978 459.653 353.978 459.537 353.978 459.537C353.978 459.42 354.1 459.304 354.1 459.187C354.1 459.071 354.222 458.954 354.222 458.838C354.222 458.721 354.344 458.605 354.344 458.488C354.344 458.372 354.344 458.255 354.344 458.139C354.344 458.022 354.344 457.906 354.344 457.789L354.344 457.673C354.344 457.556 354.344 457.556 354.344 457.439C354.344 457.323 354.344 457.206 354.344 457.09C354.344 456.973 354.344 456.857 354.222 456.74C354.222 456.624 354.1 456.507 354.1 456.391C354.1 456.274 353.978 456.158 353.978 456.041C353.978 455.925 353.978 455.925 353.856 455.808C353.734 455.692 345.691 442.409 343.984 423.768C343.741 420.855 343.619 417.942 343.619 415.146C346.178 429.593 353.369 444.507 365.191 459.77C365.922 460.702 367.019 461.168 368.116 461.168C368.238 461.168 368.36 461.168 368.481 461.168C368.603 461.168 368.725 461.168 368.847 461.168L466.348 461.168C468.42 461.168 470.004 459.653 470.004 457.673C470.004 455.692 468.542 454.527 466.47 454.527ZM445.385 454.294L436.61 454.294L436.61 393.591C436.61 391.61 435.026 390.096 432.954 390.096C430.882 390.096 429.298 391.61 429.298 393.591L429.298 454.294L420.035 454.294C410.894 418.524 413.941 381.59 428.81 347.452L431.735 340.694C431.979 340.228 432.467 340.112 432.71 340.112C432.954 340.112 433.442 340.228 433.685 340.694L436.61 347.452C451.479 381.59 454.526 418.524 445.385 454.294Z" fill="#454b54" fill-rule="nonzero" opacity="1" stroke="none" vectornator:layerName="path"/>
<path d="M406.751 354.676C405.532 354.676 404.313 354.093 403.704 353.045C397.122 342.908 385.179 347.802 384.691 348.035C382.863 348.85 380.669 348.035 379.816 346.287C378.963 344.539 379.816 342.442 381.644 341.627C387.86 338.947 401.876 337.199 409.798 349.316C410.894 350.948 410.285 353.161 408.579 354.093C408.091 354.443 407.36 354.676 406.751 354.676ZM369.7 344.423C368.725 344.423 367.75 344.073 367.019 343.374C366.653 343.025 358.244 334.869 345.325 342.559C343.619 343.607 341.303 343.025 340.328 341.394C339.353 339.762 339.841 337.549 341.547 336.617C356.05 328.111 368.116 334.17 372.503 338.714C373.844 340.112 373.844 342.326 372.26 343.607C371.407 344.19 370.553 344.423 369.7 344.423ZM338.378 371.337C338.134 371.337 337.89 371.337 337.647 371.221C335.697 370.871 334.356 369.007 334.722 367.143C337.769 351.88 351.906 346.87 358.853 346.404C360.925 346.287 362.631 347.685 362.753 349.666C362.875 351.53 361.413 353.278 359.341 353.394C358.731 353.394 344.594 354.676 341.912 368.424C341.669 370.172 340.084 371.337 338.378 371.337Z" fill="#454b54" fill-rule="nonzero" opacity="1" stroke="none" vectornator:layerName="path"/>
<path d="M696.541 353.315C694.461 350.903 690.675 350.503 688.059 352.44L669.702 368.707L649.064 356.153L623.834 344.516C623.009 344.139 622.148 343.933 621.287 343.832C621.307 343.795 621.343 343.739 621.343 343.739L562.555 343.746C559.227 343.967 556.724 346.652 556.962 349.737C557.191 352.694 559.839 354.953 562.973 354.953C563.118 354.953 563.263 354.953 563.408 354.938L608.443 358.625L597.196 384.869L583.753 414.141C582.264 416.916 583.471 420.285 586.453 421.672C587.322 422.072 588.239 422.263 589.149 422.263C591.362 422.263 593.494 421.123 594.553 419.167L614.925 392.594L614.941 392.602L591.675 451.797C590.34 454.639 591.732 457.945 594.782 459.186C595.571 459.508 596.391 459.654 597.2 459.654C599.526 459.654 601.743 458.397 602.733 456.296L631.331 399.737L646.738 372.054L667.091 380.333C668.048 380.867 669.123 381.129 670.193 381.129C671.533 381.129 672.869 380.722 673.968 379.903L695.6 361.205C698.203 359.257 698.626 355.738 696.541 353.315ZM639.451 313.816C647.229 313.816 653.534 319.671 653.534 326.904C653.534 334.136 647.229 339.992 639.451 339.992C631.673 339.992 625.367 334.136 625.367 326.904C625.367 319.671 631.677 313.816 639.451 313.816" fill="#ffba57" fill-rule="nonzero" opacity="1" stroke="none" vectornator:layerName="path"/>
<path d="M667.155 367.155L649.064 356.15L623.834 344.513C623.009 344.135 622.148 343.929 621.287 343.828C621.307 343.791 621.343 343.735 621.343 343.735L597.269 343.739L597.269 357.709L608.447 358.625L597.2 384.869L631.331 399.74L646.738 372.057L661.329 377.992L667.155 367.155Z" fill="#ff754c" fill-rule="nonzero" opacity="1" stroke="none" vectornator:layerName="path"/>
<path d="M597.204 384.865L586.601 407.952L598.806 413.625L614.929 392.591L597.204 384.865ZM631.331 399.737L614.95 392.598L605.562 416.482L620.076 422.263L631.331 399.737Z" fill="#7e8ccf" fill-rule="nonzero" opacity="1" stroke="none" vectornator:layerName="path"/>
<path d="M705.913 455.933C701.386 455.933 697.99 454.882 695.515 453.566C692.023 451.711 687.612 451.711 684.12 453.566C681.645 454.882 678.249 455.933 673.722 455.933C669.195 455.933 665.799 454.882 663.324 453.566C659.832 451.711 655.422 451.711 651.929 453.566C649.454 454.882 646.058 455.933 641.531 455.933C637.004 455.933 633.608 454.882 631.133 453.566C627.641 451.711 623.231 451.711 619.738 453.566C617.263 454.882 613.867 455.933 609.34 455.933C604.813 455.933 601.417 454.882 598.943 453.566C595.45 451.711 591.04 451.711 587.547 453.566C585.072 454.882 581.676 455.933 577.149 455.933C572.623 455.933 569.226 454.882 566.752 453.566C563.259 451.711 558.849 451.711 555.356 453.566C552.881 454.882 549.485 455.933 544.958 455.933L544.958 470.891L705.913 470.891L705.913 455.933Z" fill="#e5d9c5" fill-rule="nonzero" opacity="1" stroke="none" vectornator:layerName="path"/>
<path d="M647.499 429.738C655.277 429.738 661.582 435.594 661.582 442.826C661.582 450.058 655.277 455.914 647.499 455.914C639.716 455.914 633.415 450.058 633.415 442.826C633.415 435.594 639.72 429.738 647.499 429.738" fill="#455a64" fill-rule="nonzero" opacity="1" stroke="none" vectornator:layerName="path"/>
<path d="M207.337 823.947C199.469 824.149 193.294 829.421 193.551 835.72C193.803 842.019 200.389 846.962 208.258 846.756C216.127 846.554 222.301 841.282 222.045 834.983C221.792 828.684 215.206 823.742 207.337 823.947" fill="#ffba57" fill-rule="nonzero" opacity="1" stroke="none" vectornator:layerName="path"/>
<path d="M175.215 892.407C173.651 892.407 172.087 891.931 170.894 890.976C168.507 889.065 168.507 885.971 170.894 884.061L208.25 854.157L230.198 845.371L230.198 799.488C230.198 796.789 232.935 794.598 236.308 794.598C239.68 794.598 242.417 796.789 242.417 799.488L242.417 851.415L215.491 862.194L179.536 890.976C178.343 891.931 176.779 892.407 175.215 892.407ZM134.026 823.947C126.157 824.149 119.983 829.421 120.239 835.72C120.496 842.019 127.078 846.962 134.946 846.756C142.815 846.554 148.99 841.282 148.733 834.983C148.481 828.684 141.895 823.742 134.026 823.947" fill="#ffba57" fill-rule="nonzero" opacity="1" stroke="none" vectornator:layerName="path"/>
<path d="M101.903 892.407C100.339 892.407 98.7754 891.931 97.5821 890.976C95.1954 889.065 95.1954 885.971 97.5821 884.061L134.938 854.157L156.887 845.371L156.887 799.488C156.887 796.789 159.624 794.598 162.996 794.598C166.369 794.598 169.106 796.789 169.106 799.488L169.106 851.415L142.18 862.194L106.225 890.976C105.031 891.931 103.467 892.407 101.903 892.407Z" fill="#ffba57" fill-rule="nonzero" opacity="1" stroke="none" vectornator:layerName="path"/>
<path d="M242.417 846.763L230.198 845.371L208.25 854.154L202.283 858.93C202.088 859.227 201.688 859.419 201.208 859.765C205.623 860.58 209.834 863.064 209.834 863.064C209.834 863.064 227.392 871.29 209.834 898.928L242.417 898.928C261.079 874.169 242.417 846.763 242.417 846.763ZM169.106 846.763L156.887 845.371L134.938 854.154L128.972 858.93C128.776 859.227 128.377 859.419 127.896 859.765C132.311 860.58 136.523 863.064 136.523 863.064C136.523 863.064 154.081 871.29 136.523 898.928L169.106 898.928C187.767 874.169 169.106 846.763 169.106 846.763Z" fill="#ff754c" fill-rule="nonzero" opacity="1" stroke="none" vectornator:layerName="path"/>
<path d="M258.708 882.626C246.49 882.626 242.417 876.106 242.417 876.106C242.417 876.106 238.344 882.626 226.126 882.626C213.907 882.626 209.834 876.106 209.834 876.106C209.834 876.106 205.761 882.626 193.543 882.626C181.324 882.626 177.251 876.106 177.251 876.106C177.251 876.106 173.178 882.626 160.96 882.626C148.741 882.626 144.668 876.106 144.668 876.106C144.668 876.106 140.596 882.626 128.377 882.626C116.158 882.626 112.086 876.106 112.086 876.106C112.086 876.106 108.013 882.626 95.7941 882.626L95.7941 908.709L258.708 908.709L258.708 882.626Z" fill="#7e8ccf" fill-rule="nonzero" opacity="1" stroke="none" vectornator:layerName="path"/>
<path d="M258.708 889.147C246.49 889.147 242.417 882.626 242.417 882.626C242.417 882.626 238.344 889.147 226.126 889.147C213.907 889.147 209.834 882.626 209.834 882.626C209.834 882.626 205.761 889.147 193.543 889.147C181.324 889.147 177.251 882.626 177.251 882.626C177.251 882.626 173.178 889.147 160.96 889.147C148.741 889.147 144.668 882.626 144.668 882.626C144.668 882.626 140.596 889.147 128.377 889.147C116.158 889.147 112.086 882.626 112.086 882.626C112.086 882.626 108.013 889.147 95.7941 889.147L95.7941 908.709L258.708 908.709L258.708 889.147Z" fill="#c5cae9" fill-rule="nonzero" opacity="1" stroke="none" vectornator:layerName="path"/>
<path d="M229.926 466.556C228.527 466.556 227.396 465.523 227.396 464.251L227.396 362.837C227.396 361.565 228.527 360.532 229.926 360.532C231.324 360.532 232.455 361.565 232.455 362.837L232.455 464.251C232.455 465.523 231.324 466.556 229.926 466.556Z" fill="#986ca1" fill-rule="nonzero" opacity="1" stroke="none" vectornator:layerName="path"/>
<path d="M186.928 337.483C179.944 337.483 174.282 342.643 174.282 349.008C174.282 355.372 179.944 360.532 186.928 360.532C193.913 360.532 199.575 355.372 199.575 349.008C199.575 342.643 193.913 337.483 186.928 337.483ZM193.115 402.388L195.356 389.384C195.553 388.241 197.033 387.718 198.024 388.442L202.868 391.973C205.549 393.927 209.13 394.508 212.388 393.519L229.926 388.19C234.117 386.918 236.38 382.79 234.984 378.971L234.984 378.971C233.588 375.152 229.058 373.089 224.867 374.361L212.302 378.178C210.673 378.674 208.882 378.381 207.542 377.404L201.924 372.008C200.399 370.544 198.391 369.576 196.203 369.254L175.21 366.151C169.773 365.349 164.631 368.657 163.639 373.594L159.772 401.785C159.329 405.011 159.107 408.259 159.107 411.511L159.107 438.898L148.838 452.934C146.129 456.638 147.227 461.644 151.291 464.113L151.291 464.113C155.53 466.687 161.272 465.477 163.839 461.467L176.811 441.202L176.811 418.154L186.928 436.593L194.754 461.548C196.003 465.533 200.647 467.766 204.964 466.455L204.964 466.455C209.024 465.222 211.295 461.294 210.122 457.546L202.104 431.983L194.688 415.086C192.92 411.059 192.376 406.673 193.115 402.388Z" fill="#faefde" fill-rule="nonzero" opacity="1" stroke="none" vectornator:layerName="path"/>
<path d="M194.688 415.086C193.456 412.279 192.857 409.292 192.834 406.291C181.632 406.45 170.453 407.196 159.248 407.353C159.167 408.738 159.107 410.124 159.107 411.511L159.107 429.157C164.878 428.242 171.194 428.811 176.811 429.459L176.811 418.154L183.812 430.914C188.835 428.597 193.034 424.912 198.581 423.96L194.688 415.086Z" fill="#f283a5" fill-rule="nonzero" opacity="1" stroke="none" vectornator:layerName="path"/>
<path d="M209.909 378.346C209.057 378.222 208.237 377.911 207.542 377.404L201.924 372.008C200.399 370.544 198.391 369.576 196.203 369.254L175.21 366.151C169.773 365.347 164.631 368.657 163.639 373.594L159.772 401.785C159.577 403.209 159.441 404.638 159.332 406.067C162.486 405.306 165.766 405.562 169.35 405.631C177.021 405.781 184.566 405.272 192.177 406.247C192.184 406.247 192.189 406.244 192.197 406.244C192.197 406.247 192.197 406.247 192.197 406.249C192.409 406.277 192.622 406.295 192.837 406.323C192.824 405.009 192.89 403.695 193.115 402.388L195.796 386.819L202.865 391.973C204.782 393.372 207.165 394.052 209.558 393.973C209.054 388.824 210.005 383.482 209.909 378.346Z" fill="#85cbf8" fill-rule="nonzero" opacity="1" stroke="none" vectornator:layerName="path"/>
<path d="M157.999 369.751L152.521 369.751C148.901 369.751 145.689 371.863 144.543 374.99L135.671 399.245C133.513 405.145 138.334 411.239 145.158 411.239L152.083 411.239C156.082 411.239 159.438 408.501 159.881 404.88L163.482 375.338C163.847 372.358 161.287 369.751 157.999 369.751Z" fill="#72caaf" fill-rule="nonzero" opacity="1" stroke="none" vectornator:layerName="path"/>
<path d="M186.928 362.837C178.559 362.837 171.753 356.634 171.753 349.008C171.753 341.381 178.559 335.178 186.928 335.178C195.298 335.178 202.104 341.381 202.104 349.008C202.104 356.634 195.298 362.837 186.928 362.837ZM186.928 339.788C181.349 339.788 176.811 343.923 176.811 349.008C176.811 354.092 181.349 358.227 186.928 358.227C192.508 358.227 197.045 354.092 197.045 349.008C197.045 343.923 192.508 339.788 186.928 339.788ZM202.42 469.142C200.738 469.142 199.069 468.769 197.528 468.029C194.964 466.796 193.117 464.719 192.318 462.181L184.561 437.432L179.341 427.917L179.341 440.58C179.341 441.396 179.103 442.196 178.655 442.899L166.024 462.631C164.454 465.088 161.805 466.865 158.765 467.506C155.728 468.149 152.493 467.612 149.89 466.031C147.361 464.495 145.641 462.154 145.044 459.439C144.45 456.723 145.049 453.96 146.736 451.655L156.577 438.199L156.577 411.511C156.577 408.178 156.808 404.811 157.263 401.499L161.13 373.308C162.38 367.055 168.852 362.885 175.618 363.876L196.613 366.979C199.327 367.38 201.866 368.604 203.761 370.422L209.239 375.684C209.896 376.113 210.729 376.233 211.505 375.991L224.07 372.174C229.594 370.503 235.551 373.225 237.387 378.24C238.28 380.672 238.075 383.272 236.818 385.565C235.558 387.859 233.396 389.566 230.73 390.375L213.187 395.704C209.095 396.947 204.648 396.221 201.287 393.771L197.622 391.097L195.616 402.743C194.949 406.618 195.444 410.587 197.038 414.229L204.456 431.126C204.489 431.199 204.514 431.273 204.54 431.349L212.555 456.912C214.105 461.863 211.126 467.015 205.764 468.642C204.666 468.976 203.538 469.142 202.42 469.142ZM176.811 415.849C177.752 415.849 178.64 416.328 179.075 417.123L189.192 435.562C189.26 435.689 189.319 435.823 189.362 435.959L197.187 460.914C197.599 462.232 198.56 463.311 199.888 463.949C201.219 464.59 202.739 464.705 204.16 464.267C206.945 463.424 208.493 460.748 207.686 458.178L199.709 432.727L192.338 415.941C190.404 411.532 189.809 406.722 190.614 402.031L190.614 402.031L193.297 386.462C193.439 385.65 194.041 384.968 194.883 384.671C195.72 384.374 196.671 384.507 197.377 385.019L204.446 390.173C206.464 391.645 209.135 392.076 211.583 391.332L229.126 386.003C230.512 385.581 231.635 384.694 232.29 383.505C232.943 382.313 233.049 380.962 232.586 379.702C231.628 377.095 228.519 375.68 225.669 376.549L213.104 380.365C210.655 381.11 207.987 380.681 205.964 379.206C205.875 379.139 205.789 379.068 205.708 378.994L200.088 373.598C198.952 372.506 197.427 371.773 195.801 371.533L174.806 368.431C170.741 367.829 166.861 370.337 166.125 374.011L162.278 402.073C161.853 405.193 161.636 408.37 161.636 411.511L161.636 438.898C161.636 439.352 161.487 439.799 161.211 440.177L150.942 454.213C150.006 455.493 149.673 457.028 150.004 458.535C150.335 460.042 151.289 461.342 152.693 462.195C154.154 463.085 155.907 463.375 157.62 463.013C159.334 462.652 160.766 461.69 161.654 460.308L174.282 440.58L174.282 418.154C174.282 417.084 175.089 416.155 176.232 415.911C176.424 415.87 176.619 415.849 176.811 415.849Z" fill="#986ca1" fill-rule="nonzero" opacity="1" stroke="none" vectornator:layerName="path"/>
<path d="M152.313 413.544L145.322 413.544C141.207 413.544 137.469 411.799 135.061 408.759C132.656 405.717 132.024 401.932 133.324 398.376L142.333 373.75C143.711 369.98 147.568 367.447 151.929 367.447L158.515 367.447C160.672 367.447 162.731 368.286 164.168 369.751C165.604 371.215 166.292 373.174 166.055 375.126L162.372 405.343C161.8 410.018 157.475 413.544 152.313 413.544ZM151.929 372.056C149.748 372.056 147.821 373.322 147.131 375.207L138.122 399.832C137.34 401.967 137.722 404.237 139.166 406.062C140.61 407.888 142.854 408.934 145.322 408.934L152.316 408.934C154.898 408.934 157.061 407.171 157.344 404.834L161.026 374.617C161.107 373.956 160.882 373.322 160.399 372.826C159.911 372.328 159.243 372.056 158.515 372.056L151.929 372.056ZM174.282 431.983L159.107 431.983C157.708 431.983 156.577 430.95 156.577 429.678C156.577 428.406 157.708 427.373 159.107 427.373L174.282 427.373C175.681 427.373 176.811 428.406 176.811 429.678C176.811 430.95 175.681 431.983 174.282 431.983ZM184.399 431.983C183.398 431.983 182.447 431.434 182.049 430.533C181.531 429.351 182.163 428.009 183.461 427.537L196.107 422.927C197.392 422.457 198.877 423.029 199.395 424.211C199.914 425.393 199.281 426.735 197.984 427.207L185.338 431.817C185.031 431.93 184.713 431.983 184.399 431.983Z" fill="#986ca1" fill-rule="nonzero" opacity="1" stroke="none" vectornator:layerName="path"/>
<path d="M191.987 408.934L161.636 408.934C160.237 408.934 159.107 407.902 159.107 406.629C159.107 405.357 160.237 404.325 161.636 404.325L191.987 404.325C193.386 404.325 194.516 405.357 194.516 406.629C194.516 407.902 193.386 408.934 191.987 408.934ZM209.692 395.105C208.293 395.105 207.162 394.072 207.162 392.8L207.162 378.971C207.162 377.699 208.293 376.666 209.692 376.666C211.09 376.666 212.221 377.699 212.221 378.971L212.221 392.8C212.221 394.072 211.09 395.105 209.692 395.105Z" fill="#986ca1" fill-rule="nonzero" opacity="1" stroke="none" vectornator:layerName="path"/>
<path d="M204.633 411.239C203.234 411.239 202.104 410.207 202.104 408.934L202.104 404.325C202.104 403.052 203.234 402.02 204.633 402.02C206.032 402.02 207.162 403.052 207.162 404.325L207.162 408.934C207.162 410.207 206.032 411.239 204.633 411.239Z" fill="#986ca1" fill-rule="nonzero" opacity="1" stroke="none" vectornator:layerName="path"/>
<path d="M217.279 411.239C215.881 411.239 214.75 410.207 214.75 408.934L214.75 404.325C214.75 403.052 215.881 402.02 217.279 402.02C218.678 402.02 219.809 403.052 219.809 404.325L219.809 408.934C219.809 410.207 218.678 411.239 217.279 411.239Z" fill="#986ca1" fill-rule="nonzero" opacity="1" stroke="none" vectornator:layerName="path"/>
<path d="M242.572 411.239C241.173 411.239 240.043 410.207 240.043 408.934L240.043 404.325C240.043 403.052 241.173 402.02 242.572 402.02C243.97 402.02 245.101 403.052 245.101 404.325L245.101 408.934C245.101 410.207 243.97 411.239 242.572 411.239Z" fill="#986ca1" fill-rule="nonzero" opacity="1" stroke="none" vectornator:layerName="path"/>
<path d="M255.218 411.239C253.819 411.239 252.689 410.207 252.689 408.934L252.689 404.325C252.689 403.052 253.819 402.02 255.218 402.02C256.617 402.02 257.747 403.052 257.747 404.325L257.747 408.934C257.747 410.207 256.617 411.239 255.218 411.239Z" fill="#986ca1" fill-rule="nonzero" opacity="1" stroke="none" vectornator:layerName="path"/>
<path d="M111.051 411.239C109.652 411.239 108.522 410.207 108.522 408.934L108.522 404.325C108.522 403.052 109.652 402.02 111.051 402.02C112.45 402.02 113.58 403.052 113.58 404.325L113.58 408.934C113.58 410.207 112.45 411.239 111.051 411.239Z" fill="#986ca1" fill-rule="nonzero" opacity="1" stroke="none" vectornator:layerName="path"/>
<path d="M123.697 411.239C122.299 411.239 121.168 410.207 121.168 408.934L121.168 404.325C121.168 403.052 122.299 402.02 123.697 402.02C125.096 402.02 126.227 403.052 126.227 404.325L126.227 408.934C126.227 410.207 125.096 411.239 123.697 411.239Z" fill="#986ca1" fill-rule="nonzero" opacity="1" stroke="none" vectornator:layerName="path"/>
<path d="M230.388 688.982L211.388 653.982L176.388 653.982L156.388 688.982L205.988 688.982L217.388 691.982L230.388 691.982L230.388 688.982Z" fill="#ffffff" fill-rule="nonzero" opacity="1" stroke="none" vectornator:layerName="path"/>
<path d="M116.388 690.02C115.588 690.02 114.788 689.72 114.288 689.12C114.188 689.02 113.988 688.82 113.888 688.72C113.788 688.52 113.688 688.42 113.588 688.22C113.488 688.02 113.488 687.82 113.388 687.62C113.388 687.42 113.288 687.22 113.288 687.02C113.288 686.22 113.588 685.42 114.188 684.92C114.888 684.22 115.888 683.92 116.888 684.12C117.088 684.12 117.288 684.22 117.488 684.32C117.688 684.42 117.888 684.52 117.988 684.62C118.188 684.72 118.288 684.82 118.388 685.02C118.988 685.62 119.288 686.32 119.288 687.12C119.288 687.32 119.288 687.52 119.188 687.72C119.188 687.92 119.088 688.12 118.988 688.32C118.888 688.52 118.788 688.72 118.688 688.82C118.588 689.02 118.488 689.12 118.288 689.22C118.188 689.32 117.988 689.52 117.888 689.62C117.688 689.72 117.588 689.82 117.388 689.92C117.188 690.02 116.988 690.02 116.788 690.12C116.788 690.02 116.588 690.02 116.388 690.02ZM232.988 685.62L213.988 650.62C213.488 649.62 212.488 649.02 211.388 649.02L176.388 649.02C175.288 649.02 174.288 649.62 173.788 650.52L154.688 684.02L147.688 684.02L147.688 629.82C150.988 634.82 155.588 638.92 161.188 641.72C161.588 641.92 162.088 642.02 162.488 642.02C163.588 642.02 164.688 641.42 165.188 640.32C165.888 638.82 165.288 637.02 163.888 636.32C153.888 631.32 147.688 621.22 147.688 610.02L147.688 604.12C151.888 611.22 158.088 617.22 165.888 621.02C166.288 621.22 166.788 621.32 167.188 621.32C168.288 621.32 169.388 620.72 169.888 619.62C170.588 618.12 169.988 616.32 168.588 615.62C156.688 609.72 148.988 598.22 147.888 585.12C150.588 588.72 154.188 591.72 158.388 593.82C158.788 594.02 159.288 594.12 159.688 594.12C160.788 594.12 161.888 593.52 162.388 592.42C163.088 590.92 162.488 589.12 161.088 588.42C152.688 584.52 147.588 576.22 147.588 567.02C147.588 565.32 146.288 564.02 144.588 564.02C142.888 564.02 141.588 565.32 141.588 567.02C141.588 576.22 136.488 584.52 128.288 588.62C126.788 589.32 126.188 591.12 126.988 592.62C127.488 593.72 128.588 594.32 129.688 594.32C130.188 594.32 130.588 594.22 130.988 594.02C135.188 591.92 138.788 588.92 141.488 585.32C140.388 598.32 132.688 609.82 120.788 615.82C119.288 616.52 118.688 618.32 119.488 619.82C119.988 620.92 121.088 621.52 122.188 621.52C122.688 621.52 123.088 621.42 123.488 621.22C131.288 617.32 137.488 611.42 141.688 604.32L141.688 610.02C141.688 621.22 135.488 631.32 125.488 636.32C123.988 637.02 123.388 638.82 124.188 640.32C124.888 641.82 126.688 642.42 128.188 641.62C133.788 638.82 138.388 634.72 141.688 629.72L141.688 684.02L131.388 684.02C129.688 684.02 128.388 685.32 128.388 687.02C128.388 688.72 129.688 690.02 131.388 690.02L194.388 690.02L194.388 690.02L194.388 690.02L217.388 690.02C219.088 690.02 220.388 688.72 220.388 687.02C220.388 685.32 219.088 684.02 217.388 684.02L209.388 684.02L209.388 664.02C209.388 662.62 208.488 661.42 207.088 661.12C205.788 660.82 204.388 661.42 203.688 662.62L192.588 684.02L161.588 684.02L178.188 655.02L209.688 655.02L227.788 688.42C228.288 689.42 229.388 690.02 230.388 690.02C230.888 690.02 231.388 689.92 231.788 689.62C233.288 688.82 233.788 687.02 232.988 685.62Z" fill="#444b54" fill-rule="nonzero" opacity="1" stroke="none" vectornator:layerName="path"/>
<path d="M844.472 807.382L851.221 807.382L851.221 900.248L844.472 900.248L844.472 807.382Z" fill="#cfd8dc" fill-rule="nonzero" opacity="1" stroke="none" vectornator:layerName="path"/>
<path d="M844.472 807.382L851.221 807.382L851.221 841.433L844.472 841.433L844.472 807.382Z" fill="#b0bec5" fill-rule="nonzero" opacity="1" stroke="none" vectornator:layerName="path"/>
<path d="M902.009 885.748L895.26 867.175L901.661 865.216L908.41 883.789L902.009 885.748ZM800.606 884.77L800.606 900.248L810.729 900.248L810.729 884.77L800.606 884.77ZM898.462 884.77L898.462 900.248L908.585 900.248L908.585 884.77L898.462 884.77Z" fill="#5d4037" fill-rule="nonzero" opacity="1" stroke="none" vectornator:layerName="path"/>
<path d="M790.483 819.764L847.847 783.391L905.211 819.764L871.467 829.05L824.226 829.05L790.483 819.764Z" fill="#00bcd4" fill-rule="nonzero" opacity="1" stroke="none" vectornator:layerName="path"/>
<path d="M824.226 829.05L847.847 783.391L871.467 829.05L824.226 829.05Z" fill="#80deea" fill-rule="nonzero" opacity="1" stroke="none" vectornator:layerName="path"/>
<path d="M851.221 785.713L844.472 785.713L844.472 782.617C844.472 780.909 845.984 779.522 847.847 779.522L847.847 779.522C849.709 779.522 851.221 780.909 851.221 782.617L851.221 785.713Z" fill="#00838f" fill-rule="nonzero" opacity="1" stroke="none" vectornator:layerName="path"/>
<path d="M886.314 848.243C882.96 844.141 876.62 843.312 872.142 846.382L851.896 860.312C851.376 860.671 850.914 861.074 850.492 861.498L834.268 848.741C832.261 847.153 829.261 847.265 827.395 848.983L810.523 864.46C808.546 866.274 808.546 869.212 810.523 871.026C812.5 872.84 815.703 872.84 817.68 871.026L831.238 858.588L849.767 873.156C849.807 873.205 849.827 873.261 849.871 873.313C851.859 875.747 854.899 877.028 857.977 877.028C860.089 877.028 862.221 876.424 864.04 875.171L884.286 861.241C888.761 858.167 889.668 852.344 886.314 848.243Z" fill="#ff9800" fill-rule="nonzero" opacity="1" stroke="none" vectornator:layerName="path"/>
<path d="M918.31 853.815L911.895 846.825C909.55 844.166 905.302 843.757 902.403 845.909L865.562 872.388L797.231 872.388C793.503 872.388 790.483 875.158 790.483 878.579L790.483 884.77L871.467 884.77L878.83 881.675L918.31 853.815Z" fill="#ffe0b2" fill-rule="nonzero" opacity="1" stroke="none" vectornator:layerName="path"/>
<path d="M879.758 881.675L918.654 854.168L914.342 849.407L868.7 881.675L790.483 881.675L790.483 887.866L918.708 887.866L918.708 881.675L879.758 881.675Z" fill="#8d6e63" fill-rule="nonzero" opacity="1" stroke="none" vectornator:layerName="path"/>
<path d="M847.847 863.101L847.847 872.388L865.562 872.388L856.863 857.056L847.847 863.101Z" fill="#3f51b5" fill-rule="nonzero" opacity="1" stroke="none" vectornator:layerName="path"/>
<path d="M895.088 829.05C900.679 829.05 905.211 833.208 905.211 838.337C905.211 843.463 900.679 847.624 895.088 847.624C889.496 847.624 884.965 843.463 884.965 838.337C884.965 833.208 889.496 829.05 895.088 829.05M867.303 871.373L883.065 859.811C885.248 858.207 885.602 855.288 883.854 853.285C882.107 851.286 878.925 850.961 876.741 852.564L865.036 861.17L860.494 855.935C858.945 853.802 855.803 853.22 853.475 854.647C851.15 856.071 850.523 858.953 852.071 861.086L859.93 870.326C860.717 871.41 861.965 872.14 863.365 872.338C863.625 872.376 863.882 872.394 864.141 872.394C865.282 872.391 866.399 872.038 867.303 871.373ZM847.847 863.101L802.293 863.101C799.509 863.101 797.231 865.191 797.231 867.745C797.231 870.298 799.509 872.388 802.293 872.388L847.847 872.388L847.847 863.101Z" fill="#ffb74d" fill-rule="nonzero" opacity="1" stroke="none" vectornator:layerName="path"/>
<path d="M359.112 884.504C348.934 878.862 344.555 867.843 348.545 857.914C352.534 847.985 363.84 841.765 375.828 842.905C387.815 844.044 397.321 852.242 398.767 862.688L393.761 881.245L359.112 884.504ZM463.527 830.847L465.005 832.16C470.601 837.198 479.029 838.962 486.635 836.686L486.635 836.686C487.029 836.561 487.268 836.211 487.205 835.849C482.345 809.421 460.144 787.952 430.515 781.026C400.885 774.101 369.358 783.012 350.009 803.781C349.744 804.065 349.744 804.471 350.009 804.754L350.009 804.754C355.268 810.042 363.55 812.21 371.276 810.322L373.299 809.824" fill="#9fddff" fill-rule="nonzero" opacity="1" stroke="none" vectornator:layerName="path"/>
<path d="M481.941 906.138L331.517 906.138C328.653 906.138 326.33 904.112 326.33 901.612L326.33 884.911C326.329 883.498 327.084 882.166 328.371 881.309C329.659 880.452 331.331 880.169 332.892 880.544L347.701 884.074C352.379 885.186 357.321 885.131 361.965 883.915L374.933 880.544C378.824 879.524 382.972 879.524 386.863 880.544L399.389 883.825C404.253 885.099 409.438 885.099 414.302 883.825L426.829 880.544C430.72 879.524 434.868 879.524 438.759 880.544L451.726 883.915C456.371 885.131 461.312 885.186 465.991 884.074L480.799 880.544C482.328 880.243 483.93 880.561 485.159 881.409C486.387 882.257 487.111 883.544 487.128 884.911L487.128 901.612C487.128 904.112 484.805 906.138 481.941 906.138Z" fill="#f9e3ae" fill-rule="nonzero" opacity="1" stroke="none" vectornator:layerName="path"/>
<path d="M336.704 894.823L476.754 894.823C482.483 894.823 487.128 898.876 487.128 903.875L487.128 903.875C487.128 905.125 485.966 906.138 484.534 906.138L328.924 906.138C327.491 906.138 326.33 905.125 326.33 903.875L326.33 903.875C326.33 898.876 330.975 894.823 336.704 894.823Z" fill="#f6d397" fill-rule="nonzero" opacity="1" stroke="none" vectornator:layerName="path"/>
<path d="M438.499 824.986C442.234 801.043 439.511 783.052 430.537 780.947C421.564 778.843 408.882 793.236 398.404 815.617L402.372 820.799C408.878 829.28 421.572 832.25 432.067 827.747L438.499 824.986Z" fill="#9fddff" fill-rule="nonzero" opacity="1" stroke="none" vectornator:layerName="path"/>
<path d="M438.499 824.986L439.9 827.091C441.962 830.213 445.362 832.492 449.351 833.426C453.34 834.36 457.59 833.872 461.167 832.069L463.579 830.847C463.086 805.954 450.741 785.587 430.563 781.061L438.188 790.113L438.499 824.986ZM398.404 815.617L395.992 816.839C392.416 818.642 388.165 819.13 384.176 818.196C380.187 817.262 376.787 814.983 374.725 811.86L373.325 809.756C377.399 803.748 382.38 798.245 388.134 793.394C388.134 793.394 399.778 782.441 422.679 779.816L398.404 815.617Z" fill="#ed7899" fill-rule="nonzero" opacity="1" stroke="none" vectornator:layerName="path"/>
<path d="M393.2 880.515L409.062 828.534L417.232 830.432L401.37 882.413L393.2 880.515Z" fill="#faefde" fill-rule="nonzero" opacity="1" stroke="none" vectornator:layerName="path"/>
<path d="M373.013 842.773L380.794 856.352L393.761 858.615L396.355 860.878L393.761 849.563L375.944 842.773L373.013 842.773ZM347.078 872.193L354.859 883.508L370.42 883.508L378.2 876.719L378.2 856.352L360.046 860.878L347.078 872.193Z" fill="#cce7fc" fill-rule="nonzero" opacity="1" stroke="none" vectornator:layerName="path"/>
<path d="M397.418 789.66C398.922 788.732 400.479 787.872 402.035 787.103C403.281 786.478 403.71 785.09 402.994 784.002C402.278 782.915 400.687 782.54 399.441 783.165C397.729 784.002 396.044 784.953 394.254 785.971C393.202 786.723 392.994 788.057 393.778 789.027C394.562 789.996 396.072 790.273 397.237 789.66L397.418 789.66Z" fill="#8d6c9f" fill-rule="nonzero" opacity="1" stroke="none" vectornator:layerName="path"/>
<path d="M486.661 879.503C484.734 878.219 482.231 877.792 479.892 878.348L465.083 881.879C460.832 882.903 456.336 882.856 452.115 881.743L439.148 878.371C434.774 877.227 430.113 877.227 425.739 878.371L413.213 881.652C410.345 882.386 407.343 882.631 404.369 882.377C404.429 882.282 404.481 882.184 404.524 882.082L419.904 831.979C420.475 831.979 421.045 831.979 421.616 831.979C425.559 831.995 429.455 831.221 433.001 829.716L437.229 827.905L437.41 828.177C439.818 831.814 443.783 834.468 448.432 835.554C449.972 835.915 451.559 836.098 453.153 836.098C456.331 836.092 459.452 835.359 462.204 833.97L462.852 833.631L462.852 833.631C469.169 839.265 478.644 841.213 487.179 838.632C488.809 838.243 489.882 836.887 489.721 835.419C484.847 808.935 463.092 787.194 433.675 779.408L433.675 779.408L437.073 768.41C437.351 767.619 437.112 766.76 436.451 766.167C435.789 765.575 434.81 765.345 433.897 765.567C432.984 765.789 432.283 766.428 432.067 767.233L428.696 778.186L428.696 778.186C398.737 772.081 367.412 781.43 348.012 802.265C346.921 803.388 346.921 805.035 348.012 806.158C353.929 812.113 363.253 814.554 371.95 812.426L371.95 812.426L372.339 812.992C374.747 816.629 378.712 819.283 383.361 820.369C384.901 820.73 386.488 820.913 388.082 820.913C391.26 820.907 394.381 820.174 397.133 818.785L397.444 818.627L400.038 822.044C402.07 824.681 404.722 826.91 407.818 828.584L399.545 856.352C395.397 846.954 385.169 840.662 373.631 840.412C362.093 840.162 351.519 846.003 346.841 855.209C342.164 864.416 344.305 875.175 352.265 882.467C350.961 882.366 349.668 882.169 348.401 881.879L333.566 878.348C331.224 877.79 328.717 878.219 326.789 879.506C324.861 880.794 323.732 882.793 323.737 884.911L323.737 901.612C323.737 905.362 327.22 908.401 331.517 908.401L481.941 908.401C486.238 908.401 489.721 905.362 489.721 901.612L489.721 884.911C489.725 882.79 488.593 880.789 486.661 879.503ZM459.844 830.1C453.642 833.225 445.711 831.371 442.13 825.959L441.171 824.511C443.764 808.013 443.142 795.091 439.848 787.239C452.271 794.797 460.207 810.276 460.907 829.557L459.844 830.1ZM484.404 834.853C478.109 836.277 471.421 834.654 466.872 830.598L466.094 829.897C465.627 814.87 460.907 801.926 453.282 792.67C469.631 802.585 480.819 817.741 484.404 834.83L484.404 834.853ZM384.866 816.002C381.578 815.206 378.783 813.311 377.085 810.729L376.463 809.801C380.257 804.4 384.824 799.441 390.053 795.046C391.091 794.184 391.132 792.75 390.143 791.844C389.155 790.938 387.512 790.902 386.474 791.765C380.805 796.544 375.871 801.945 371.794 807.832L370.705 808.104C364.438 809.638 357.709 808.127 353.069 804.143C369.61 787.159 394.884 778.64 420.215 781.513C412.409 786.514 404.135 797.762 396.355 814.033L394.695 814.87C391.72 816.369 388.185 816.776 384.866 816.002ZM404.55 819.532L401.334 815.368C412.305 792.398 423.924 781.672 429.863 783.142C435.802 784.613 439.77 798.803 436.113 823.492L430.926 825.755C421.582 829.752 410.291 827.09 404.524 819.532L404.55 819.532ZM414.924 831.255L399.726 880.928C399.69 881.146 399.69 881.367 399.726 881.585L397.34 880.973L412.901 830.666C413.498 830.87 414.25 831.074 415.002 831.255L414.924 831.255ZM382.117 860.878C382.924 860.477 383.623 859.929 384.165 859.271C388.733 860.177 393.018 861.946 396.718 864.453L396.951 864.453L392.335 879.48L387.485 878.213C384.441 877.432 381.247 877.201 378.097 877.534C381.085 872.385 382.472 866.641 382.117 860.878ZM394.747 857.936C391.761 856.527 388.567 855.484 385.255 854.835L385.255 854.835C384.643 852.398 382.248 850.613 379.393 850.468C378.573 848.657 377.566 846.915 376.385 845.263C384.685 846.322 391.694 851.186 394.747 858.004L394.747 857.936ZM370.005 845.15C371.869 847.216 373.388 849.501 374.518 851.939C373.745 852.561 373.158 853.338 372.806 854.202C363.967 855.066 355.768 858.643 349.672 864.295C350.293 854.49 358.843 846.468 370.005 845.218L370.005 845.15ZM350.45 870.609C355.784 864.009 364.101 859.717 373.299 858.818C373.817 859.646 374.566 860.347 375.477 860.855C375.94 861.105 376.436 861.302 376.956 861.443C377.306 867.767 375.225 874.012 371.042 879.186L361.239 881.743C360.72 881.879 360.176 881.947 359.657 882.06C355.135 879.311 351.873 875.255 350.45 870.609ZM484.534 901.612C484.534 902.862 483.373 903.875 481.941 903.875L331.517 903.875C330.085 903.875 328.924 902.862 328.924 901.612L328.924 899.349C330.356 899.349 331.517 898.336 331.517 897.086L331.517 892.56C331.517 891.31 330.356 890.297 328.924 890.297L328.924 884.911C328.924 883.661 330.085 882.648 331.517 882.648C331.75 882.621 331.985 882.621 332.218 882.648L347.078 886.246C351.086 887.191 355.281 887.361 359.372 886.744C359.602 886.725 359.829 886.68 360.046 886.608C360.954 886.45 361.861 886.314 362.639 886.065L375.607 882.693C378.991 881.813 382.597 881.813 385.981 882.693L398.508 885.975C403.854 887.374 409.552 887.374 414.898 885.975L427.477 882.716C430.861 881.836 434.467 881.836 437.851 882.716L450.819 886.088C455.927 887.427 461.362 887.49 466.509 886.269L481.318 882.739C482.113 882.552 482.962 882.705 483.606 883.151C484.251 883.597 484.614 884.284 484.586 885.002L484.586 890.297C483.154 890.297 481.992 891.31 481.992 892.56L481.992 897.086C481.992 898.336 483.154 899.349 484.586 899.349L484.534 901.612Z" fill="#8d6c9f" fill-rule="nonzero" opacity="1" stroke="none" vectornator:layerName="path"/>
<path d="M341.891 890.297C340.459 890.297 339.298 891.31 339.298 892.56L339.298 897.086C339.298 898.336 340.459 899.349 341.891 899.349C343.324 899.349 344.485 898.336 344.485 897.086L344.485 892.56C344.485 891.31 343.324 890.297 341.891 890.297ZM380.794 890.297C379.362 890.297 378.2 891.31 378.2 892.56L378.2 897.086C378.2 898.336 379.362 899.349 380.794 899.349C382.226 899.349 383.387 898.336 383.387 897.086L383.387 892.56C383.387 891.31 382.226 890.297 380.794 890.297ZM393.761 890.297C392.329 890.297 391.168 891.31 391.168 892.56L391.168 897.086C391.168 898.336 392.329 899.349 393.761 899.349C395.194 899.349 396.355 898.336 396.355 897.086L396.355 892.56C396.355 891.31 395.194 890.297 393.761 890.297ZM406.729 890.297C405.297 890.297 404.135 891.31 404.135 892.56L404.135 897.086C404.135 898.336 405.297 899.349 406.729 899.349C408.161 899.349 409.322 898.336 409.322 897.086L409.322 892.56C409.322 891.31 408.161 890.297 406.729 890.297ZM419.696 890.297C418.264 890.297 417.103 891.31 417.103 892.56L417.103 897.086C417.103 898.336 418.264 899.349 419.696 899.349C421.129 899.349 422.29 898.336 422.29 897.086L422.29 892.56C422.29 891.31 421.129 890.297 419.696 890.297ZM432.664 890.297C431.232 890.297 430.07 891.31 430.07 892.56L430.07 897.086C430.07 898.336 431.232 899.349 432.664 899.349C434.096 899.349 435.257 898.336 435.257 897.086L435.257 892.56C435.257 891.31 434.096 890.297 432.664 890.297ZM445.632 890.297C444.199 890.297 443.038 891.31 443.038 892.56L443.038 897.086C443.038 898.336 444.199 899.349 445.632 899.349C447.064 899.349 448.225 898.336 448.225 897.086L448.225 892.56C448.225 891.31 447.064 890.297 445.632 890.297ZM458.599 890.297C457.167 890.297 456.006 891.31 456.006 892.56L456.006 897.086C456.006 898.336 457.167 899.349 458.599 899.349C460.031 899.349 461.193 898.336 461.193 897.086L461.193 892.56C461.193 891.31 460.031 890.297 458.599 890.297ZM471.567 890.297C470.134 890.297 468.973 891.31 468.973 892.56L468.973 897.086C468.973 898.336 470.134 899.349 471.567 899.349C472.999 899.349 474.16 898.336 474.16 897.086L474.16 892.56C474.16 891.31 472.999 890.297 471.567 890.297ZM354.859 890.297C353.427 890.297 352.265 891.31 352.265 892.56L352.265 897.086C352.265 898.336 353.427 899.349 354.859 899.349C356.291 899.349 357.452 898.336 357.452 897.086L357.452 892.56C357.452 891.31 356.291 890.297 354.859 890.297ZM367.826 890.297C366.394 890.297 365.233 891.31 365.233 892.56L365.233 897.086C365.233 898.336 366.394 899.349 367.826 899.349C369.259 899.349 370.42 898.336 370.42 897.086L370.42 892.56C370.42 891.31 369.259 890.297 367.826 890.297Z" fill="#8d6c9f" fill-rule="nonzero" opacity="1" stroke="none" vectornator:layerName="path"/>
</g>
</g>
</svg>
