<?xml version="1.0" encoding="UTF-8" standalone="no"?>
<!DOCTYPE svg PUBLIC "-//W3C//DTD SVG 1.1//EN" "http://www.w3.org/Graphics/SVG/1.1/DTD/svg11.dtd">
<!-- Created with Vectornator (http://vectornator.io/) -->
<svg height="100%" stroke-miterlimit="10" style="fill-rule:nonzero;clip-rule:evenodd;stroke-linecap:round;stroke-linejoin:round;" version="1.1" viewBox="0 0 1024 1024" width="100%" xml:space="preserve" xmlns="http://www.w3.org/2000/svg" xmlns:vectornator="http://vectornator.io" xmlns:xlink="http://www.w3.org/1999/xlink">
<defs/>
<clipPath id="ArtboardFrame">
<rect height="1024" width="1024" x="0" y="0"/>
</clipPath>
<g clip-path="url(#ArtboardFrame)" id="Layer-1" vectornator:layerName="Layer 1">
<path d="M2.49718 10.0078L1016.33 10.0078L1016.33 1017.62L2.49718 1017.62L2.49718 10.0078Z" fill="#79c3e3" fill-rule="nonzero" opacity="1" stroke="#2e71a5" stroke-linecap="butt" stroke-linejoin="miter" stroke-width="21.6789"/>
</g>
<g id="Layer-2" vectornator:layerName="Layer 2">
<path d="M55.4209 48.7769L961.435 48.7769C973.376 48.7769 983.057 58.4572 983.057 70.3985L983.057 145.994C983.057 157.935 973.376 167.615 961.435 167.615L55.4209 167.615C43.4797 167.615 33.7993 157.935 33.7993 145.994L33.7993 70.3985C33.7993 58.4572 43.4797 48.7769 55.4209 48.7769Z" fill="#c5eaff" fill-rule="nonzero" opacity="1" stroke="#2e71a5" stroke-linecap="butt" stroke-linejoin="miter" stroke-width="3.96556"/>
<path d="M103.246 264.715L233.188 264.715C245.129 264.715 254.81 274.395 254.81 286.336L254.81 403.96C254.81 415.901 245.129 425.581 233.188 425.581L103.246 425.581C91.3048 425.581 81.6245 415.901 81.6245 403.96L81.6245 286.336C81.6245 274.395 91.3048 264.715 103.246 264.715Z" fill="#d47b81" fill-rule="nonzero" opacity="1" stroke="#2e71a5" stroke-linecap="butt" stroke-linejoin="miter" stroke-width="3.96556"/>
<path d="M316.286 265.439L446.227 265.439C458.169 265.439 467.849 275.12 467.849 287.061L467.849 404.684C467.849 416.626 458.169 426.306 446.227 426.306L316.286 426.306C304.344 426.306 294.664 416.626 294.664 404.684L294.664 287.061C294.664 275.12 304.344 265.439 316.286 265.439Z" fill="#14aff2" fill-rule="nonzero" opacity="1" stroke="#2e71a5" stroke-linecap="butt" stroke-linejoin="miter" stroke-width="3.96556"/>
<path d="M527.151 265.439L657.093 265.439C669.034 265.439 678.715 275.12 678.715 287.061L678.715 404.684C678.715 416.626 669.034 426.306 657.093 426.306L527.151 426.306C515.21 426.306 505.529 416.626 505.529 404.684L505.529 287.061C505.529 275.12 515.21 265.439 527.151 265.439Z" fill="#d0b67c" fill-rule="nonzero" opacity="1" stroke="#2e71a5" stroke-linecap="butt" stroke-linejoin="miter" stroke-width="3.96556"/>
<path d="M743.089 266.164L873.031 266.164C884.972 266.164 894.652 275.844 894.652 287.786L894.652 405.409C894.652 417.35 884.972 427.031 873.031 427.031L743.089 427.031C731.148 427.031 721.467 417.35 721.467 405.409L721.467 287.786C721.467 275.844 731.148 266.164 743.089 266.164Z" fill="#75c278" fill-rule="nonzero" opacity="1" stroke="#2e71a5" stroke-linecap="butt" stroke-linejoin="miter" stroke-width="3.96556"/>
<path d="M747.437 469.783L877.379 469.783C889.32 469.783 899 479.464 899 491.405L899 609.028C899 620.97 889.32 630.65 877.379 630.65L747.437 630.65C735.495 630.65 725.815 620.97 725.815 609.028L725.815 491.405C725.815 479.464 735.495 469.783 747.437 469.783Z" fill="#de9888" fill-rule="nonzero" opacity="1" stroke="#2e71a5" stroke-linecap="butt" stroke-linejoin="miter" stroke-width="3.96556"/>
<path d="M533.673 475.58L663.615 475.58C675.556 475.58 685.236 485.261 685.236 497.202L685.236 614.825C685.236 626.767 675.556 636.447 663.615 636.447L533.673 636.447C521.731 636.447 512.051 626.767 512.051 614.825L512.051 497.202C512.051 485.261 521.731 475.58 533.673 475.58Z" fill="#4dadd6" fill-rule="nonzero" opacity="1" stroke="#2e71a5" stroke-linecap="butt" stroke-linejoin="miter" stroke-width="3.96556"/>
<path d="M322.083 475.58L452.024 475.58C463.966 475.58 473.646 485.261 473.646 497.202L473.646 614.825C473.646 626.767 463.966 636.447 452.024 636.447L322.083 636.447C310.141 636.447 300.461 626.767 300.461 614.825L300.461 497.202C300.461 485.261 310.141 475.58 322.083 475.58Z" fill="#d2c5a8" fill-rule="nonzero" opacity="1" stroke="#2e71a5" stroke-linecap="butt" stroke-linejoin="miter" stroke-width="3.96556"/>
<path d="M107.594 477.754L237.536 477.754C249.477 477.754 259.157 487.435 259.157 499.376L259.157 616.999C259.157 628.94 249.477 638.621 237.536 638.621L107.594 638.621C95.6526 638.621 85.9722 628.94 85.9722 616.999L85.9722 499.376C85.9722 487.435 95.6526 477.754 107.594 477.754Z" fill="#9ab99b" fill-rule="nonzero" opacity="1" stroke="#2e71a5" stroke-linecap="butt" stroke-linejoin="miter" stroke-width="3.96556"/>
<path d="M106.145 690.069L236.086 690.069C248.028 690.069 257.708 699.749 257.708 711.691L257.708 829.314C257.708 841.255 248.028 850.936 236.086 850.936L106.145 850.936C94.2033 850.936 84.523 841.255 84.523 829.314L84.523 711.691C84.523 699.749 94.2033 690.069 106.145 690.069Z" fill="#e37b67" fill-rule="nonzero" opacity="1" stroke="#2e71a5" stroke-linecap="butt" stroke-linejoin="miter" stroke-width="3.96556"/>
<path d="M330.778 700.938L460.72 700.938C472.661 700.938 482.341 710.619 482.341 722.56L482.341 840.183C482.341 852.125 472.661 861.805 460.72 861.805L330.778 861.805C318.837 861.805 309.156 852.125 309.156 840.183L309.156 722.56C309.156 710.619 318.837 700.938 330.778 700.938Z" fill="#3a9dc8" fill-rule="nonzero" opacity="1" stroke="#2e71a5" stroke-linecap="butt" stroke-linejoin="miter" stroke-width="3.96556"/>
<path d="M543.817 698.765L673.759 698.765C685.701 698.765 695.381 708.445 695.381 720.386L695.381 838.009C695.381 849.951 685.701 859.631 673.759 859.631L543.817 859.631C531.876 859.631 522.196 849.951 522.196 838.009L522.196 720.386C522.196 708.445 531.876 698.765 543.817 698.765Z" fill="#ddd07a" fill-rule="nonzero" opacity="1" stroke="#2e71a5" stroke-linecap="butt" stroke-linejoin="miter" stroke-width="3.96556"/>
<path d="M757.581 701.663L887.523 701.663C899.465 701.663 909.145 711.343 909.145 723.285L909.145 840.908C909.145 852.849 899.465 862.53 887.523 862.53L757.581 862.53C745.64 862.53 735.96 852.849 735.96 840.908L735.96 723.285C735.96 711.343 745.64 701.663 757.581 701.663Z" fill="#74ab55" fill-rule="nonzero" opacity="1" stroke="#2e71a5" stroke-linecap="butt" stroke-linejoin="miter" stroke-width="3.96556"/>
<path d="M92.4939 440.074L246.114 441.523L92.4939 440.074Z" fill="none" opacity="1" stroke="#034f8b" stroke-linecap="butt" stroke-linejoin="miter" stroke-width="3.96556"/>
<path d="M301.186 439.349L454.806 440.798L301.186 439.349Z" fill="none" opacity="1" stroke="#034f8b" stroke-linecap="butt" stroke-linejoin="miter" stroke-width="3.96556"/>
<path d="M517.123 440.074L670.744 441.523L517.123 440.074Z" fill="none" opacity="1" stroke="#034f8b" stroke-linecap="butt" stroke-linejoin="miter" stroke-width="3.96556"/>
<path d="M730.163 437.9L883.783 439.349L730.163 437.9Z" fill="none" opacity="1" stroke="#034f8b" stroke-linecap="butt" stroke-linejoin="miter" stroke-width="3.96556"/>
<path d="M741.757 642.968L895.377 644.418L741.757 642.968Z" fill="none" opacity="1" stroke="#034f8b" stroke-linecap="butt" stroke-linejoin="miter" stroke-width="3.96556"/>
<path d="M524.37 648.765L677.99 650.215L524.37 648.765Z" fill="none" opacity="1" stroke="#034f8b" stroke-linecap="butt" stroke-linejoin="miter" stroke-width="3.96556"/>
<path d="M314.953 648.765L468.574 650.215L314.953 648.765Z" fill="none" opacity="1" stroke="#034f8b" stroke-linecap="butt" stroke-linejoin="miter" stroke-width="3.96556"/>
<path d="M96.117 652.389L249.737 653.838L96.117 652.389Z" fill="none" opacity="1" stroke="#034f8b" stroke-linecap="butt" stroke-linejoin="miter" stroke-width="3.96556"/>
<path d="M100.465 871.225L254.085 872.674L100.465 871.225Z" fill="none" opacity="1" stroke="#034f8b" stroke-linecap="butt" stroke-linejoin="miter" stroke-width="3.96556"/>
<path d="M324.373 876.297L477.994 877.747L324.373 876.297Z" fill="none" opacity="1" stroke="#034f8b" stroke-linecap="butt" stroke-linejoin="miter" stroke-width="3.96556"/>
<path d="M536.688 874.848L690.309 876.297L536.688 874.848Z" fill="none" opacity="1" stroke="#034f8b" stroke-linecap="butt" stroke-linejoin="miter" stroke-width="3.96556"/>
<path d="M750.452 878.471L904.073 879.92L750.452 878.471Z" fill="none" opacity="1" stroke="#034f8b" stroke-linecap="butt" stroke-linejoin="miter" stroke-width="3.96556"/>
<path d="M95.3924 454.566L244.665 453.842L95.3924 454.566Z" fill="none" opacity="1" stroke="#034f8b" stroke-linecap="butt" stroke-linejoin="miter" stroke-width="3.96556"/>
<path d="M304.084 453.842L453.357 453.117L304.084 453.842Z" fill="none" opacity="1" stroke="#034f8b" stroke-linecap="butt" stroke-linejoin="miter" stroke-width="3.96556"/>
<path d="M520.022 454.566L669.294 453.842L520.022 454.566Z" fill="none" opacity="1" stroke="#034f8b" stroke-linecap="butt" stroke-linejoin="miter" stroke-width="3.96556"/>
<path d="M733.061 452.392L882.334 451.668L733.061 452.392Z" fill="none" opacity="1" stroke="#034f8b" stroke-linecap="butt" stroke-linejoin="miter" stroke-width="3.96556"/>
<path d="M744.655 657.461L893.928 656.736L744.655 657.461Z" fill="none" opacity="1" stroke="#034f8b" stroke-linecap="butt" stroke-linejoin="miter" stroke-width="3.96556"/>
<path d="M527.268 663.258L676.541 662.533L527.268 663.258Z" fill="none" opacity="1" stroke="#034f8b" stroke-linecap="butt" stroke-linejoin="miter" stroke-width="3.96556"/>
<path d="M317.852 663.258L467.124 662.533L317.852 663.258Z" fill="none" opacity="1" stroke="#034f8b" stroke-linecap="butt" stroke-linejoin="miter" stroke-width="3.96556"/>
<path d="M99.0155 666.881L248.288 666.156L99.0155 666.881Z" fill="none" opacity="1" stroke="#034f8b" stroke-linecap="butt" stroke-linejoin="miter" stroke-width="3.96556"/>
<path d="M101.914 889.341L251.186 888.616L101.914 889.341Z" fill="none" opacity="1" stroke="#034f8b" stroke-linecap="butt" stroke-linejoin="miter" stroke-width="3.96556"/>
<path d="M327.272 890.79L476.545 890.065L327.272 890.79Z" fill="none" opacity="1" stroke="#034f8b" stroke-linecap="butt" stroke-linejoin="miter" stroke-width="3.96556"/>
<path d="M539.587 889.341L688.859 888.616L539.587 889.341Z" fill="none" opacity="1" stroke="#034f8b" stroke-linecap="butt" stroke-linejoin="miter" stroke-width="3.96556"/>
<path d="M753.351 892.964L902.623 892.239L753.351 892.964Z" fill="none" opacity="1" stroke="#034f8b" stroke-linecap="butt" stroke-linejoin="miter" stroke-width="3.96556"/>
<path d="M212.298 370.346L203.558 370.346C202.754 370.346 202.101 370.982 202.101 371.766L202.101 380.287L132.178 380.287L132.178 302.182C132.178 301.398 131.525 300.762 130.721 300.762L121.98 300.762C121.176 300.762 120.524 301.398 120.524 302.182L120.524 390.227C120.524 391.011 121.176 391.648 121.98 391.648L212.298 391.648C213.102 391.648 213.755 391.011 213.755 390.227L213.755 371.766C213.755 370.982 213.102 370.346 212.298 370.346ZM210.841 388.807L123.437 388.807L123.437 303.602L129.264 303.602L129.264 381.707C129.264 382.491 129.917 383.127 130.721 383.127L203.558 383.127C204.362 383.127 205.014 382.491 205.014 381.707L205.014 373.186L210.841 373.186L210.841 388.807Z" fill="#453d3d" fill-rule="nonzero" opacity="1" stroke="none" vectornator:layerName="path"/>
<path d="M216.448 312.463C216.154 311.768 215.576 311.204 214.82 310.903C214.473 310.769 214.115 310.702 213.755 310.702L199.187 310.702C197.581 310.702 196.274 311.976 196.274 313.543C196.274 315.109 197.581 316.383 199.187 316.383L206.675 316.383L188.132 333.81L173.421 321.34C172.296 320.385 170.621 320.412 169.518 321.409L138.903 349.806C138.334 350.323 138.005 351.025 137.975 351.783C137.946 352.541 138.223 353.264 138.753 353.819C139.303 354.396 140.08 354.725 140.887 354.725C141.626 354.725 142.33 354.455 142.877 353.958L171.581 327.308L186.351 339.827C187.503 340.804 189.248 340.743 190.314 339.701L210.841 320.359L210.841 327.744C210.841 329.31 212.148 330.584 213.755 330.584C215.362 330.584 216.668 329.31 216.668 327.744L216.668 313.543C216.668 313.192 216.6 312.844 216.448 312.463ZM215.212 327.744C215.212 328.526 214.558 329.164 213.755 329.164C212.952 329.164 212.298 328.526 212.298 327.744L212.298 318.685C212.298 318.399 212.123 318.142 211.854 318.032C211.584 317.921 211.273 317.976 211.063 318.175L189.29 338.69C188.753 339.215 187.882 339.245 187.306 338.755L172.037 325.812C171.753 325.571 171.327 325.581 171.056 325.835L141.878 352.926C141.307 353.446 140.35 353.409 139.82 352.854C139.555 352.577 139.416 352.215 139.431 351.835C139.444 351.456 139.61 351.105 139.9 350.841L170.516 322.445C170.797 322.19 171.154 322.063 171.509 322.063C171.849 322.063 172.19 322.18 172.465 322.413L187.679 335.31C187.963 335.551 188.392 335.541 188.663 335.284L208.984 316.184C209.197 315.982 209.265 315.676 209.154 315.407C209.044 315.139 208.777 314.963 208.48 314.963L199.187 314.963C198.385 314.963 197.731 314.325 197.731 313.543C197.731 312.76 198.385 312.123 199.187 312.123L213.755 312.123C213.931 312.123 214.11 312.157 214.307 312.231C214.664 312.374 214.954 312.657 215.107 313.024C215.177 313.196 215.212 313.371 215.212 313.543L215.212 327.744Z" fill="#000000" fill-rule="nonzero" opacity="1" stroke="none" vectornator:layerName="path"/>
<path d="M184.015 342.221C184.229 342.221 184.439 342.136 184.589 341.968C184.865 341.662 184.832 341.197 184.515 340.93L183.77 340.304C183.453 340.04 182.973 340.069 182.695 340.377C182.419 340.682 182.453 341.147 182.769 341.414L183.514 342.04C183.659 342.161 183.837 342.221 184.015 342.221ZM181.388 340.015C181.601 340.015 181.811 339.929 181.962 339.762C182.238 339.456 182.204 338.991 181.888 338.723L179.962 337.106C179.646 336.84 179.164 336.872 178.887 337.178C178.61 337.484 178.645 337.949 178.962 338.217L180.887 339.834C181.033 339.954 181.21 340.015 181.388 340.015ZM148.648 354.528L172.677 332.937L175.917 335.659C176.234 335.924 176.715 335.894 176.992 335.587C177.268 335.281 177.235 334.816 176.918 334.548L173.162 331.393C172.868 331.147 172.429 331.154 172.144 331.409L147.611 353.451C147.302 353.728 147.285 354.193 147.571 354.491C147.722 354.646 147.924 354.725 148.129 354.725C148.314 354.725 148.5 354.661 148.648 354.528Z" fill="#000000" fill-rule="nonzero" opacity="1" stroke="none" vectornator:layerName="path"/>
<path d="M622.747 335.177C621.78 335.177 620.997 335.923 620.997 336.842C620.997 337.761 621.78 338.506 622.747 338.506C623.713 338.506 624.496 337.761 624.496 336.842C624.496 335.923 623.713 335.177 622.747 335.177ZM636.743 403.414C635.777 403.414 634.993 404.159 634.993 405.078C634.993 405.998 635.777 406.743 636.743 406.743C637.709 406.743 638.493 405.998 638.493 405.078C638.493 404.159 637.709 403.414 636.743 403.414ZM643.741 403.414C642.775 403.414 641.992 404.159 641.992 405.078C641.992 405.998 642.775 406.743 643.741 406.743C644.707 406.743 645.491 405.998 645.491 405.078C645.491 404.159 644.707 403.414 643.741 403.414ZM650.739 403.414C649.773 403.414 648.99 404.159 648.99 405.078C648.99 405.998 649.773 406.743 650.739 406.743C651.706 406.743 652.489 405.998 652.489 405.078C652.489 404.159 651.706 403.414 650.739 403.414ZM657.737 403.414C656.771 403.414 655.988 404.159 655.988 405.078C655.988 405.998 656.771 406.743 657.737 406.743C658.704 406.743 659.487 405.998 659.487 405.078C659.487 404.159 658.704 403.414 657.737 403.414ZM636.743 373.457C635.777 373.457 634.993 374.202 634.993 375.121C634.993 376.04 635.777 376.785 636.743 376.785C637.709 376.785 638.493 376.04 638.493 375.121C638.493 374.202 637.709 373.457 636.743 373.457ZM643.741 373.457C642.775 373.457 641.992 374.202 641.992 375.121C641.992 376.04 642.775 376.785 643.741 376.785C644.707 376.785 645.491 376.04 645.491 375.121C645.491 374.202 644.707 373.457 643.741 373.457ZM650.739 373.457C649.773 373.457 648.99 374.202 648.99 375.121C648.99 376.04 649.773 376.785 650.739 376.785C651.706 376.785 652.489 376.04 652.489 375.121C652.489 374.202 651.706 373.457 650.739 373.457ZM657.737 373.457C656.771 373.457 655.988 374.202 655.988 375.121C655.988 376.04 656.771 376.785 657.737 376.785C658.704 376.785 659.487 376.04 659.487 375.121C659.487 374.202 658.704 373.457 657.737 373.457ZM657.737 388.435C656.771 388.435 655.988 389.181 655.988 390.1C655.988 391.019 656.771 391.764 657.737 391.764C658.704 391.764 659.487 391.019 659.487 390.1C659.487 389.181 658.704 388.435 657.737 388.435ZM622.747 345.163C621.78 345.163 620.997 345.908 620.997 346.828C620.997 347.747 621.78 348.492 622.747 348.492C623.713 348.492 624.496 347.747 624.496 346.828C624.496 345.908 623.713 345.163 622.747 345.163ZM629.745 345.163C628.779 345.163 627.995 345.908 627.995 346.828C627.995 347.747 628.779 348.492 629.745 348.492C630.711 348.492 631.494 347.747 631.494 346.828C631.494 345.908 630.711 345.163 629.745 345.163ZM629.745 355.149C628.779 355.149 627.995 355.894 627.995 356.814C627.995 357.733 628.779 358.478 629.745 358.478C630.711 358.478 631.494 357.733 631.494 356.814C631.494 355.894 630.711 355.149 629.745 355.149ZM615.749 345.163C614.782 345.163 613.999 345.908 613.999 346.828C613.999 347.747 614.782 348.492 615.749 348.492C616.715 348.492 617.498 347.747 617.498 346.828C617.498 345.908 616.715 345.163 615.749 345.163ZM626.246 350.156C625.28 350.156 624.496 350.901 624.496 351.821C624.496 352.74 625.28 353.485 626.246 353.485C627.212 353.485 627.995 352.74 627.995 351.821C627.995 350.901 627.212 350.156 626.246 350.156ZM633.244 350.156C632.278 350.156 631.494 350.901 631.494 351.821C631.494 352.74 632.278 353.485 633.244 353.485C634.21 353.485 634.993 352.74 634.993 351.821C634.993 350.901 634.21 350.156 633.244 350.156ZM594.754 345.163C593.788 345.163 593.004 345.908 593.004 346.828C593.004 347.747 593.788 348.492 594.754 348.492C595.72 348.492 596.504 347.747 596.504 346.828C596.504 345.908 595.72 345.163 594.754 345.163ZM587.756 345.163C586.79 345.163 586.006 345.908 586.006 346.828C586.006 347.747 586.79 348.492 587.756 348.492C588.722 348.492 589.505 347.747 589.505 346.828C589.505 345.908 588.722 345.163 587.756 345.163ZM584.257 340.17C583.291 340.17 582.507 340.916 582.507 341.835C582.507 342.754 583.291 343.499 584.257 343.499C585.223 343.499 586.006 342.754 586.006 341.835C586.006 340.916 585.223 340.17 584.257 340.17ZM584.257 330.185C583.291 330.185 582.507 330.93 582.507 331.849C582.507 332.768 583.291 333.513 584.257 333.513C585.223 333.513 586.006 332.768 586.006 331.849C586.006 330.93 585.223 330.185 584.257 330.185ZM615.749 335.177C614.782 335.177 613.999 335.923 613.999 336.842C613.999 337.761 614.782 338.506 615.749 338.506C616.715 338.506 617.498 337.761 617.498 336.842C617.498 335.923 616.715 335.177 615.749 335.177ZM608.75 335.177C607.784 335.177 607.001 335.923 607.001 336.842C607.001 337.761 607.784 338.506 608.75 338.506C609.717 338.506 610.5 337.761 610.5 336.842C610.5 335.923 609.717 335.177 608.75 335.177ZM601.752 335.177C600.786 335.177 600.003 335.923 600.003 336.842C600.003 337.761 600.786 338.506 601.752 338.506C602.718 338.506 603.502 337.761 603.502 336.842C603.502 335.923 602.718 335.177 601.752 335.177ZM594.754 335.177C593.788 335.177 593.004 335.923 593.004 336.842C593.004 337.761 593.788 338.506 594.754 338.506C595.72 338.506 596.504 337.761 596.504 336.842C596.504 335.923 595.72 335.177 594.754 335.177ZM587.756 335.177C586.79 335.177 586.006 335.923 586.006 336.842C586.006 337.761 586.79 338.506 587.756 338.506C588.722 338.506 589.505 337.761 589.505 336.842C589.505 335.923 588.722 335.177 587.756 335.177ZM629.745 335.177C628.779 335.177 627.995 335.923 627.995 336.842C627.995 337.761 628.779 338.506 629.745 338.506C630.711 338.506 631.494 337.761 631.494 336.842C631.494 335.923 630.711 335.177 629.745 335.177ZM619.248 330.185C618.281 330.185 617.498 330.93 617.498 331.849C617.498 332.768 618.281 333.513 619.248 333.513C620.214 333.513 620.997 332.768 620.997 331.849C620.997 330.93 620.214 330.185 619.248 330.185ZM633.244 340.17C632.278 340.17 631.494 340.916 631.494 341.835C631.494 342.754 632.278 343.499 633.244 343.499C634.21 343.499 634.993 342.754 634.993 341.835C634.993 340.916 634.21 340.17 633.244 340.17ZM626.246 340.17C625.28 340.17 624.496 340.916 624.496 341.835C624.496 342.754 625.28 343.499 626.246 343.499C627.212 343.499 627.995 342.754 627.995 341.835C627.995 340.916 627.212 340.17 626.246 340.17ZM619.248 340.17C618.281 340.17 617.498 340.916 617.498 341.835C617.498 342.754 618.281 343.499 619.248 343.499C620.214 343.499 620.997 342.754 620.997 341.835C620.997 340.916 620.214 340.17 619.248 340.17ZM612.249 340.17C611.283 340.17 610.5 340.916 610.5 341.835C610.5 342.754 611.283 343.499 612.249 343.499C613.216 343.499 613.999 342.754 613.999 341.835C613.999 340.916 613.216 340.17 612.249 340.17ZM605.251 340.17C604.285 340.17 603.502 340.916 603.502 341.835C603.502 342.754 604.285 343.499 605.251 343.499C606.218 343.499 607.001 342.754 607.001 341.835C607.001 340.916 606.218 340.17 605.251 340.17ZM598.253 340.17C597.287 340.17 596.504 340.916 596.504 341.835C596.504 342.754 597.287 343.499 598.253 343.499C599.219 343.499 600.003 342.754 600.003 341.835C600.003 340.916 599.219 340.17 598.253 340.17ZM591.255 340.17C590.289 340.17 589.505 340.916 589.505 341.835C589.505 342.754 590.289 343.499 591.255 343.499C592.221 343.499 593.004 342.754 593.004 341.835C593.004 340.916 592.221 340.17 591.255 340.17ZM591.255 330.185C590.289 330.185 589.505 330.93 589.505 331.849C589.505 332.768 590.289 333.513 591.255 333.513C592.221 333.513 593.004 332.768 593.004 331.849C593.004 330.93 592.221 330.185 591.255 330.185ZM573.76 335.177C572.793 335.177 572.01 335.923 572.01 336.842C572.01 337.761 572.793 338.506 573.76 338.506C574.726 338.506 575.509 337.761 575.509 336.842C575.509 335.923 574.726 335.177 573.76 335.177ZM566.761 335.177C565.795 335.177 565.012 335.923 565.012 336.842C565.012 337.761 565.795 338.506 566.761 338.506C567.728 338.506 568.511 337.761 568.511 336.842C568.511 335.923 567.728 335.177 566.761 335.177ZM559.763 335.177C558.797 335.177 558.014 335.923 558.014 336.842C558.014 337.761 558.797 338.506 559.763 338.506C560.729 338.506 561.513 337.761 561.513 336.842C561.513 335.923 560.729 335.177 559.763 335.177ZM552.765 335.177C551.799 335.177 551.015 335.923 551.015 336.842C551.015 337.761 551.799 338.506 552.765 338.506C553.731 338.506 554.515 337.761 554.515 336.842C554.515 335.923 553.731 335.177 552.765 335.177ZM545.767 335.177C544.801 335.177 544.017 335.923 544.017 336.842C544.017 337.761 544.801 338.506 545.767 338.506C546.733 338.506 547.516 337.761 547.516 336.842C547.516 335.923 546.733 335.177 545.767 335.177ZM580.758 335.177C579.791 335.177 579.008 335.923 579.008 336.842C579.008 337.761 579.791 338.506 580.758 338.506C581.724 338.506 582.507 337.761 582.507 336.842C582.507 335.923 581.724 335.177 580.758 335.177ZM612.249 330.185C611.283 330.185 610.5 330.93 610.5 331.849C610.5 332.768 611.283 333.513 612.249 333.513C613.216 333.513 613.999 332.768 613.999 331.849C613.999 330.93 613.216 330.185 612.249 330.185ZM577.259 340.17C576.292 340.17 575.509 340.916 575.509 341.835C575.509 342.754 576.292 343.499 577.259 343.499C578.225 343.499 579.008 342.754 579.008 341.835C579.008 340.916 578.225 340.17 577.259 340.17ZM591.255 350.156C590.289 350.156 589.505 350.901 589.505 351.821C589.505 352.74 590.289 353.485 591.255 353.485C592.221 353.485 593.004 352.74 593.004 351.821C593.004 350.901 592.221 350.156 591.255 350.156ZM580.758 345.163C579.791 345.163 579.008 345.908 579.008 346.828C579.008 347.747 579.791 348.492 580.758 348.492C581.724 348.492 582.507 347.747 582.507 346.828C582.507 345.908 581.724 345.163 580.758 345.163ZM559.763 345.163C558.797 345.163 558.014 345.908 558.014 346.828C558.014 347.747 558.797 348.492 559.763 348.492C560.729 348.492 561.513 347.747 561.513 346.828C561.513 345.908 560.729 345.163 559.763 345.163ZM552.765 345.163C551.799 345.163 551.015 345.908 551.015 346.828C551.015 347.747 551.799 348.492 552.765 348.492C553.731 348.492 554.515 347.747 554.515 346.828C554.515 345.908 553.731 345.163 552.765 345.163ZM549.266 350.156C548.3 350.156 547.516 350.901 547.516 351.821C547.516 352.74 548.3 353.485 549.266 353.485C550.232 353.485 551.015 352.74 551.015 351.821C551.015 350.901 550.232 350.156 549.266 350.156ZM563.262 330.185C562.296 330.185 561.513 330.93 561.513 331.849C561.513 332.768 562.296 333.513 563.262 333.513C564.229 333.513 565.012 332.768 565.012 331.849C565.012 330.93 564.229 330.185 563.262 330.185ZM563.262 340.17C562.296 340.17 561.513 340.916 561.513 341.835C561.513 342.754 562.296 343.499 563.262 343.499C564.229 343.499 565.012 342.754 565.012 341.835C565.012 340.916 564.229 340.17 563.262 340.17ZM545.767 345.163C544.801 345.163 544.017 345.908 544.017 346.828C544.017 347.747 544.801 348.492 545.767 348.492C546.733 348.492 547.516 347.747 547.516 346.828C547.516 345.908 546.733 345.163 545.767 345.163ZM556.264 330.185C555.298 330.185 554.515 330.93 554.515 331.849C554.515 332.768 555.298 333.513 556.264 333.513C557.23 333.513 558.014 332.768 558.014 331.849C558.014 330.93 557.23 330.185 556.264 330.185ZM556.264 340.17C555.298 340.17 554.515 340.916 554.515 341.835C554.515 342.754 555.298 343.499 556.264 343.499C557.23 343.499 558.014 342.754 558.014 341.835C558.014 340.916 557.23 340.17 556.264 340.17ZM549.266 340.17C548.3 340.17 547.516 340.916 547.516 341.835C547.516 342.754 548.3 343.499 549.266 343.499C550.232 343.499 551.015 342.754 551.015 341.835C551.015 340.916 550.232 340.17 549.266 340.17Z" fill="#453d3d" fill-rule="nonzero" opacity="1" stroke="none" vectornator:layerName="path"/>
<path d="M603.502 405.078L622.747 405.078M603.502 390.1L643.741 390.1" fill="#453d3d" fill-rule="nonzero" opacity="1" stroke="#000000" stroke-linecap="butt" stroke-linejoin="round" stroke-width="2" vectornator:layerName="path"/>
<path d="M650.739 395.093L643.741 395.093L643.741 385.107L650.739 385.107L650.739 395.093ZM629.745 380.114L622.747 380.114L622.747 370.128L629.745 370.128L629.745 380.114ZM629.745 410.071L622.747 410.071L622.747 400.086L629.745 400.086L629.745 410.071Z" fill="#453d3d" fill-rule="nonzero" opacity="1" stroke="#000000" stroke-linecap="butt" stroke-linejoin="miter" stroke-width="2" vectornator:layerName="path"/>
<path d="M603.502 375.121L622.747 375.121" fill="#453d3d" fill-rule="nonzero" opacity="1" stroke="#000000" stroke-linecap="butt" stroke-linejoin="round" stroke-width="2" vectornator:layerName="path"/>
<path d="M596.504 388.435L531.771 388.435L531.771 305.22L647.24 305.22L647.24 363.471L650.739 363.471L650.739 301.891L528.271 301.891L528.271 391.764L596.504 391.764L596.504 388.435Z" fill="#453d3d" fill-rule="nonzero" opacity="1" stroke="none" vectornator:layerName="path"/>
<path d="M596.504 375.121L545.767 375.121L545.767 318.534L633.244 318.534L633.244 363.471L636.743 363.471L636.743 315.206L542.268 315.206L542.268 378.45L596.504 378.45L596.504 375.121Z" fill="#453d3d" fill-rule="nonzero" opacity="1" stroke="none" vectornator:layerName="path"/>
<path d="M632.077 363.471L634.992 363.471L636.041 362.139L606.982 341.405L592.096 352.406L572.054 338.122L543.027 357.106L545.008 359.849L571.966 342.219L592.135 356.592L607.02 345.593L632.077 363.471Z" fill="#453d3d" fill-rule="nonzero" opacity="1" stroke="none" vectornator:layerName="path"/>
<path d="M418.235 597.728C417.126 597.728 416.23 598.564 416.23 599.599L416.23 603.341C416.23 604.375 417.126 605.212 418.235 605.212C419.344 605.212 420.24 604.375 420.24 603.341L420.24 599.599C420.24 598.564 419.344 597.728 418.235 597.728ZM428.259 597.728C427.15 597.728 426.254 598.564 426.254 599.599L426.254 603.341C426.254 604.375 427.15 605.212 428.259 605.212C429.368 605.212 430.264 604.375 430.264 603.341L430.264 599.599C430.264 598.564 429.368 597.728 428.259 597.728ZM436.278 599.599L436.278 603.341C436.278 604.375 437.175 605.212 438.283 605.212C439.392 605.212 440.288 604.375 440.288 603.341L440.288 599.599C440.288 598.564 439.392 597.728 438.283 597.728C437.175 597.728 436.278 598.564 436.278 599.599ZM408.211 597.728C407.102 597.728 406.206 598.564 406.206 599.599L406.206 603.341C406.206 604.375 407.102 605.212 408.211 605.212C409.32 605.212 410.216 604.375 410.216 603.341L410.216 599.599C410.216 598.564 409.32 597.728 408.211 597.728ZM398.187 597.728C397.078 597.728 396.182 598.564 396.182 599.599L396.182 603.341C396.182 604.375 397.078 605.212 398.187 605.212C399.296 605.212 400.192 604.375 400.192 603.341L400.192 599.599C400.192 598.564 399.296 597.728 398.187 597.728ZM388.163 590.244C387.054 590.244 386.158 591.081 386.158 592.115L386.158 603.341C386.158 604.375 387.054 605.212 388.163 605.212C389.271 605.212 390.168 604.375 390.168 603.341L390.168 592.115C390.168 591.081 389.271 590.244 388.163 590.244ZM378.139 597.728C377.03 597.728 376.134 598.564 376.134 599.599L376.134 603.341C376.134 604.375 377.03 605.212 378.139 605.212C379.247 605.212 380.143 604.375 380.143 603.341L380.143 599.599C380.143 598.564 379.247 597.728 378.139 597.728ZM368.115 597.728C367.006 597.728 366.11 598.564 366.11 599.599L366.11 603.341C366.11 604.375 367.006 605.212 368.115 605.212C369.223 605.212 370.119 604.375 370.119 603.341L370.119 599.599C370.119 598.564 369.223 597.728 368.115 597.728ZM358.09 597.728C356.982 597.728 356.086 598.564 356.086 599.599L356.086 603.341C356.086 604.375 356.982 605.212 358.09 605.212C359.199 605.212 360.095 604.375 360.095 603.341L360.095 599.599C360.095 598.564 359.199 597.728 358.09 597.728ZM348.066 597.728C346.958 597.728 346.062 598.564 346.062 599.599L346.062 603.341C346.062 604.375 346.958 605.212 348.066 605.212C349.175 605.212 350.071 604.375 350.071 603.341L350.071 599.599C350.071 598.564 349.175 597.728 348.066 597.728ZM338.042 597.728C336.934 597.728 336.037 598.564 336.037 599.599L336.037 603.341C336.037 604.375 336.934 605.212 338.042 605.212C339.151 605.212 340.047 604.375 340.047 603.341L340.047 599.599C340.047 598.564 339.151 597.728 338.042 597.728ZM403.004 576.149C402.247 575.614 401.282 575.446 400.37 575.689C400.368 575.689 400.368 575.689 400.368 575.689L390.917 578.211C389.117 578.693 387.208 578.693 385.408 578.211L375.955 575.689C375.043 575.447 374.079 575.614 373.321 576.149C372.563 576.684 372.124 577.5 372.124 578.388L372.124 587.133C372.124 588.022 372.561 588.837 373.321 589.373C374.079 589.906 375.037 590.078 375.957 589.833L385.408 587.311C387.208 586.828 389.117 586.828 390.917 587.311L400.37 589.833C400.645 589.906 400.923 589.943 401.2 589.943C401.844 589.943 402.475 589.749 403.004 589.373C403.764 588.837 404.201 588.022 404.201 587.133L404.201 578.388C404.201 577.5 403.764 576.684 403.004 576.149ZM400.986 586.619L392.273 584.239C390.929 583.872 389.548 583.689 388.163 583.689C386.777 583.689 385.398 583.872 384.053 584.239L375.34 586.619L375.34 578.822L384.053 581.202C386.741 581.936 389.584 581.936 392.271 581.202L400.984 578.822L400.984 586.619L400.986 586.619Z" fill="#453d3d" fill-rule="nonzero" opacity="1" stroke="none" vectornator:layerName="path"/>
<path d="M435.769 574.115L409.175 562.246C411.318 559.148 413.055 555.75 414.253 552.327C416.711 551.468 418.961 548.662 420.033 544.924C420.667 542.718 420.795 540.497 420.396 538.669C419.897 536.388 418.626 534.886 416.818 534.435C416.571 534.374 416.28 534.325 415.954 534.314C415.671 532.31 415.124 530.443 414.111 527.881C414.081 527.808 414.059 527.741 414.037 527.681C414.745 527.736 415.877 528.005 416.806 528.362C417.497 528.63 418.287 528.514 418.859 528.069C419.43 527.621 419.691 526.916 419.53 526.235C416.296 512.426 405.32 504.183 390.168 504.183L388.163 504.183C383.748 504.183 377.439 505.47 373.512 507.936C366.048 508.19 360.935 513.083 360.103 520.836C359.59 525.625 360.059 529.051 360.37 531.318C360.478 532.106 360.598 532.997 360.558 533.258C360.492 533.608 360.434 533.96 360.382 534.316C360.049 534.327 359.756 534.374 359.506 534.437C357.697 534.886 356.426 536.39 355.927 538.671C355.528 540.499 355.655 542.72 356.29 544.925C357.363 548.663 359.612 551.47 362.07 552.329C363.271 555.75 365.005 559.148 367.148 562.248L340.556 574.115C332.94 577.513 328.018 584.8 328.018 592.68L328.018 607.083C328.018 610.177 330.717 612.695 334.033 612.695L442.293 612.695C445.609 612.695 448.307 610.177 448.307 607.083L448.307 592.68C448.307 584.8 443.386 577.513 435.769 574.115ZM365.56 550.2C365.306 549.406 364.524 548.862 363.638 548.862L363.636 548.862C363.048 548.862 361.154 547.404 360.165 543.956C359.698 542.325 359.586 540.671 359.861 539.419C360.069 538.465 360.44 538.078 360.53 538.054C360.534 538.054 360.707 538.057 361.074 538.278C361.677 538.643 362.443 538.684 363.08 538.375C363.72 538.07 364.135 537.468 364.169 536.798C364.217 535.82 364.331 534.849 364.51 533.91C364.662 533.109 364.54 532.209 364.351 530.843C364.065 528.744 363.632 525.573 364.099 521.208C364.738 515.234 368.489 511.666 374.169 511.666C374.602 511.666 375.025 511.535 375.372 511.294C378.115 509.373 383.616 507.925 388.163 507.925L390.168 507.925C402.335 507.925 411.124 513.732 414.729 523.982C413.343 523.833 411.912 523.994 410.925 524.877C410.16 525.562 409.438 526.864 410.35 529.176C411.589 532.312 412.03 534.164 412.16 536.798C412.195 537.468 412.61 538.07 413.249 538.375C413.885 538.682 414.652 538.645 415.256 538.278C415.581 538.082 415.755 538.057 415.793 538.055C415.907 538.097 416.264 538.488 416.469 539.419C416.743 540.671 416.631 542.325 416.164 543.956C415.176 547.404 413.281 548.862 412.694 548.862L412.692 548.862C411.806 548.862 411.024 549.406 410.769 550.2C407.391 560.802 398.542 571.535 388.163 571.535C377.784 571.535 368.935 560.802 365.56 550.2ZM444.298 607.083C444.298 608.115 443.4 608.953 442.293 608.953L334.033 608.953C332.926 608.953 332.028 608.115 332.028 607.083L332.028 592.68C332.028 586.235 336.055 580.272 342.286 577.492L369.52 565.335C374.45 571.142 380.953 575.277 388.163 575.277C395.372 575.277 401.876 571.142 406.804 565.335L434.037 577.492C440.27 580.272 444.298 586.233 444.298 592.68L444.298 607.083Z" fill="#453d3d" fill-rule="nonzero" opacity="1" stroke="none" vectornator:layerName="path"/>
<path d="M379.973 524.534C385.683 527.133 392.058 528.504 398.411 528.504L403.534 528.504C404.642 528.504 405.539 527.668 405.539 526.634C405.539 525.599 404.642 524.763 403.534 524.763L398.411 524.763C392.664 524.763 386.894 523.52 381.729 521.171L378.596 519.745C376.789 518.925 374.596 519.49 373.491 521.053L370.278 525.605C369.668 526.467 369.923 527.627 370.849 528.196C371.188 528.403 371.573 528.504 371.95 528.504C372.601 528.504 373.241 528.209 373.626 527.663L376.842 523.111L379.973 524.534Z" fill="#453d3d" fill-rule="nonzero" opacity="1" stroke="none" vectornator:layerName="path"/>
<path d="M841.973 553.46L841.973 523.038L820.188 502.756L767.281 502.756L767.281 589.677L812.407 589.677" fill="none" opacity="1" stroke="#453d3d" stroke-linecap="butt" stroke-linejoin="miter" stroke-width="2" vectornator:layerName="path"/>
<path d="M840.417 523.038L820.188 523.038L820.188 504.205" fill="none" opacity="1" stroke="#453d3d" stroke-linecap="butt" stroke-linejoin="miter" stroke-width="2" vectornator:layerName="path"/>
<path d="M776.617 524.487C775.758 524.487 775.061 525.135 775.061 525.935C775.061 526.735 775.758 527.384 776.617 527.384C777.477 527.384 778.174 526.735 778.174 525.935C778.174 525.135 777.477 524.487 776.617 524.487ZM776.617 530.281C775.758 530.281 775.061 530.93 775.061 531.73C775.061 532.53 775.758 533.179 776.617 533.179C777.477 533.179 778.174 532.53 778.174 531.73C778.174 530.93 777.477 530.281 776.617 530.281ZM776.617 536.076C775.758 536.076 775.061 536.725 775.061 537.525C775.061 538.325 775.758 538.973 776.617 538.973C777.477 538.973 778.174 538.325 778.174 537.525C778.174 536.725 777.477 536.076 776.617 536.076ZM776.617 541.871C775.758 541.871 775.061 542.519 775.061 543.319C775.061 544.12 775.758 544.768 776.617 544.768C777.477 544.768 778.174 544.12 778.174 543.319C778.174 542.519 777.477 541.871 776.617 541.871ZM776.617 518.692C775.758 518.692 775.061 519.34 775.061 520.141C775.061 520.941 775.758 521.589 776.617 521.589C777.477 521.589 778.174 520.941 778.174 520.141C778.174 519.34 777.477 518.692 776.617 518.692ZM776.617 547.666C775.758 547.666 775.061 548.314 775.061 549.114C775.061 549.914 775.758 550.563 776.617 550.563C777.477 550.563 778.174 549.914 778.174 549.114C778.174 548.314 777.477 547.666 776.617 547.666ZM776.617 553.46C775.758 553.46 775.061 554.109 775.061 554.909C775.061 555.709 775.758 556.358 776.617 556.358C777.477 556.358 778.174 555.709 778.174 554.909C778.174 554.109 777.477 553.46 776.617 553.46ZM776.617 559.255C775.758 559.255 775.061 559.904 775.061 560.704C775.061 561.504 775.758 562.152 776.617 562.152C777.477 562.152 778.174 561.504 778.174 560.704C778.174 559.904 777.477 559.255 776.617 559.255ZM776.617 512.897C775.758 512.897 775.061 513.546 775.061 514.346C775.061 515.146 775.758 515.794 776.617 515.794C777.477 515.794 778.174 515.146 778.174 514.346C778.174 513.546 777.477 512.897 776.617 512.897ZM776.617 565.05C775.758 565.05 775.061 565.698 775.061 566.498C775.061 567.299 775.758 567.947 776.617 567.947C777.477 567.947 778.174 567.299 778.174 566.498C778.174 565.698 777.477 565.05 776.617 565.05ZM776.617 507.102C775.758 507.102 775.061 507.751 775.061 508.551C775.061 509.351 775.758 510 776.617 510C777.477 510 778.174 509.351 778.174 508.551C778.174 507.751 777.477 507.102 776.617 507.102ZM776.617 570.845C775.758 570.845 775.061 571.493 775.061 572.293C775.061 573.093 775.758 573.742 776.617 573.742C777.477 573.742 778.174 573.093 778.174 572.293C778.174 571.493 777.477 570.845 776.617 570.845ZM776.617 576.639C775.758 576.639 775.061 577.288 775.061 578.088C775.061 578.888 775.758 579.537 776.617 579.537C777.477 579.537 778.174 578.888 778.174 578.088C778.174 577.288 777.477 576.639 776.617 576.639ZM776.617 582.434C775.758 582.434 775.061 583.083 775.061 583.883C775.061 584.683 775.758 585.331 776.617 585.331C777.477 585.331 778.174 584.683 778.174 583.883C778.174 583.083 777.477 582.434 776.617 582.434Z" fill="#000000" fill-rule="nonzero" opacity="1" stroke="#453d3d" stroke-linecap="butt" stroke-linejoin="miter" stroke-width="2" vectornator:layerName="path"/>
<path d="M841.973 559.255C829.082 559.255 818.632 568.984 818.632 580.985C818.632 592.987 829.082 602.716 841.973 602.716C854.864 602.716 865.314 592.987 865.314 580.985C865.314 568.984 854.864 559.255 841.973 559.255Z" fill="none" opacity="1" stroke="#453d3d" stroke-linecap="butt" stroke-linejoin="miter" stroke-width="2" vectornator:layerName="path"/>
<path d="M813.481 588.229L807.739 588.229L807.739 591.126L814.513 591.126C814.11 590.184 813.77 589.217 813.481 588.229Z" fill="#000000" fill-rule="nonzero" opacity="1" stroke="#453d3d" stroke-linecap="butt" stroke-linejoin="miter" stroke-width="2" vectornator:layerName="path"/>
<path d="M865.314 580.985L841.973 580.985M857.534 595.472L841.973 580.985L841.973 559.255" fill="none" opacity="1" stroke="#453d3d" stroke-linecap="butt" stroke-linejoin="miter" stroke-width="2" vectornator:layerName="path"/>
<path d="M648.116 818.512L646.097 818.512L646.097 804.978C646.097 803.91 645.195 803.044 644.079 803.044L631.969 803.044C630.852 803.044 629.95 803.91 629.95 804.978L629.95 818.512L625.913 818.512L625.913 793.376C625.913 792.309 625.011 791.443 623.895 791.443L611.785 791.443C610.668 791.443 609.766 792.309 609.766 793.376L609.766 818.512L605.729 818.512L605.729 808.845C605.729 807.777 604.827 806.911 603.711 806.911L591.601 806.911C590.484 806.911 589.582 807.777 589.582 808.845L589.582 818.512L585.545 818.512L585.545 801.111C585.545 800.043 584.643 799.177 583.527 799.177L571.417 799.177C570.301 799.177 569.398 800.043 569.398 801.111L569.398 818.512L567.38 818.512C566.264 818.512 565.361 819.379 565.361 820.446C565.361 821.513 566.264 822.379 567.38 822.379L571.417 822.379L583.527 822.379L591.601 822.379L603.711 822.379L611.785 822.379L623.895 822.379L631.969 822.379L644.079 822.379L648.116 822.379C649.232 822.379 650.134 821.513 650.134 820.446C650.134 819.379 649.232 818.512 648.116 818.512ZM581.509 818.512L573.435 818.512L573.435 803.044L581.509 803.044L581.509 818.512ZM601.693 818.512L593.619 818.512L593.619 810.778L601.693 810.778L601.693 818.512ZM621.877 818.512L613.803 818.512L613.803 795.31L621.877 795.31L621.877 818.512ZM642.061 818.512L633.987 818.512L633.987 806.911L642.061 806.911L642.061 818.512ZM656.189 756.639L648.116 756.639C647 756.639 646.097 757.506 646.097 758.573C646.097 759.64 647 760.506 648.116 760.506L656.189 760.506C657.306 760.506 658.208 759.64 658.208 758.573C658.208 757.506 657.306 756.639 656.189 756.639Z" fill="#453d3d" fill-rule="nonzero" opacity="1" stroke="none" vectornator:layerName="path"/>
<path d="M660.226 737.304L559.306 737.304C555.968 737.304 553.251 739.906 553.251 743.105L553.251 824.313C553.251 827.511 555.968 830.113 559.306 830.113L660.226 830.113C663.565 830.113 666.281 827.511 666.281 824.313L666.281 743.105C666.281 739.906 663.565 737.304 660.226 737.304ZM662.245 824.313C662.245 825.378 661.34 826.246 660.226 826.246L559.306 826.246C558.192 826.246 557.288 825.378 557.288 824.313L557.288 760.506L640.042 760.506C641.158 760.506 642.061 759.64 642.061 758.573C642.061 757.506 641.158 756.639 640.042 756.639L557.288 756.639L557.288 743.105C557.288 742.039 558.192 741.171 559.306 741.171L660.226 741.171C661.34 741.171 662.245 742.039 662.245 743.105L662.245 824.313Z" fill="#453d3d" fill-rule="nonzero" opacity="1" stroke="none" vectornator:layerName="path"/>
<path d="M585.545 745.038C584.429 745.038 583.527 745.904 583.527 746.972L583.527 750.839C583.527 751.906 584.429 752.772 585.545 752.772C586.662 752.772 587.564 751.906 587.564 750.839L587.564 746.972C587.564 745.904 586.662 745.038 585.545 745.038ZM575.453 745.038C574.337 745.038 573.435 745.904 573.435 746.972L573.435 750.839C573.435 751.906 574.337 752.772 575.453 752.772C576.57 752.772 577.472 751.906 577.472 750.839L577.472 746.972C577.472 745.904 576.57 745.038 575.453 745.038ZM565.361 745.038C564.245 745.038 563.343 745.904 563.343 746.972L563.343 750.839C563.343 751.906 564.245 752.772 565.361 752.772C566.478 752.772 567.38 751.906 567.38 750.839L567.38 746.972C567.38 745.904 566.478 745.038 565.361 745.038ZM615.821 745.038C614.705 745.038 613.803 745.904 613.803 746.972L613.803 750.839C613.803 751.906 614.705 752.772 615.821 752.772C616.938 752.772 617.84 751.906 617.84 750.839L617.84 746.972C617.84 745.904 616.938 745.038 615.821 745.038ZM625.913 745.038C624.797 745.038 623.895 745.904 623.895 746.972L623.895 750.839C623.895 751.906 624.797 752.772 625.913 752.772C627.03 752.772 627.932 751.906 627.932 750.839L627.932 746.972C627.932 745.904 627.03 745.038 625.913 745.038ZM636.005 745.038C634.889 745.038 633.987 745.904 633.987 746.972L633.987 750.839C633.987 751.906 634.889 752.772 636.005 752.772C637.122 752.772 638.024 751.906 638.024 750.839L638.024 746.972C638.024 745.904 637.122 745.038 636.005 745.038ZM646.097 752.772C647.214 752.772 648.116 751.906 648.116 750.839L648.116 746.972C648.116 745.904 647.214 745.038 646.097 745.038C644.981 745.038 644.079 745.904 644.079 746.972L644.079 750.839C644.079 751.906 644.981 752.772 646.097 752.772ZM656.189 745.038C655.073 745.038 654.171 745.904 654.171 746.972L654.171 750.839C654.171 751.906 655.073 752.772 656.189 752.772C657.306 752.772 658.208 751.906 658.208 750.839L658.208 746.972C658.208 745.904 657.306 745.038 656.189 745.038ZM595.637 745.038C594.521 745.038 593.619 745.904 593.619 746.972L593.619 750.839C593.619 751.906 594.521 752.772 595.637 752.772C596.754 752.772 597.656 751.906 597.656 750.839L597.656 746.972C597.656 745.904 596.754 745.038 595.637 745.038ZM605.729 745.038C604.613 745.038 603.711 745.904 603.711 746.972L603.711 750.839C603.711 751.906 604.613 752.772 605.729 752.772C606.846 752.772 607.748 751.906 607.748 750.839L607.748 746.972C607.748 745.904 606.846 745.038 605.729 745.038ZM654.762 766.873L640.617 780.424C639.828 780.06 638.956 779.842 638.024 779.842C636.565 779.842 635.24 780.36 634.195 781.185L623.774 775.195C623.853 774.822 623.895 774.437 623.895 774.041C623.895 770.843 621.178 768.24 617.84 768.24C614.501 768.24 611.785 770.843 611.785 774.041C611.785 774.828 611.952 775.576 612.249 776.261L600.526 786.367C599.668 785.919 598.699 785.642 597.656 785.642C595.849 785.642 594.243 786.42 593.133 787.626L583.503 783.937C583.507 783.86 583.527 783.786 583.527 783.709C583.527 780.511 580.81 777.908 577.472 777.908C574.133 777.908 571.417 780.511 571.417 783.709C571.417 784.264 571.524 784.79 571.677 785.298L562.17 791.802C561.264 792.423 561.052 793.632 561.702 794.5C562.096 795.028 562.713 795.31 563.345 795.31C563.751 795.31 564.161 795.192 564.516 794.95L574.008 788.456C574.991 789.115 576.182 789.509 577.472 789.509C579.278 789.509 580.885 788.732 581.995 787.526L591.625 791.215C591.621 791.292 591.601 791.366 591.601 791.443C591.601 794.641 594.317 797.243 597.656 797.243C600.994 797.243 603.711 794.641 603.711 791.443C603.711 790.656 603.544 789.908 603.247 789.223L614.97 779.117C615.828 779.565 616.796 779.842 617.84 779.842C619.299 779.842 620.623 779.323 621.669 778.498L632.09 784.488C632.011 784.861 631.969 785.246 631.969 785.642C631.969 788.84 634.685 791.443 638.024 791.443C641.362 791.443 644.079 788.84 644.079 785.642C644.079 784.749 643.851 783.914 643.471 783.158L657.616 769.607C658.406 768.851 658.406 767.629 657.616 766.873C656.827 766.117 655.552 766.117 654.762 766.873ZM577.472 785.965C576.172 785.965 575.116 784.954 575.116 783.709C575.116 782.465 576.172 781.452 577.472 781.452C578.772 781.452 579.827 782.464 579.827 783.709C579.827 784.952 578.772 785.965 577.472 785.965ZM597.656 793.699C596.356 793.699 595.3 792.688 595.3 791.443C595.3 790.2 596.356 789.186 597.656 789.186C598.956 789.186 600.011 790.198 600.011 791.443C600.011 792.686 598.956 793.699 597.656 793.699ZM617.84 776.297C616.54 776.297 615.484 775.286 615.484 774.041C615.484 772.798 616.54 771.785 617.84 771.785C619.14 771.785 620.195 772.796 620.195 774.041C620.195 775.284 619.14 776.297 617.84 776.297ZM638.024 787.978C636.678 787.978 635.586 786.93 635.586 785.642C635.586 784.355 636.68 783.307 638.024 783.307C639.368 783.307 640.462 784.355 640.462 785.642C640.462 786.93 639.37 787.978 638.024 787.978Z" fill="#453d3d" fill-rule="nonzero" opacity="1" stroke="none" vectornator:layerName="path"/>
<path d="M166.509 716.606L181.357 741.483L166.509 766.359L132.679 766.359L117.301 741.483L132.679 716.606L166.509 716.606Z" fill="#453d3d" fill-opacity="0.00225225" fill-rule="nonzero" opacity="1" stroke="#453d3d" stroke-linecap="round" stroke-linejoin="miter" stroke-width="3.6628" vectornator:layerName="path"/>
<path d="M226.754 744.247L189.264 744.247L172.881 771.885L175.858 776.907L181.428 774.546L179.85 771.885L192.961 749.775L223.131 749.775L236.801 771.887L223.131 794L192.961 794L191.564 791.648L186.659 795.13L189.264 799.528L226.754 799.528L243.838 771.887L226.754 744.247ZM177.82 801.408L178.368 802.292L164.7 824.405L134.487 824.405L120.82 802.292L134.487 780.18L164.7 780.18L165.411 781.332L170.986 778.969L168.317 774.651L130.87 774.651L113.783 802.292L130.87 829.933L168.317 829.933L185.404 802.292L182.71 797.936L177.82 801.408Z" fill="#453d3d" fill-rule="nonzero" opacity="1" stroke="none" vectornator:layerName="path"/>
<path d="M214.178 767.741L195.812 765.699L199.853 771.862L134.293 799.851L145.15 804.73L145.15 816.112L203.875 777.993L208.027 784.326L214.178 767.741Z" fill="#453d3d" fill-rule="nonzero" opacity="1" stroke="none" vectornator:layerName="path"/>
<g fill="#453d3d" fill-opacity="0.00225225" opacity="1" stroke="#034f8b" stroke-linecap="butt" stroke-linejoin="miter" stroke-width="3.6628">
<path d="M79.7259 97.4463L88.1732 97.4463C89.8984 97.4463 91.2168 97.8125 92.1282 98.5449C93.2838 99.375 93.8779 100.718 93.9105 102.573C93.9105 104.119 93.414 105.422 92.4212 106.479C91.4121 107.619 89.8984 108.205 87.8802 108.237L79.7259 108.237L79.7259 97.4463ZM74.3304 128.232L79.7259 128.232L79.7259 113.022L86.6107 113.022L93.9593 128.232L100.38 128.232L92.1282 112.436C96.653 110.695 98.9479 107.407 99.013 102.573C98.9153 99.2854 97.7353 96.7545 95.473 94.9804C93.6012 93.4179 91.1842 92.6367 88.222 92.6367L74.3304 92.6367L74.3304 128.232Z"/>
<path d="M124.013 117.49L124.013 113.291C123.98 109.954 122.947 107.334 120.912 105.43C118.91 103.558 116.461 102.606 113.564 102.573C112.359 102.573 111.139 102.793 109.902 103.232C108.648 103.672 107.517 104.388 106.508 105.381C105.515 106.357 104.701 107.692 104.067 109.385C103.432 111.045 103.115 113.128 103.115 115.635C103.115 118.239 103.481 120.355 104.213 121.982C104.881 123.675 105.751 124.993 106.825 125.937C107.379 126.393 107.973 126.776 108.608 127.085C109.21 127.443 109.828 127.728 110.463 127.939C111.733 128.33 113.035 128.525 114.369 128.525C117.869 128.558 120.912 127.191 123.5 124.424L119.814 121.274L119.814 121.274C118.186 122.918 116.339 123.74 114.272 123.74C112.498 123.74 111.065 123.203 109.975 122.129C108.803 121.071 108.217 119.525 108.217 117.49L124.013 117.49ZM108.217 113.291C108.315 111.322 108.844 109.832 109.804 108.823C110.781 107.863 112.034 107.383 113.564 107.383C115.094 107.383 116.347 107.863 117.324 108.823C118.316 109.832 118.845 111.322 118.91 113.291L108.217 113.291Z"/>
<path d="M130.117 120.493L126.552 123.984C129.856 127.012 133.575 128.525 137.709 128.525C140.753 128.493 143.251 127.793 145.204 126.426C147.174 125.091 148.175 123.195 148.207 120.737C148.207 118.638 147.662 116.904 146.572 115.537C145.4 114.137 143.495 113.34 140.859 113.144L136.659 112.827C135.423 112.697 134.56 112.396 134.072 111.924C133.534 111.501 133.282 111.004 133.315 110.435C133.315 109.539 133.648 108.807 134.316 108.237C134.95 107.668 136.065 107.383 137.66 107.383C139.06 107.383 140.297 107.586 141.371 107.993C142.462 108.449 143.495 109.027 144.472 109.727L144.472 109.727L147.621 106.04C146.384 104.966 144.985 104.111 143.422 103.477C142.608 103.184 141.738 102.956 140.81 102.793C139.882 102.646 138.832 102.573 137.66 102.573C134.959 102.573 132.729 103.224 130.971 104.526C129.164 105.828 128.245 107.782 128.212 110.386C128.245 112.55 128.945 114.235 130.312 115.439C131.646 116.676 133.38 117.393 135.512 117.588L140.004 117.978C140.948 118.011 141.705 118.214 142.275 118.589C142.828 118.947 143.105 119.582 143.105 120.493C143.105 121.519 142.641 122.316 141.713 122.886C140.785 123.455 139.589 123.74 138.124 123.74C134.853 123.74 132.184 122.658 130.117 120.493Z"/>
<path d="M153.359 138.486L158.461 138.486L158.461 125.522L158.461 125.522C159.389 126.434 160.406 127.15 161.513 127.671C162.538 128.241 163.702 128.525 165.004 128.525C166.583 128.493 167.934 128.175 169.057 127.573C170.196 126.987 171.116 126.206 171.816 125.229C172.516 124.399 172.996 123.333 173.256 122.031C173.5 120.729 173.622 118.581 173.622 115.586C173.622 112.51 173.5 110.329 173.256 109.043C172.996 107.741 172.516 106.691 171.816 105.894C170.383 103.761 168.113 102.655 165.004 102.573C162.335 102.655 160.154 103.639 158.461 105.527L158.461 105.527L158.461 102.891L153.359 102.891L153.359 138.486ZM163.466 123.423C162.327 123.423 161.423 123.179 160.756 122.69C160.056 122.218 159.544 121.6 159.218 120.835C158.909 120.07 158.705 119.215 158.608 118.271C158.51 117.376 158.461 116.481 158.461 115.586C158.461 114.626 158.51 113.673 158.608 112.729C158.705 111.834 158.909 111.004 159.218 110.239C159.544 109.474 160.056 108.856 160.756 108.384C161.423 107.912 162.327 107.676 163.466 107.676C164.671 107.676 165.623 107.879 166.323 108.286C167.022 108.726 167.519 109.328 167.812 110.093C168.137 110.825 168.357 111.672 168.471 112.632C168.504 113.592 168.52 114.577 168.52 115.586C168.52 116.546 168.504 117.482 168.471 118.394C168.357 119.321 168.137 120.168 167.812 120.933C167.519 121.665 167.022 122.267 166.323 122.739C165.623 123.195 164.671 123.423 163.466 123.423Z"/>
<path d="M178.066 115.537C178.066 118.206 178.285 120.241 178.725 121.641C179.181 123.04 179.881 124.253 180.825 125.278C181.524 126.076 182.501 126.792 183.754 127.427C184.991 128.127 186.578 128.493 188.515 128.525C190.517 128.493 192.136 128.127 193.373 127.427C194.041 127.134 194.586 126.784 195.009 126.377C195.481 126.019 195.88 125.653 196.205 125.278C197.214 124.253 197.931 123.04 198.354 121.641C198.761 120.241 198.964 118.206 198.964 115.537C198.964 112.868 198.761 110.817 198.354 109.385C197.931 107.985 197.214 106.805 196.205 105.845C195.538 104.998 194.594 104.242 193.373 103.574C192.136 102.939 190.517 102.606 188.515 102.573C186.578 102.606 184.991 102.939 183.754 103.574C182.501 104.242 181.524 104.998 180.825 105.845C179.881 106.805 179.181 107.985 178.725 109.385C178.285 110.817 178.066 112.868 178.066 115.537ZM193.862 115.586C193.862 117.311 193.78 118.581 193.617 119.394C193.455 120.225 193.121 120.957 192.617 121.592C192.242 122.08 191.689 122.511 190.956 122.886C190.256 123.244 189.443 123.423 188.515 123.423C187.652 123.423 186.855 123.244 186.122 122.886C185.423 122.511 184.853 122.08 184.413 121.592C183.974 120.957 183.657 120.225 183.461 119.394C183.266 118.581 183.168 117.295 183.168 115.537C183.168 113.763 183.266 112.461 183.461 111.631C183.657 110.833 183.974 110.133 184.413 109.531C184.853 108.962 185.423 108.514 186.122 108.188C186.855 107.847 187.652 107.676 188.515 107.676C189.443 107.676 190.256 107.847 190.956 108.188C191.689 108.514 192.242 108.962 192.617 109.531C193.121 110.133 193.455 110.833 193.617 111.631C193.78 112.461 193.862 113.779 193.862 115.586Z"/>
<path d="M204.311 128.232L209.413 128.232L209.413 113.144C209.413 111.37 209.894 110.019 210.854 109.092C211.798 108.148 213.002 107.676 214.467 107.676C215.932 107.676 217.128 108.148 218.056 109.092C219 110.019 219.472 111.37 219.472 113.144L219.472 128.232L224.575 128.232L224.575 111.387C224.493 108.49 223.59 106.292 221.865 104.795C220.123 103.314 218.202 102.573 216.103 102.573C213.385 102.573 211.187 103.574 209.511 105.576L209.413 105.576L209.413 102.891L204.311 102.891L204.311 128.232Z"/>
<path d="M231.923 120.493L228.359 123.984C231.663 127.012 235.382 128.525 239.516 128.525C242.56 128.493 245.058 127.793 247.011 126.426C248.98 125.091 249.981 123.195 250.014 120.737C250.014 118.638 249.469 116.904 248.378 115.537C247.206 114.137 245.302 113.34 242.665 113.144L238.466 112.827C237.229 112.697 236.367 112.396 235.878 111.924C235.341 111.501 235.089 111.004 235.121 110.435C235.121 109.539 235.455 108.807 236.122 108.237C236.757 107.668 237.872 107.383 239.467 107.383C240.867 107.383 242.104 107.586 243.178 107.993C244.269 108.449 245.302 109.027 246.279 109.727L246.279 109.727L249.428 106.04C248.191 104.966 246.791 104.111 245.229 103.477C244.415 103.184 243.544 102.956 242.617 102.793C241.689 102.646 240.639 102.573 239.467 102.573C236.765 102.573 234.535 103.224 232.778 104.526C230.971 105.828 230.051 107.782 230.019 110.386C230.051 112.55 230.751 114.235 232.118 115.439C233.453 116.676 235.187 117.393 237.319 117.588L241.811 117.978C242.755 118.011 243.512 118.214 244.081 118.589C244.635 118.947 244.911 119.582 244.911 120.493C244.911 121.519 244.448 122.316 243.52 122.886C242.592 123.455 241.396 123.74 239.931 123.74C236.659 123.74 233.99 122.658 231.923 120.493Z"/>
<path d="M255.312 128.232L260.414 128.232L260.414 102.891L255.312 102.891L255.312 128.232ZM255.312 97.7392L260.414 97.7392L260.414 92.6367L255.312 92.6367L255.312 97.7392Z"/>
<path d="M272.866 128.232L277.065 128.232L286.367 102.891L280.947 102.891L275.014 120.64L274.916 120.64L268.959 102.891L263.564 102.891L272.866 128.232Z"/>
<path d="M308.705 117.49L308.705 113.291C308.673 109.954 307.639 107.334 305.605 105.43C303.603 103.558 301.153 102.606 298.256 102.573C297.052 102.573 295.831 102.793 294.594 103.232C293.341 103.672 292.21 104.388 291.2 105.381C290.208 106.357 289.394 107.692 288.759 109.385C288.124 111.045 287.807 113.128 287.807 115.635C287.807 118.239 288.173 120.355 288.906 121.982C289.573 123.675 290.444 124.993 291.518 125.937C292.071 126.393 292.665 126.776 293.3 127.085C293.902 127.443 294.521 127.728 295.156 127.939C296.425 128.33 297.727 128.525 299.062 128.525C302.561 128.558 305.605 127.191 308.193 124.424L304.506 121.274L304.506 121.274C302.879 122.918 301.031 123.74 298.964 123.74C297.19 123.74 295.758 123.203 294.667 122.129C293.495 121.071 292.909 119.525 292.909 117.49L308.705 117.49ZM292.909 113.291C293.007 111.322 293.536 109.832 294.496 108.823C295.473 107.863 296.726 107.383 298.256 107.383C299.786 107.383 301.039 107.863 302.016 108.823C303.009 109.832 303.538 111.322 303.603 113.291L292.909 113.291Z"/>
<path d="M326.503 128.232L338.588 128.232C341.257 128.232 343.512 127.646 345.351 126.475C347.206 125.384 348.655 124.001 349.697 122.324C350.087 121.689 350.421 121.079 350.698 120.493C350.958 119.891 351.153 119.207 351.284 118.442C351.56 116.929 351.699 114.259 351.699 110.435C351.699 106.838 351.609 104.307 351.43 102.842C351.202 101.377 350.657 99.9772 349.794 98.6425C347.385 94.6712 343.772 92.6692 338.954 92.6367L326.503 92.6367L326.503 128.232ZM331.899 97.7392L338.344 97.7392C341.078 97.6741 343.194 98.6751 344.692 100.742C345.424 101.572 345.888 102.655 346.083 103.989C346.23 105.324 346.303 107.537 346.303 110.63C346.303 113.804 346.23 115.968 346.083 117.124C345.921 118.296 345.538 119.264 344.936 120.029C343.569 122.096 341.371 123.13 338.344 123.13L331.899 123.13L331.899 97.7392Z"/>
<path d="M377.187 117.49L377.187 113.291C377.154 109.954 376.121 107.334 374.086 105.43C372.084 103.558 369.635 102.606 366.738 102.573C365.533 102.573 364.312 102.793 363.075 103.232C361.822 103.672 360.691 104.388 359.682 105.381C358.689 106.357 357.875 107.692 357.241 109.385C356.606 111.045 356.288 113.128 356.288 115.635C356.288 118.239 356.655 120.355 357.387 121.982C358.054 123.675 358.925 124.993 359.999 125.937C360.553 126.393 361.147 126.776 361.782 127.085C362.384 127.443 363.002 127.728 363.637 127.939C364.907 128.33 366.209 128.525 367.543 128.525C371.043 128.558 374.086 127.191 376.674 124.424L372.988 121.274L372.988 121.274C371.36 122.918 369.513 123.74 367.446 123.74C365.672 123.74 364.239 123.203 363.149 122.129C361.977 121.071 361.391 119.525 361.391 117.49L377.187 117.49ZM361.391 113.291C361.489 111.322 362.018 109.832 362.978 108.823C363.954 107.863 365.208 107.383 366.738 107.383C368.268 107.383 369.521 107.863 370.497 108.823C371.49 109.832 372.019 111.322 372.084 113.291L361.391 113.291Z"/>
<path d="M383.29 120.493L379.726 123.984C383.03 127.012 386.749 128.525 390.883 128.525C393.927 128.493 396.425 127.793 398.378 126.426C400.348 125.091 401.349 123.195 401.381 120.737C401.381 118.638 400.836 116.904 399.745 115.537C398.574 114.137 396.669 113.34 394.033 113.144L389.833 112.827C388.596 112.697 387.734 112.396 387.245 111.924C386.708 111.501 386.456 111.004 386.489 110.435C386.489 109.539 386.822 108.807 387.49 108.237C388.124 107.668 389.239 107.383 390.834 107.383C392.234 107.383 393.471 107.586 394.545 107.993C395.636 108.449 396.669 109.027 397.646 109.727L397.646 109.727L400.795 106.04C399.558 104.966 398.159 104.111 396.596 103.477C395.782 103.184 394.911 102.956 393.984 102.793C393.056 102.646 392.006 102.573 390.834 102.573C388.132 102.573 385.903 103.224 384.145 104.526C382.338 105.828 381.419 107.782 381.386 110.386C381.419 112.55 382.118 114.235 383.486 115.439C384.82 116.676 386.554 117.393 388.686 117.588L393.178 117.978C394.122 118.011 394.879 118.214 395.449 118.589C396.002 118.947 396.279 119.582 396.279 120.493C396.279 121.519 395.815 122.316 394.887 122.886C393.959 123.455 392.763 123.74 391.298 123.74C388.027 123.74 385.357 122.658 383.29 120.493Z"/>
<path d="M406.679 128.232L411.782 128.232L411.782 102.891L406.679 102.891L406.679 128.232ZM406.679 97.7392L411.782 97.7392L411.782 92.6367L406.679 92.6367L406.679 97.7392Z"/>
<path d="M432.778 125.571L432.778 128.184C432.745 129.909 432.208 131.26 431.166 132.236C430.108 133.197 428.709 133.677 426.967 133.677C426.039 133.644 425.144 133.392 424.282 132.92C423.435 132.497 422.687 131.984 422.035 131.382L422.035 131.382L418.08 134.531C420.506 137.298 423.435 138.714 426.869 138.779C429.864 138.779 432.436 137.86 434.584 136.02C436.716 134.23 437.815 131.431 437.88 127.622L437.88 102.891L432.778 102.891L432.778 105.576L432.778 105.576C430.938 103.574 428.757 102.573 426.235 102.573C424.591 102.606 423.224 102.923 422.133 103.525C420.994 104.16 420.123 104.876 419.521 105.674C418.853 106.488 418.373 107.489 418.08 108.677C417.771 109.881 417.617 112.184 417.617 115.586C417.617 118.922 417.771 121.185 418.08 122.373C418.373 123.577 418.853 124.595 419.521 125.425C420.123 126.157 420.994 126.841 422.133 127.476C423.224 128.143 424.591 128.493 426.235 128.525C428.92 128.46 431.101 127.476 432.778 125.571ZM422.719 115.586C422.719 113.617 422.784 112.249 422.914 111.484C423.028 110.719 423.297 110.101 423.72 109.629C424.062 109.173 424.583 108.726 425.283 108.286C425.95 107.912 426.78 107.708 427.773 107.676C428.766 107.708 429.596 107.912 430.263 108.286C430.93 108.726 431.435 109.173 431.777 109.629C432.2 110.101 432.485 110.719 432.631 111.484C432.729 112.249 432.778 113.617 432.778 115.586C432.778 117.523 432.729 118.857 432.631 119.59C432.485 120.355 432.2 120.99 431.777 121.494C431.435 121.95 430.93 122.365 430.263 122.739C429.596 123.195 428.766 123.423 427.773 123.423C426.78 123.423 425.95 123.195 425.283 122.739C424.583 122.365 424.062 121.95 423.72 121.494C423.297 120.99 423.028 120.355 422.914 119.59C422.784 118.857 422.719 117.523 422.719 115.586Z"/>
<path d="M444.472 128.232L449.575 128.232L449.575 113.144C449.575 111.37 450.055 110.019 451.015 109.092C451.959 108.148 453.163 107.676 454.628 107.676C456.093 107.676 457.289 108.148 458.217 109.092C459.161 110.019 459.633 111.37 459.633 113.144L459.633 128.232L464.736 128.232L464.736 111.387C464.654 108.49 463.751 106.292 462.026 104.795C460.284 103.314 458.364 102.573 456.264 102.573C453.546 102.573 451.349 103.574 449.672 105.576L449.575 105.576L449.575 102.891L444.472 102.891L444.472 128.232Z"/>
</g>
</g>
</svg>
